<?xml version="1.0" encoding="UTF-8" standalone="no"?><svg xmlns="http://www.w3.org/2000/svg" xmlns:xlink="http://www.w3.org/1999/xlink" clip-rule="evenodd" stroke-miterlimit="10" viewBox="0 0 1024 768"><desc>SVG generated by Keynote</desc><defs></defs><g transform="matrix(1.00, 0.00, -0.00, -1.00, 0.0, 768.0)"><image xlink:href="../../7187C4D7-7A96-4043-AC4B-9D1093D9BCF5/assets/3632BA1C5F05CE33C912EFBF89031ED3.png" width="1024.00" height="768.00" transform="matrix(1.00, 0.00, -0.00, -1.00, 0.0, 768.0)"></image><text xml:space="preserve" font-family="Chalkduster,Chalkduster" font-size="56.0" fill="#FEFFFE" transform="matrix(1.00, 0.00, -0.00, -1.00, 197.6, 651.6)">E</text><text xml:space="preserve" font-family="Chalkduster,Chalkduster" font-size="56.0" fill="#FEFFFE" transform="matrix(1.00, 0.00, -0.00, -1.00, 239.0, 651.6)">x</text><text xml:space="preserve" font-family="Chalkduster,Chalkduster" font-size="56.0" fill="#FEFFFE" transform="matrix(1.00, 0.00, -0.00, -1.00, 273.9, 651.6)">p</text><text xml:space="preserve" font-family="Chalkduster,Chalkduster" font-size="56.0" fill="#FEFFFE" transform="matrix(1.00, 0.00, -0.00, -1.00, 308.5, 651.6)">r</text><text xml:space="preserve" font-family="Chalkduster,Chalkduster" font-size="56.0" fill="#FEFFFE" transform="matrix(1.00, 0.00, -0.00, -1.00, 336.8, 651.6)">e</text><text xml:space="preserve" font-family="Chalkduster,Chalkduster" font-size="56.0" fill="#FEFFFE" transform="matrix(1.00, 0.00, -0.00, -1.00, 372.8, 651.6)">s</text><text xml:space="preserve" font-family="Chalkduster,Chalkduster" font-size="56.0" fill="#FEFFFE" transform="matrix(1.00, 0.00, -0.00, -1.00, 401.1, 651.6)">s</text><text xml:space="preserve" font-family="Chalkduster,Chalkduster" font-size="56.0" fill="#FEFFFE" transform="matrix(1.00, 0.00, -0.00, -1.00, 429.4, 651.6)">õ</text><text xml:space="preserve" font-family="Chalkduster,Chalkduster" font-size="56.0" fill="#FEFFFE" transform="matrix(1.00, 0.00, -0.00, -1.00, 472.6, 651.6)">e</text><text xml:space="preserve" font-family="Chalkduster,Chalkduster" font-size="56.0" fill="#FEFFFE" transform="matrix(1.00, 0.00, -0.00, -1.00, 508.6, 651.6)">s</text><text xml:space="preserve" font-family="Chalkduster,Chalkduster" font-size="56.0" fill="#FEFFFE" transform="matrix(1.00, 0.00, -0.00, -1.00, 536.9, 651.6)"> </text><text xml:space="preserve" font-family="Chalkduster,Chalkduster" font-size="56.0" fill="#A8C994" transform="matrix(1.00, 0.00, -0.00, -1.00, 564.7, 651.6)">B</text><text xml:space="preserve" font-family="Chalkduster,Chalkduster" font-size="56.0" fill="#A8C994" transform="matrix(1.00, 0.00, -0.00, -1.00, 603.8, 651.6)">o</text><text xml:space="preserve" font-family="Chalkduster,Chalkduster" font-size="56.0" fill="#A8C994" transform="matrix(1.00, 0.00, -0.00, -1.00, 646.2, 651.6)">o</text><text xml:space="preserve" font-family="Chalkduster,Chalkduster" font-size="56.0" fill="#A8C994" transform="matrix(1.00, 0.00, -0.00, -1.00, 688.8, 651.6)">l</text><text xml:space="preserve" font-family="Chalkduster,Chalkduster" font-size="56.0" fill="#A8C994" transform="matrix(1.00, 0.00, -0.00, -1.00, 712.0, 651.6)">e</text><text xml:space="preserve" font-family="Chalkduster,Chalkduster" font-size="56.0" fill="#A8C994" transform="matrix(1.00, 0.00, -0.00, -1.00, 746.7, 651.6)">a</text><text xml:space="preserve" font-family="Chalkduster,Chalkduster" font-size="56.0" fill="#A8C994" transform="matrix(1.00, 0.00, -0.00, -1.00, 785.3, 651.6)">n</text><text xml:space="preserve" font-family="Chalkduster,Chalkduster" font-size="25.0" fill="#FEFFFE" transform="matrix(1.00, 0.00, -0.00, -1.00, 163.0, 541.0)">S</text><text xml:space="preserve" font-family="Chalkduster,Chalkduster" font-size="25.0" fill="#FEFFFE" transform="matrix(1.00, 0.00, -0.00, -1.00, 175.4, 541.0)">ã</text><text xml:space="preserve" font-family="Chalkduster,Chalkduster" font-size="25.0" fill="#FEFFFE" transform="matrix(1.00, 0.00, -0.00, -1.00, 192.3, 541.0)">o</text><text xml:space="preserve" font-family="Chalkduster,Chalkduster" font-size="25.0" fill="#FEFFFE" transform="matrix(1.00, 0.00, -0.00, -1.00, 222.7, 541.0)">a</text><text xml:space="preserve" font-family="Chalkduster,Chalkduster" font-size="25.0" fill="#FEFFFE" transform="matrix(1.00, 0.00, -0.00, -1.00, 240.0, 541.0)">p</text><text xml:space="preserve" font-family="Chalkduster,Chalkduster" font-size="25.0" fill="#FEFFFE" transform="matrix(1.00, 0.00, -0.00, -1.00, 255.7, 541.0)">e</text><text xml:space="preserve" font-family="Chalkduster,Chalkduster" font-size="25.0" fill="#FEFFFE" transform="matrix(1.00, 0.00, -0.00, -1.00, 271.5, 541.0)">n</text><text xml:space="preserve" font-family="Chalkduster,Chalkduster" font-size="25.0" fill="#FEFFFE" transform="matrix(1.00, 0.00, -0.00, -1.00, 289.8, 541.0)">a</text><text xml:space="preserve" font-family="Chalkduster,Chalkduster" font-size="25.0" fill="#FEFFFE" transform="matrix(1.00, 0.00, -0.00, -1.00, 307.3, 541.0)">s</text><text xml:space="preserve" font-family="Chalkduster,Chalkduster" font-size="25.0" fill="#FEFFFE" transform="matrix(1.00, 0.00, -0.00, -1.00, 332.4, 541.0)">u</text><text xml:space="preserve" font-family="Chalkduster,Chalkduster" font-size="25.0" fill="#FEFFFE" transform="matrix(1.00, 0.00, -0.00, -1.00, 349.1, 541.0)">m</text><text xml:space="preserve" font-family="Chalkduster,Chalkduster" font-size="25.0" fill="#FF7777" transform="matrix(1.00, 0.00, -0.00, -1.00, 386.8, 541.0)">t</text><text xml:space="preserve" font-family="Chalkduster,Chalkduster" font-size="25.0" fill="#FF7777" transform="matrix(1.00, 0.00, -0.00, -1.00, 398.0, 541.0)">e</text><text xml:space="preserve" font-family="Chalkduster,Chalkduster" font-size="25.0" fill="#FF7777" transform="matrix(1.00, 0.00, -0.00, -1.00, 414.0, 541.0)">s</text><text xml:space="preserve" font-family="Chalkduster,Chalkduster" font-size="25.0" fill="#FF7777" transform="matrix(1.00, 0.00, -0.00, -1.00, 427.4, 541.0)">t</text><text xml:space="preserve" font-family="Chalkduster,Chalkduster" font-size="25.0" fill="#FF7777" transform="matrix(1.00, 0.00, -0.00, -1.00, 438.6, 541.0)">e</text><text xml:space="preserve" font-family="Chalkduster,Chalkduster" font-size="25.0" fill="#FEFFFE" transform="matrix(1.00, 0.00, -0.00, -1.00, 466.5, 541.0)">p</text><text xml:space="preserve" font-family="Chalkduster,Chalkduster" font-size="25.0" fill="#FEFFFE" transform="matrix(1.00, 0.00, -0.00, -1.00, 482.0, 541.0)">a</text><text xml:space="preserve" font-family="Chalkduster,Chalkduster" font-size="25.0" fill="#FEFFFE" transform="matrix(1.00, 0.00, -0.00, -1.00, 497.9, 541.0)">r</text><text xml:space="preserve" font-family="Chalkduster,Chalkduster" font-size="25.0" fill="#FEFFFE" transform="matrix(1.00, 0.00, -0.00, -1.00, 511.1, 541.0)">a</text><text xml:space="preserve" font-family="Chalkduster,Chalkduster" font-size="25.0" fill="#FEFFFE" transform="matrix(1.00, 0.00, -0.00, -1.00, 540.7, 541.0)">u</text><text xml:space="preserve" font-family="Chalkduster,Chalkduster" font-size="25.0" fill="#FEFFFE" transform="matrix(1.00, 0.00, -0.00, -1.00, 557.4, 541.0)">m</text><text xml:space="preserve" font-family="Chalkduster,Chalkduster" font-size="25.0" fill="#FEFFFE" transform="matrix(1.00, 0.00, -0.00, -1.00, 582.7, 541.0)">a</text><text xml:space="preserve" font-family="Chalkduster,Chalkduster" font-size="25.0" fill="#FEFFFE" transform="matrix(1.00, 0.00, -0.00, -1.00, 612.4, 541.0)">c</text><text xml:space="preserve" font-family="Chalkduster,Chalkduster" font-size="25.0" fill="#FEFFFE" transform="matrix(1.00, 0.00, -0.00, -1.00, 627.3, 541.0)">o</text><text xml:space="preserve" font-family="Chalkduster,Chalkduster" font-size="25.0" fill="#FEFFFE" transform="matrix(1.00, 0.00, -0.00, -1.00, 645.9, 541.0)">n</text><text xml:space="preserve" font-family="Chalkduster,Chalkduster" font-size="25.0" fill="#FEFFFE" transform="matrix(1.00, 0.00, -0.00, -1.00, 664.3, 541.0)">d</text><text xml:space="preserve" font-family="Chalkduster,Chalkduster" font-size="25.0" fill="#FEFFFE" transform="matrix(1.00, 0.00, -0.00, -1.00, 684.8, 541.0)">i</text><text xml:space="preserve" font-family="Chalkduster,Chalkduster" font-size="25.0" fill="#FEFFFE" transform="matrix(1.00, 0.00, -0.00, -1.00, 694.7, 541.0)">ç</text><text xml:space="preserve" font-family="Chalkduster,Chalkduster" font-size="25.0" fill="#FEFFFE" transform="matrix(1.00, 0.00, -0.00, -1.00, 708.5, 541.0)">ã</text><text xml:space="preserve" font-family="Chalkduster,Chalkduster" font-size="25.0" fill="#FEFFFE" transform="matrix(1.00, 0.00, -0.00, -1.00, 725.4, 541.0)">o</text><text xml:space="preserve" font-family="Chalkduster,Chalkduster" font-size="25.0" fill="#FEFFFE" transform="matrix(1.00, 0.00, -0.00, -1.00, 741.7, 541.0)">.</text><text xml:space="preserve" font-family="Chalkduster,Chalkduster" font-size="25.0" fill="#FEFFFE" transform="matrix(1.00, 0.00, -0.00, -1.00, 163.3, 485.4)">-</text><text xml:space="preserve" font-family="Chalkduster,Chalkduster" font-size="25.0" fill="#FEFFFE" transform="matrix(1.00, 0.00, -0.00, -1.00, 194.5, 488.4)">A</text><text xml:space="preserve" font-family="Chalkduster,Chalkduster" font-size="25.0" fill="#FEFFFE" transform="matrix(1.00, 0.00, -0.00, -1.00, 212.7, 488.4)">v</text><text xml:space="preserve" font-family="Chalkduster,Chalkduster" font-size="25.0" fill="#FEFFFE" transform="matrix(1.00, 0.00, -0.00, -1.00, 226.9, 488.4)">a</text><text xml:space="preserve" font-family="Chalkduster,Chalkduster" font-size="25.0" fill="#FEFFFE" transform="matrix(1.00, 0.00, -0.00, -1.00, 243.1, 488.4)">l</text><text xml:space="preserve" font-family="Chalkduster,Chalkduster" font-size="25.0" fill="#FEFFFE" transform="matrix(1.00, 0.00, -0.00, -1.00, 255.1, 488.4)">i</text><text xml:space="preserve" font-family="Chalkduster,Chalkduster" font-size="25.0" fill="#FEFFFE" transform="matrix(1.00, 0.00, -0.00, -1.00, 265.2, 488.4)">a</text><text xml:space="preserve" font-family="Chalkduster,Chalkduster" font-size="25.0" fill="#FEFFFE" transform="matrix(1.00, 0.00, -0.00, -1.00, 294.9, 488.4)">c</text><text xml:space="preserve" font-family="Chalkduster,Chalkduster" font-size="25.0" fill="#FEFFFE" transform="matrix(1.00, 0.00, -0.00, -1.00, 309.8, 488.4)">o</text><text xml:space="preserve" font-family="Chalkduster,Chalkduster" font-size="25.0" fill="#FEFFFE" transform="matrix(1.00, 0.00, -0.00, -1.00, 328.6, 488.4)">m</text><text xml:space="preserve" font-family="Chalkduster,Chalkduster" font-size="25.0" fill="#FEFFFE" transform="matrix(1.00, 0.00, -0.00, -1.00, 353.9, 488.4)">o</text><text xml:space="preserve" font-family="Chalkduster,Chalkduster" font-size="25.0" fill="#A8C994" transform="matrix(1.00, 0.00, -0.00, -1.00, 384.3, 488.4)">t</text><text xml:space="preserve" font-family="Chalkduster,Chalkduster" font-size="25.0" fill="#A8C994" transform="matrix(1.00, 0.00, -0.00, -1.00, 395.7, 488.4)">r</text><text xml:space="preserve" font-family="Chalkduster,Chalkduster" font-size="25.0" fill="#A8C994" transform="matrix(1.00, 0.00, -0.00, -1.00, 409.5, 488.4)">u</text><text xml:space="preserve" font-family="Chalkduster,Chalkduster" font-size="25.0" fill="#A8C994" transform="matrix(1.00, 0.00, -0.00, -1.00, 426.7, 488.4)">e</text><text xml:space="preserve" font-family="Chalkduster,Chalkduster" font-size="25.0" fill="#FEFFFE" transform="matrix(1.00, 0.00, -0.00, -1.00, 454.6, 488.4)">o</text><text xml:space="preserve" font-family="Chalkduster,Chalkduster" font-size="25.0" fill="#FEFFFE" transform="matrix(1.00, 0.00, -0.00, -1.00, 473.4, 488.4)">u</text><text xml:space="preserve" font-family="Chalkduster,Chalkduster" font-size="25.0" fill="#A8C994" transform="matrix(1.00, 0.00, -0.00, -1.00, 503.0, 488.4)">f</text><text xml:space="preserve" font-family="Chalkduster,Chalkduster" font-size="25.0" fill="#A8C994" transform="matrix(1.00, 0.00, -0.00, -1.00, 515.5, 488.4)">a</text><text xml:space="preserve" font-family="Chalkduster,Chalkduster" font-size="25.0" fill="#A8C994" transform="matrix(1.00, 0.00, -0.00, -1.00, 531.7, 488.4)">l</text><text xml:space="preserve" font-family="Chalkduster,Chalkduster" font-size="25.0" fill="#A8C994" transform="matrix(1.00, 0.00, -0.00, -1.00, 543.5, 488.4)">s</text><text xml:space="preserve" font-family="Chalkduster,Chalkduster" font-size="25.0" fill="#A8C994" transform="matrix(1.00, 0.00, -0.00, -1.00, 556.1, 488.4)">e</text><text xml:space="preserve" font-family="Chalkduster,Chalkduster" font-size="25.0" fill="#FEFFFE" transform="matrix(1.00, 0.00, -0.00, -1.00, 163.3, 422.9)">C</text><text xml:space="preserve" font-family="Chalkduster,Chalkduster" font-size="25.0" fill="#FEFFFE" transform="matrix(1.00, 0.00, -0.00, -1.00, 183.5, 422.9)">o</text><text xml:space="preserve" font-family="Chalkduster,Chalkduster" font-size="25.0" fill="#FEFFFE" transform="matrix(1.00, 0.00, -0.00, -1.00, 202.3, 422.9)">m</text><text xml:space="preserve" font-family="Chalkduster,Chalkduster" font-size="25.0" fill="#FEFFFE" transform="matrix(1.00, 0.00, -0.00, -1.00, 227.6, 422.9)">p</text><text xml:space="preserve" font-family="Chalkduster,Chalkduster" font-size="25.0" fill="#FEFFFE" transform="matrix(1.00, 0.00, -0.00, -1.00, 243.0, 422.9)">a</text><text xml:space="preserve" font-family="Chalkduster,Chalkduster" font-size="25.0" fill="#FEFFFE" transform="matrix(1.00, 0.00, -0.00, -1.00, 258.9, 422.9)">r</text><text xml:space="preserve" font-family="Chalkduster,Chalkduster" font-size="25.0" fill="#FEFFFE" transform="matrix(1.00, 0.00, -0.00, -1.00, 272.1, 422.9)">a</text><text xml:space="preserve" font-family="Chalkduster,Chalkduster" font-size="25.0" fill="#FEFFFE" transform="matrix(1.00, 0.00, -0.00, -1.00, 289.4, 422.9)">ç</text><text xml:space="preserve" font-family="Chalkduster,Chalkduster" font-size="25.0" fill="#FEFFFE" transform="matrix(1.00, 0.00, -0.00, -1.00, 303.2, 422.9)">õ</text><text xml:space="preserve" font-family="Chalkduster,Chalkduster" font-size="25.0" fill="#FEFFFE" transform="matrix(1.00, 0.00, -0.00, -1.00, 322.5, 422.9)">e</text><text xml:space="preserve" font-family="Chalkduster,Chalkduster" font-size="25.0" fill="#FEFFFE" transform="matrix(1.00, 0.00, -0.00, -1.00, 338.5, 422.9)">s</text><text xml:space="preserve" font-family="Chalkduster,Chalkduster" font-size="25.0" fill="#FEFFFE" transform="matrix(1.00, 0.00, -0.00, -1.00, 363.6, 422.9)">d</text><text xml:space="preserve" font-family="Chalkduster,Chalkduster" font-size="25.0" fill="#FEFFFE" transform="matrix(1.00, 0.00, -0.00, -1.00, 383.1, 422.9)">e</text><text xml:space="preserve" font-family="Chalkduster,Chalkduster" font-size="25.0" fill="#FEFFFE" transform="matrix(1.00, 0.00, -0.00, -1.00, 408.8, 422.9)">V</text><text xml:space="preserve" font-family="Chalkduster,Chalkduster" font-size="25.0" fill="#FEFFFE" transform="matrix(1.00, 0.00, -0.00, -1.00, 424.8, 422.9)">a</text><text xml:space="preserve" font-family="Chalkduster,Chalkduster" font-size="25.0" fill="#FEFFFE" transform="matrix(1.00, 0.00, -0.00, -1.00, 441.0, 422.9)">l</text><text xml:space="preserve" font-family="Chalkduster,Chalkduster" font-size="25.0" fill="#FEFFFE" transform="matrix(1.00, 0.00, -0.00, -1.00, 451.8, 422.9)">o</text><text xml:space="preserve" font-family="Chalkduster,Chalkduster" font-size="25.0" fill="#FEFFFE" transform="matrix(1.00, 0.00, -0.00, -1.00, 470.0, 422.9)">r</text><text xml:space="preserve" font-family="Chalkduster,Chalkduster" font-size="25.0" fill="#FEFFFE" transform="matrix(1.00, 0.00, -0.00, -1.00, 482.8, 422.9)">:</text><g><clipPath id="clip0x600001aaa2c0"><path d="M 160.5 399.5 L 862.3 399.5 L 862.3 118.9 L 160.5 118.9 Z M 160.5 399.5 "></path></clipPath><g clip-path="url(#clip0x600001aaa2c0)"><path d="M 161.0 352.4 L 450.3 352.4 L 450.3 305.8 L 161.0 305.8 Z M 161.0 352.4 " fill="#000000" fill-opacity="0.25"></path><path d="M 450.3 352.4 L 861.8 352.4 L 861.8 305.8 L 450.3 305.8 Z M 450.3 352.4 " fill="#000000" fill-opacity="0.25"></path><path d="M 161.0 259.2 L 450.3 259.2 L 450.3 212.6 L 161.0 212.6 Z M 161.0 259.2 " fill="#000000" fill-opacity="0.25"></path><path d="M 450.3 259.2 L 861.8 259.2 L 861.8 212.6 L 450.3 212.6 Z M 450.3 259.2 " fill="#000000" fill-opacity="0.25"></path><path d="M 161.0 166.0 L 450.3 166.0 L 450.3 119.4 L 161.0 119.4 Z M 161.0 166.0 " fill="#000000" fill-opacity="0.25"></path><path d="M 450.3 166.0 L 861.8 166.0 L 861.8 119.4 L 450.3 119.4 Z M 450.3 166.0 " fill="#000000" fill-opacity="0.25"></path></g></g><image xlink:href="F11DF3C187042BBDCC3CDD4BC7FC3081.png" width="41.00" height="20.00" transform="matrix(1.00, 0.00, -0.00, -1.00, 293.0, 385.0)"></image><g><clipPath id="clip0x618001aa08a0"><path d="M 160.5 399.5 L 862.3 399.5 L 862.3 118.9 L 160.5 118.9 Z M 160.5 399.5 "></path></clipPath><g clip-path="url(#clip0x618001aa08a0)"><g><clipPath id="clip0x618001ab0500"><path d="M 161.5 352.9 L 449.8 352.9 L 449.8 398.5 L 161.5 398.5 Z M 161.5 352.9 "></path></clipPath><g clip-path="url(#clip0x618001ab0500)"><text xml:space="preserve" font-family="Menlo-Bold,Menlo" font-weight="bold" font-size="26.0" fill="#FEFFFE" transform="matrix(1.00, 0.00, -0.00, -1.00, 282.2, 366.6)"> </text><text xml:space="preserve" font-family="Menlo-Bold,Menlo" font-weight="bold" font-size="26.0" fill="#FEFFFE" transform="matrix(1.00, 0.00, -0.00, -1.00, 297.8, 366.6)">=</text><text xml:space="preserve" font-family="Menlo-Bold,Menlo" font-weight="bold" font-size="26.0" fill="#FEFFFE" transform="matrix(1.00, 0.00, -0.00, -1.00, 313.5, 366.6)">=</text></g></g></g></g><image xlink:href="67360205CF88312BB3CEDB7E9FD262AD.png" width="84.00" height="38.00" transform="matrix(1.00, 0.00, -0.00, -1.00, 614.0, 390.0)"></image><g><clipPath id="clip0x608001ab4280"><path d="M 160.5 399.5 L 862.3 399.5 L 862.3 118.9 L 160.5 118.9 Z M 160.5 399.5 "></path></clipPath><g clip-path="url(#clip0x608001ab4280)"><g><clipPath id="clip0x608001ab4580"><path d="M 450.8 352.9 L 861.3 352.9 L 861.3 398.5 L 450.8 398.5 Z M 450.8 352.9 "></path></clipPath><g clip-path="url(#clip0x608001ab4580)"><text xml:space="preserve" font-family="Chalkduster,Chalkduster" font-size="26.0" fill="#FEFFFE" transform="matrix(1.00, 0.00, -0.00, -1.00, 618.6, 364.2)">i</text><text xml:space="preserve" font-family="Chalkduster,Chalkduster" font-size="26.0" fill="#FEFFFE" transform="matrix(1.00, 0.00, -0.00, -1.00, 628.8, 364.2)">g</text><text xml:space="preserve" font-family="Chalkduster,Chalkduster" font-size="26.0" fill="#FEFFFE" transform="matrix(1.00, 0.00, -0.00, -1.00, 646.6, 364.2)">u</text><text xml:space="preserve" font-family="Chalkduster,Chalkduster" font-size="26.0" fill="#FEFFFE" transform="matrix(1.00, 0.00, -0.00, -1.00, 664.4, 364.2)">a</text><text xml:space="preserve" font-family="Chalkduster,Chalkduster" font-size="26.0" fill="#FEFFFE" transform="matrix(1.00, 0.00, -0.00, -1.00, 681.3, 364.2)">l</text></g></g></g></g><image xlink:href="E4DFA07047221FC21927C7FCADEB4C52.png" width="35.00" height="29.00" transform="matrix(1.00, 0.00, -0.00, -1.00, 291.0, 344.0)"></image><g><clipPath id="clip0x608001ab4700"><path d="M 160.5 399.5 L 862.3 399.5 L 862.3 118.9 L 160.5 118.9 Z M 160.5 399.5 "></path></clipPath><g clip-path="url(#clip0x608001ab4700)"><g><clipPath id="clip0x608001ab4ac0"><path d="M 161.5 306.3 L 449.8 306.3 L 449.8 351.9 L 161.5 351.9 Z M 161.5 306.3 "></path></clipPath><g clip-path="url(#clip0x608001ab4ac0)"><text xml:space="preserve" font-family="Menlo-Bold,Menlo" font-weight="bold" font-size="26.0" fill="#FEFFFE" transform="matrix(1.00, 0.00, -0.00, -1.00, 290.0, 320.0)">!</text><text xml:space="preserve" font-family="Menlo-Bold,Menlo" font-weight="bold" font-size="26.0" fill="#FEFFFE" transform="matrix(1.00, 0.00, -0.00, -1.00, 305.6, 320.0)">=</text></g></g></g></g><image xlink:href="FE5DA43E0B577F2EE1096208D9541A9D.png" width="152.00" height="40.00" transform="matrix(1.00, 0.00, -0.00, -1.00, 580.0, 346.0)"></image><g><clipPath id="clip0x600001aaa7a0"><path d="M 160.5 399.5 L 862.3 399.5 L 862.3 118.9 L 160.5 118.9 Z M 160.5 399.5 "></path></clipPath><g clip-path="url(#clip0x600001aaa7a0)"><g><clipPath id="clip0x600001aaab00"><path d="M 450.8 306.3 L 861.3 306.3 L 861.3 351.9 L 450.8 351.9 Z M 450.8 306.3 "></path></clipPath><g clip-path="url(#clip0x600001aaab00)"><text xml:space="preserve" font-family="Chalkduster,Chalkduster" font-size="26.0" fill="#FEFFFE" transform="matrix(1.00, 0.00, -0.00, -1.00, 584.4, 317.6)">n</text><text xml:space="preserve" font-family="Chalkduster,Chalkduster" font-size="26.0" fill="#FEFFFE" transform="matrix(1.00, 0.00, -0.00, -1.00, 603.5, 317.6)">ã</text><text xml:space="preserve" font-family="Chalkduster,Chalkduster" font-size="26.0" fill="#FEFFFE" transform="matrix(1.00, 0.00, -0.00, -1.00, 621.1, 317.6)">o</text><text xml:space="preserve" font-family="Chalkduster,Chalkduster" font-size="26.0" fill="#FEFFFE" transform="matrix(1.00, 0.00, -0.00, -1.00, 639.8, 317.6)"> </text><text xml:space="preserve" font-family="Chalkduster,Chalkduster" font-size="26.0" fill="#FEFFFE" transform="matrix(1.00, 0.00, -0.00, -1.00, 652.8, 317.6)">i</text><text xml:space="preserve" font-family="Chalkduster,Chalkduster" font-size="26.0" fill="#FEFFFE" transform="matrix(1.00, 0.00, -0.00, -1.00, 663.0, 317.6)">g</text><text xml:space="preserve" font-family="Chalkduster,Chalkduster" font-size="26.0" fill="#FEFFFE" transform="matrix(1.00, 0.00, -0.00, -1.00, 680.8, 317.6)">u</text><text xml:space="preserve" font-family="Chalkduster,Chalkduster" font-size="26.0" fill="#FEFFFE" transform="matrix(1.00, 0.00, -0.00, -1.00, 698.6, 317.6)">a</text><text xml:space="preserve" font-family="Chalkduster,Chalkduster" font-size="26.0" fill="#FEFFFE" transform="matrix(1.00, 0.00, -0.00, -1.00, 715.5, 317.6)">l</text><text xml:space="preserve" font-family="Chalkduster,Chalkduster" font-size="26.0" fill="#FEFFFE" transform="matrix(1.00, 0.00, -0.00, -1.00, 727.7, 317.6)"> </text></g></g></g></g><image xlink:href="EBB15E2CEC172E7DC75EE76A02151105.png" width="25.00" height="25.00" transform="matrix(1.00, 0.00, -0.00, -1.00, 293.0, 294.0)"></image><g><clipPath id="clip0x608001ab4be0"><path d="M 160.5 399.5 L 862.3 399.5 L 862.3 118.9 L 160.5 118.9 Z M 160.5 399.5 "></path></clipPath><g clip-path="url(#clip0x608001ab4be0)"><g><clipPath id="clip0x608001ab4fa0"><path d="M 161.5 259.7 L 449.8 259.7 L 449.8 305.3 L 161.5 305.3 Z M 161.5 259.7 "></path></clipPath><g clip-path="url(#clip0x608001ab4fa0)"><text xml:space="preserve" font-family="Menlo-Bold,Menlo" font-weight="bold" font-size="26.0" fill="#FEFFFE" transform="matrix(1.00, 0.00, -0.00, -1.00, 297.8, 273.4)">&gt;</text></g></g></g></g><image xlink:href="4D373209092FDF52180D334FF758D9CC.png" width="161.00" height="36.00" transform="matrix(1.00, 0.00, -0.00, -1.00, 576.0, 295.0)"></image><g><clipPath id="clip0x600001aaaf80"><path d="M 160.5 399.5 L 862.3 399.5 L 862.3 118.9 L 160.5 118.9 Z M 160.5 399.5 "></path></clipPath><g clip-path="url(#clip0x600001aaaf80)"><g><clipPath id="clip0x600001aab2e0"><path d="M 450.8 259.7 L 861.3 259.7 L 861.3 305.3 L 450.8 305.3 Z M 450.8 259.7 "></path></clipPath><g clip-path="url(#clip0x600001aab2e0)"><text xml:space="preserve" font-family="Chalkduster,Chalkduster" font-size="26.0" fill="#FEFFFE" transform="matrix(1.00, 0.00, -0.00, -1.00, 580.6, 271.0)">m</text><text xml:space="preserve" font-family="Chalkduster,Chalkduster" font-size="26.0" fill="#FEFFFE" transform="matrix(1.00, 0.00, -0.00, -1.00, 606.9, 271.0)">a</text><text xml:space="preserve" font-family="Chalkduster,Chalkduster" font-size="26.0" fill="#FEFFFE" transform="matrix(1.00, 0.00, -0.00, -1.00, 624.8, 271.0)">i</text><text xml:space="preserve" font-family="Chalkduster,Chalkduster" font-size="26.0" fill="#FEFFFE" transform="matrix(1.00, 0.00, -0.00, -1.00, 635.1, 271.0)">o</text><text xml:space="preserve" font-family="Chalkduster,Chalkduster" font-size="26.0" fill="#FEFFFE" transform="matrix(1.00, 0.00, -0.00, -1.00, 654.0, 271.0)">r</text><text xml:space="preserve" font-family="Chalkduster,Chalkduster" font-size="26.0" fill="#FEFFFE" transform="matrix(1.00, 0.00, -0.00, -1.00, 667.8, 271.0)"> </text><text xml:space="preserve" font-family="Chalkduster,Chalkduster" font-size="26.0" fill="#FEFFFE" transform="matrix(1.00, 0.00, -0.00, -1.00, 680.7, 271.0)">q</text><text xml:space="preserve" font-family="Chalkduster,Chalkduster" font-size="26.0" fill="#FEFFFE" transform="matrix(1.00, 0.00, -0.00, -1.00, 697.5, 271.0)">u</text><text xml:space="preserve" font-family="Chalkduster,Chalkduster" font-size="26.0" fill="#FEFFFE" transform="matrix(1.00, 0.00, -0.00, -1.00, 715.3, 271.0)">e</text></g></g></g></g><image xlink:href="112BFBC28B071C26D1693AB85CAECB4F.png" width="25.00" height="24.00" transform="matrix(1.00, 0.00, -0.00, -1.00, 293.0, 247.0)"></image><g><clipPath id="clip0x608001ab5060"><path d="M 160.5 399.5 L 862.3 399.5 L 862.3 118.9 L 160.5 118.9 Z M 160.5 399.5 "></path></clipPath><g clip-path="url(#clip0x608001ab5060)"><g><clipPath id="clip0x608001ab5420"><path d="M 161.5 213.1 L 449.8 213.1 L 449.8 258.7 L 161.5 258.7 Z M 161.5 213.1 "></path></clipPath><g clip-path="url(#clip0x608001ab5420)"><text xml:space="preserve" font-family="Menlo-Bold,Menlo" font-weight="bold" font-size="26.0" fill="#FEFFFE" transform="matrix(1.00, 0.00, -0.00, -1.00, 297.8, 226.8)">&lt;</text></g></g></g></g><image xlink:href="E9988D62F1FDE1EA1DD0D44185693909.png" width="168.00" height="32.00" transform="matrix(1.00, 0.00, -0.00, -1.00, 573.0, 245.0)"></image><g><clipPath id="clip0x600001aab700"><path d="M 160.5 399.5 L 862.3 399.5 L 862.3 118.9 L 160.5 118.9 Z M 160.5 399.5 "></path></clipPath><g clip-path="url(#clip0x600001aab700)"><g><clipPath id="clip0x600001aaba60"><path d="M 450.8 213.1 L 861.3 213.1 L 861.3 258.7 L 450.8 258.7 Z M 450.8 213.1 "></path></clipPath><g clip-path="url(#clip0x600001aaba60)"><text xml:space="preserve" font-family="Chalkduster,Chalkduster" font-size="26.0" fill="#FEFFFE" transform="matrix(1.00, 0.00, -0.00, -1.00, 576.9, 224.4)">m</text><text xml:space="preserve" font-family="Chalkduster,Chalkduster" font-size="26.0" fill="#FEFFFE" transform="matrix(1.00, 0.00, -0.00, -1.00, 603.9, 224.4)">e</text><text xml:space="preserve" font-family="Chalkduster,Chalkduster" font-size="26.0" fill="#FEFFFE" transform="matrix(1.00, 0.00, -0.00, -1.00, 620.3, 224.4)">n</text><text xml:space="preserve" font-family="Chalkduster,Chalkduster" font-size="26.0" fill="#FEFFFE" transform="matrix(1.00, 0.00, -0.00, -1.00, 638.8, 224.4)">o</text><text xml:space="preserve" font-family="Chalkduster,Chalkduster" font-size="26.0" fill="#FEFFFE" transform="matrix(1.00, 0.00, -0.00, -1.00, 657.7, 224.4)">r</text><text xml:space="preserve" font-family="Chalkduster,Chalkduster" font-size="26.0" fill="#FEFFFE" transform="matrix(1.00, 0.00, -0.00, -1.00, 671.5, 224.4)"> </text><text xml:space="preserve" font-family="Chalkduster,Chalkduster" font-size="26.0" fill="#FEFFFE" transform="matrix(1.00, 0.00, -0.00, -1.00, 684.4, 224.4)">q</text><text xml:space="preserve" font-family="Chalkduster,Chalkduster" font-size="26.0" fill="#FEFFFE" transform="matrix(1.00, 0.00, -0.00, -1.00, 701.2, 224.4)">u</text><text xml:space="preserve" font-family="Chalkduster,Chalkduster" font-size="26.0" fill="#FEFFFE" transform="matrix(1.00, 0.00, -0.00, -1.00, 719.1, 224.4)">e</text></g></g></g></g><image xlink:href="BE5FA04A16F7B04A4404E9454E96FA30.png" width="40.00" height="25.00" transform="matrix(1.00, 0.00, -0.00, -1.00, 286.0, 201.0)"></image><g><clipPath id="clip0x600001aabe80"><path d="M 160.5 399.5 L 862.3 399.5 L 862.3 118.9 L 160.5 118.9 Z M 160.5 399.5 "></path></clipPath><g clip-path="url(#clip0x600001aabe80)"><g><clipPath id="clip0x600001aac1e0"><path d="M 161.5 166.5 L 449.8 166.5 L 449.8 212.1 L 161.5 212.1 Z M 161.5 166.5 "></path></clipPath><g clip-path="url(#clip0x600001aac1e0)"><text xml:space="preserve" font-family="Menlo-Bold,Menlo" font-weight="bold" font-size="26.0" fill="#FEFFFE" transform="matrix(1.00, 0.00, -0.00, -1.00, 290.0, 180.2)">&gt;</text><text xml:space="preserve" font-family="Menlo-Bold,Menlo" font-weight="bold" font-size="26.0" fill="#FEFFFE" transform="matrix(1.00, 0.00, -0.00, -1.00, 305.6, 180.2)">=</text></g></g></g></g><image xlink:href="A85126EAECBD18242644CE78D9E5A3E2.png" width="298.00" height="38.00" transform="matrix(1.00, 0.00, -0.00, -1.00, 507.0, 204.0)"></image><g><clipPath id="clip0x618001ab0440"><path d="M 160.5 399.5 L 862.3 399.5 L 862.3 118.9 L 160.5 118.9 Z M 160.5 399.5 "></path></clipPath><g clip-path="url(#clip0x618001ab0440)"><g><clipPath id="clip0x618001ab08c0"><path d="M 450.8 166.5 L 861.3 166.5 L 861.3 212.1 L 450.8 212.1 Z M 450.8 166.5 "></path></clipPath><g clip-path="url(#clip0x618001ab08c0)"><text xml:space="preserve" font-family="Chalkduster,Chalkduster" font-size="26.0" fill="#FEFFFE" transform="matrix(1.00, 0.00, -0.00, -1.00, 511.6, 177.8)">m</text><text xml:space="preserve" font-family="Chalkduster,Chalkduster" font-size="26.0" fill="#FEFFFE" transform="matrix(1.00, 0.00, -0.00, -1.00, 537.9, 177.8)">a</text><text xml:space="preserve" font-family="Chalkduster,Chalkduster" font-size="26.0" fill="#FEFFFE" transform="matrix(1.00, 0.00, -0.00, -1.00, 555.8, 177.8)">i</text><text xml:space="preserve" font-family="Chalkduster,Chalkduster" font-size="26.0" fill="#FEFFFE" transform="matrix(1.00, 0.00, -0.00, -1.00, 566.0, 177.8)">o</text><text xml:space="preserve" font-family="Chalkduster,Chalkduster" font-size="26.0" fill="#FEFFFE" transform="matrix(1.00, 0.00, -0.00, -1.00, 585.0, 177.8)">r</text><text xml:space="preserve" font-family="Chalkduster,Chalkduster" font-size="26.0" fill="#FEFFFE" transform="matrix(1.00, 0.00, -0.00, -1.00, 598.7, 177.8)"> </text><text xml:space="preserve" font-family="Chalkduster,Chalkduster" font-size="26.0" fill="#FEFFFE" transform="matrix(1.00, 0.00, -0.00, -1.00, 611.6, 177.8)">q</text><text xml:space="preserve" font-family="Chalkduster,Chalkduster" font-size="26.0" fill="#FEFFFE" transform="matrix(1.00, 0.00, -0.00, -1.00, 628.4, 177.8)">u</text><text xml:space="preserve" font-family="Chalkduster,Chalkduster" font-size="26.0" fill="#FEFFFE" transform="matrix(1.00, 0.00, -0.00, -1.00, 646.3, 177.8)">e</text><text xml:space="preserve" font-family="Chalkduster,Chalkduster" font-size="26.0" fill="#FEFFFE" transform="matrix(1.00, 0.00, -0.00, -1.00, 662.4, 177.8)"> </text><text xml:space="preserve" font-family="Chalkduster,Chalkduster" font-size="26.0" fill="#FEFFFE" transform="matrix(1.00, 0.00, -0.00, -1.00, 675.3, 177.8)">o</text><text xml:space="preserve" font-family="Chalkduster,Chalkduster" font-size="26.0" fill="#FEFFFE" transform="matrix(1.00, 0.00, -0.00, -1.00, 694.8, 177.8)">u</text><text xml:space="preserve" font-family="Chalkduster,Chalkduster" font-size="26.0" fill="#FEFFFE" transform="matrix(1.00, 0.00, -0.00, -1.00, 712.7, 177.8)"> </text><text xml:space="preserve" font-family="Chalkduster,Chalkduster" font-size="26.0" fill="#FEFFFE" transform="matrix(1.00, 0.00, -0.00, -1.00, 725.6, 177.8)">i</text><text xml:space="preserve" font-family="Chalkduster,Chalkduster" font-size="26.0" fill="#FEFFFE" transform="matrix(1.00, 0.00, -0.00, -1.00, 735.9, 177.8)">g</text><text xml:space="preserve" font-family="Chalkduster,Chalkduster" font-size="26.0" fill="#FEFFFE" transform="matrix(1.00, 0.00, -0.00, -1.00, 753.6, 177.8)">u</text><text xml:space="preserve" font-family="Chalkduster,Chalkduster" font-size="26.0" fill="#FEFFFE" transform="matrix(1.00, 0.00, -0.00, -1.00, 771.5, 177.8)">a</text><text xml:space="preserve" font-family="Chalkduster,Chalkduster" font-size="26.0" fill="#FEFFFE" transform="matrix(1.00, 0.00, -0.00, -1.00, 788.3, 177.8)">l</text></g></g></g></g><image xlink:href="BFBDA6DB06844F07CA35B09403D7E29B.png" width="40.00" height="24.00" transform="matrix(1.00, 0.00, -0.00, -1.00, 286.0, 154.0)"></image><g><clipPath id="clip0x600001aac360"><path d="M 160.5 399.5 L 862.3 399.5 L 862.3 118.9 L 160.5 118.9 Z M 160.5 399.5 "></path></clipPath><g clip-path="url(#clip0x600001aac360)"><g><clipPath id="clip0x600001aac6c0"><path d="M 161.5 119.9 L 449.8 119.9 L 449.8 165.5 L 161.5 165.5 Z M 161.5 119.9 "></path></clipPath><g clip-path="url(#clip0x600001aac6c0)"><text xml:space="preserve" font-family="Menlo-Bold,Menlo" font-weight="bold" font-size="26.0" fill="#FEFFFE" transform="matrix(1.00, 0.00, -0.00, -1.00, 290.0, 133.6)">&lt;</text><text xml:space="preserve" font-family="Menlo-Bold,Menlo" font-weight="bold" font-size="26.0" fill="#FEFFFE" transform="matrix(1.00, 0.00, -0.00, -1.00, 305.6, 133.6)">=</text></g></g></g></g><image xlink:href="4692A3DAA675E445C4DF6A58F437D1CC.png" width="305.00" height="38.00" transform="matrix(1.00, 0.00, -0.00, -1.00, 504.0, 157.0)"></image><g><clipPath id="clip0x600001aac840"><path d="M 160.5 399.5 L 862.3 399.5 L 862.3 118.9 L 160.5 118.9 Z M 160.5 399.5 "></path></clipPath><g clip-path="url(#clip0x600001aac840)"><g><clipPath id="clip0x600001aacba0"><path d="M 450.8 119.9 L 861.3 119.9 L 861.3 165.5 L 450.8 165.5 Z M 450.8 119.9 "></path></clipPath><g clip-path="url(#clip0x600001aacba0)"><text xml:space="preserve" font-family="Chalkduster,Chalkduster" font-size="26.0" fill="#FEFFFE" transform="matrix(1.00, 0.00, -0.00, -1.00, 507.9, 131.2)">m</text><text xml:space="preserve" font-family="Chalkduster,Chalkduster" font-size="26.0" fill="#FEFFFE" transform="matrix(1.00, 0.00, -0.00, -1.00, 534.8, 131.2)">e</text><text xml:space="preserve" font-family="Chalkduster,Chalkduster" font-size="26.0" fill="#FEFFFE" transform="matrix(1.00, 0.00, -0.00, -1.00, 551.2, 131.2)">n</text><text xml:space="preserve" font-family="Chalkduster,Chalkduster" font-size="26.0" fill="#FEFFFE" transform="matrix(1.00, 0.00, -0.00, -1.00, 569.7, 131.2)">o</text><text xml:space="preserve" font-family="Chalkduster,Chalkduster" font-size="26.0" fill="#FEFFFE" transform="matrix(1.00, 0.00, -0.00, -1.00, 588.7, 131.2)">r</text><text xml:space="preserve" font-family="Chalkduster,Chalkduster" font-size="26.0" fill="#FEFFFE" transform="matrix(1.00, 0.00, -0.00, -1.00, 602.4, 131.2)"> </text><text xml:space="preserve" font-family="Chalkduster,Chalkduster" font-size="26.0" fill="#FEFFFE" transform="matrix(1.00, 0.00, -0.00, -1.00, 615.3, 131.2)">q</text><text xml:space="preserve" font-family="Chalkduster,Chalkduster" font-size="26.0" fill="#FEFFFE" transform="matrix(1.00, 0.00, -0.00, -1.00, 632.1, 131.2)">u</text><text xml:space="preserve" font-family="Chalkduster,Chalkduster" font-size="26.0" fill="#FEFFFE" transform="matrix(1.00, 0.00, -0.00, -1.00, 650.0, 131.2)">e</text><text xml:space="preserve" font-family="Chalkduster,Chalkduster" font-size="26.0" fill="#FEFFFE" transform="matrix(1.00, 0.00, -0.00, -1.00, 666.1, 131.2)"> </text><text xml:space="preserve" font-family="Chalkduster,Chalkduster" font-size="26.0" fill="#FEFFFE" transform="matrix(1.00, 0.00, -0.00, -1.00, 679.0, 131.2)">o</text><text xml:space="preserve" font-family="Chalkduster,Chalkduster" font-size="26.0" fill="#FEFFFE" transform="matrix(1.00, 0.00, -0.00, -1.00, 698.5, 131.2)">u</text><text xml:space="preserve" font-family="Chalkduster,Chalkduster" font-size="26.0" fill="#FEFFFE" transform="matrix(1.00, 0.00, -0.00, -1.00, 716.4, 131.2)"> </text><text xml:space="preserve" font-family="Chalkduster,Chalkduster" font-size="26.0" fill="#FEFFFE" transform="matrix(1.00, 0.00, -0.00, -1.00, 729.4, 131.2)">i</text><text xml:space="preserve" font-family="Chalkduster,Chalkduster" font-size="26.0" fill="#FEFFFE" transform="matrix(1.00, 0.00, -0.00, -1.00, 739.6, 131.2)">g</text><text xml:space="preserve" font-family="Chalkduster,Chalkduster" font-size="26.0" fill="#FEFFFE" transform="matrix(1.00, 0.00, -0.00, -1.00, 757.3, 131.2)">u</text><text xml:space="preserve" font-family="Chalkduster,Chalkduster" font-size="26.0" fill="#FEFFFE" transform="matrix(1.00, 0.00, -0.00, -1.00, 775.2, 131.2)">a</text><text xml:space="preserve" font-family="Chalkduster,Chalkduster" font-size="26.0" fill="#FEFFFE" transform="matrix(1.00, 0.00, -0.00, -1.00, 792.1, 131.2)">l</text></g></g></g></g><g><clipPath id="clip0x600001aad440"><path d="M 160.5 399.5 L 862.3 399.5 L 862.3 118.9 L 160.5 118.9 Z M 160.5 399.5 "></path></clipPath><g clip-path="url(#clip0x600001aad440)"><path d="M 291.3 1.5 L 291.3 282.1 " fill="none" stroke="#FEFFFE" stroke-opacity="0.50" stroke-width="1.00" transform="matrix(1.00, 0.00, 0.00, -1.00, 159.0, 401.0)"></path><path d="M 1.5 48.6 L 703.3 48.6 " fill="none" stroke="#FEFFFE" stroke-opacity="0.50" stroke-width="1.00" transform="matrix(1.00, 0.00, 0.00, -1.00, 159.0, 401.0)"></path><path d="M 1.5 95.2 L 703.3 95.2 " fill="none" stroke="#FEFFFE" stroke-opacity="0.50" stroke-width="1.00" transform="matrix(1.00, 0.00, 0.00, -1.00, 159.0, 401.0)"></path><path d="M 1.5 141.8 L 703.3 141.8 " fill="none" stroke="#FEFFFE" stroke-opacity="0.50" stroke-width="1.00" transform="matrix(1.00, 0.00, 0.00, -1.00, 159.0, 401.0)"></path><path d="M 1.5 188.4 L 703.3 188.4 " fill="none" stroke="#FEFFFE" stroke-opacity="0.50" stroke-width="1.00" transform="matrix(1.00, 0.00, 0.00, -1.00, 159.0, 401.0)"></path><path d="M 1.5 235.0 L 703.3 235.0 " fill="none" stroke="#FEFFFE" stroke-opacity="0.50" stroke-width="1.00" transform="matrix(1.00, 0.00, 0.00, -1.00, 159.0, 401.0)"></path><path d="M 2.0 1.5 L 2.0 282.1 " fill="none" stroke="#FEFFFE" stroke-opacity="0.50" stroke-width="1.00" transform="matrix(1.00, 0.00, 0.00, -1.00, 159.0, 401.0)"></path><path d="M 702.8 1.5 L 702.8 282.1 " fill="none" stroke="#FEFFFE" stroke-opacity="0.50" stroke-width="1.00" transform="matrix(1.00, 0.00, 0.00, -1.00, 159.0, 401.0)"></path><path d="M 1.5 2.0 L 703.3 2.0 " fill="none" stroke="#FEFFFE" stroke-opacity="0.50" stroke-width="1.00" transform="matrix(1.00, 0.00, 0.00, -1.00, 159.0, 401.0)"></path><path d="M 1.5 281.6 L 703.3 281.6 " fill="none" stroke="#FEFFFE" stroke-opacity="0.50" stroke-width="1.00" transform="matrix(1.00, 0.00, 0.00, -1.00, 159.0, 401.0)"></path></g></g><text xml:space="preserve" font-family="Chalkduster,Chalkduster" font-size="25.0" fill="#FF7777" transform="matrix(1.00, 0.00, -0.00, -1.00, 162.3, 71.0)">C</text><text xml:space="preserve" font-family="Chalkduster,Chalkduster" font-size="25.0" fill="#FF7777" transform="matrix(1.00, 0.00, -0.00, -1.00, 182.5, 71.0)">u</text><text xml:space="preserve" font-family="Chalkduster,Chalkduster" font-size="25.0" fill="#FF7777" transform="matrix(1.00, 0.00, -0.00, -1.00, 199.7, 71.0)">i</text><text xml:space="preserve" font-family="Chalkduster,Chalkduster" font-size="25.0" fill="#FF7777" transform="matrix(1.00, 0.00, -0.00, -1.00, 210.5, 71.0)">d</text><text xml:space="preserve" font-family="Chalkduster,Chalkduster" font-size="25.0" fill="#FF7777" transform="matrix(1.00, 0.00, -0.00, -1.00, 230.0, 71.0)">a</text><text xml:space="preserve" font-family="Chalkduster,Chalkduster" font-size="25.0" fill="#FF7777" transform="matrix(1.00, 0.00, -0.00, -1.00, 246.4, 71.0)">d</text><text xml:space="preserve" font-family="Chalkduster,Chalkduster" font-size="25.0" fill="#FF7777" transform="matrix(1.00, 0.00, -0.00, -1.00, 266.0, 71.0)">o</text><text xml:space="preserve" font-family="Chalkduster,Chalkduster" font-size="25.0" fill="#FF7777" transform="matrix(1.00, 0.00, -0.00, -1.00, 283.9, 71.0)">:</text><text xml:space="preserve" font-family="Menlo-Bold,Menlo" font-weight="bold" font-size="25.0" fill="#FEFFFE" transform="matrix(1.00, 0.00, -0.00, -1.00, 304.6, 71.0)">=</text><text xml:space="preserve" font-family="Menlo-Bold,Menlo" font-weight="bold" font-size="25.0" fill="#FEFFFE" transform="matrix(1.00, 0.00, -0.00, -1.00, 319.6, 71.0)">=</text><text xml:space="preserve" font-family="Chalkduster,Chalkduster" font-size="25.0" fill="#FEFFFE" transform="matrix(1.00, 0.00, -0.00, -1.00, 347.1, 71.0)">n</text><text xml:space="preserve" font-family="Chalkduster,Chalkduster" font-size="25.0" fill="#FEFFFE" transform="matrix(1.00, 0.00, -0.00, -1.00, 365.5, 71.0)">ã</text><text xml:space="preserve" font-family="Chalkduster,Chalkduster" font-size="25.0" fill="#FEFFFE" transform="matrix(1.00, 0.00, -0.00, -1.00, 382.4, 71.0)">o</text><text xml:space="preserve" font-family="Chalkduster,Chalkduster" font-size="25.0" fill="#FEFFFE" transform="matrix(1.00, 0.00, -0.00, -1.00, 412.8, 71.0)">é</text><text xml:space="preserve" font-family="Chalkduster,Chalkduster" font-size="25.0" fill="#FEFFFE" transform="matrix(1.00, 0.00, -0.00, -1.00, 441.9, 71.0)">a</text><text xml:space="preserve" font-family="Chalkduster,Chalkduster" font-size="25.0" fill="#FEFFFE" transform="matrix(1.00, 0.00, -0.00, -1.00, 471.5, 71.0)">m</text><text xml:space="preserve" font-family="Chalkduster,Chalkduster" font-size="25.0" fill="#FEFFFE" transform="matrix(1.00, 0.00, -0.00, -1.00, 497.4, 71.0)">e</text><text xml:space="preserve" font-family="Chalkduster,Chalkduster" font-size="25.0" fill="#FEFFFE" transform="matrix(1.00, 0.00, -0.00, -1.00, 513.5, 71.0)">s</text><text xml:space="preserve" font-family="Chalkduster,Chalkduster" font-size="25.0" fill="#FEFFFE" transform="matrix(1.00, 0.00, -0.00, -1.00, 526.1, 71.0)">m</text><text xml:space="preserve" font-family="Chalkduster,Chalkduster" font-size="25.0" fill="#FEFFFE" transform="matrix(1.00, 0.00, -0.00, -1.00, 551.4, 71.0)">a</text><text xml:space="preserve" font-family="Chalkduster,Chalkduster" font-size="25.0" fill="#FEFFFE" transform="matrix(1.00, 0.00, -0.00, -1.00, 581.1, 71.0)">c</text><text xml:space="preserve" font-family="Chalkduster,Chalkduster" font-size="25.0" fill="#FEFFFE" transform="matrix(1.00, 0.00, -0.00, -1.00, 596.1, 71.0)">o</text><text xml:space="preserve" font-family="Chalkduster,Chalkduster" font-size="25.0" fill="#FEFFFE" transform="matrix(1.00, 0.00, -0.00, -1.00, 614.9, 71.0)">i</text><text xml:space="preserve" font-family="Chalkduster,Chalkduster" font-size="25.0" fill="#FEFFFE" transform="matrix(1.00, 0.00, -0.00, -1.00, 624.8, 71.0)">s</text><text xml:space="preserve" font-family="Chalkduster,Chalkduster" font-size="25.0" fill="#FEFFFE" transform="matrix(1.00, 0.00, -0.00, -1.00, 637.4, 71.0)">a</text><text xml:space="preserve" font-family="Chalkduster,Chalkduster" font-size="25.0" fill="#FEFFFE" transform="matrix(1.00, 0.00, -0.00, -1.00, 667.1, 71.0)">q</text><text xml:space="preserve" font-family="Chalkduster,Chalkduster" font-size="25.0" fill="#FEFFFE" transform="matrix(1.00, 0.00, -0.00, -1.00, 683.2, 71.0)">u</text><text xml:space="preserve" font-family="Chalkduster,Chalkduster" font-size="25.0" fill="#FEFFFE" transform="matrix(1.00, 0.00, -0.00, -1.00, 700.4, 71.0)">e</text><text xml:space="preserve" font-family="Menlo-Bold,Menlo" font-weight="bold" font-size="25.0" fill="#FEFFFE" transform="matrix(1.00, 0.00, -0.00, -1.00, 728.3, 71.0)">=</text><text xml:space="preserve" font-family="Chalkduster,Chalkduster" font-size="25.0" fill="#FEFFFE" transform="matrix(1.00, 0.00, -0.00, -1.00, 743.3, 71.0)">.</text></g></svg>