<?xml version="1.0" encoding="UTF-8" standalone="no"?><svg xmlns="http://www.w3.org/2000/svg" xmlns:xlink="http://www.w3.org/1999/xlink" clip-rule="evenodd" stroke-miterlimit="10" viewBox="0 0 1024 768"><desc>SVG generated by Keynote</desc><defs></defs><g transform="matrix(1.00, 0.00, -0.00, -1.00, 0.0, 768.0)"><g><clipPath id="clip0x600004ea1da0"><path d="M 0.0 768.0 L 1024.0 768.0 L 1024.0 0.0 L 0.0 0.0 Z M 0.0 768.0 "></path></clipPath><g clip-path="url(#clip0x600004ea1da0)"><image xlink:href="../../2454F38C-308E-4D93-86A7-ACF877EF01F7/assets/D54D7AAA5FD1EC733BC359F041C689F1.jpeg" width="2048.00" height="1536.00" transform="matrix(0.50, 0.00, -0.00, -0.50, 0.0, 768.0)"></image></g></g><text xml:space="preserve" font-family="Chalkduster,Chalkduster" font-size="56.0" fill="#FEFFFE" transform="matrix(1.00, 0.00, -0.00, -1.00, 378.8, 651.6)">E</text><text xml:space="preserve" font-family="Chalkduster,Chalkduster" font-size="56.0" fill="#FEFFFE" transform="matrix(1.00, 0.00, -0.00, -1.00, 420.2, 651.6)">x</text><text xml:space="preserve" font-family="Chalkduster,Chalkduster" font-size="56.0" fill="#FEFFFE" transform="matrix(1.00, 0.00, -0.00, -1.00, 454.9, 651.6)">e</text><text xml:space="preserve" font-family="Chalkduster,Chalkduster" font-size="56.0" fill="#FEFFFE" transform="matrix(1.00, 0.00, -0.00, -1.00, 489.7, 651.6)">m</text><text xml:space="preserve" font-family="Chalkduster,Chalkduster" font-size="56.0" fill="#FEFFFE" transform="matrix(1.00, 0.00, -0.00, -1.00, 546.4, 651.6)">p</text><text xml:space="preserve" font-family="Chalkduster,Chalkduster" font-size="56.0" fill="#FEFFFE" transform="matrix(1.00, 0.00, -0.00, -1.00, 580.9, 651.6)">l</text><text xml:space="preserve" font-family="Chalkduster,Chalkduster" font-size="56.0" fill="#FEFFFE" transform="matrix(1.00, 0.00, -0.00, -1.00, 605.0, 651.6)">o</text><g><clipPath id="clip0x600004ea2700"><path d="M 0.0 270.0 L 1024.0 270.0 L 1024.0 -4.0 L 0.0 -4.0 Z M 0.0 269.5 "></path></clipPath><g clip-path="url(#clip0x600004ea2700)"><image xlink:href="../../4A2B1ED3-12AD-4C36-BB88-8261EFC8D049/assets/23BE787BBD08C911920C53BFE71BDA84.png" width="1732.00" height="1252.00" transform="matrix(0.59, 0.00, -0.00, -0.59, 0.0, 270.0)"></image></g></g></g></svg>