<?xml version="1.0" encoding="UTF-8" standalone="no"?><svg xmlns="http://www.w3.org/2000/svg" xmlns:xlink="http://www.w3.org/1999/xlink" clip-rule="evenodd" stroke-miterlimit="10" viewBox="0 0 648 82"><desc>SVG generated by Keynote</desc><defs></defs><g transform="matrix(1.00, 0.00, -0.00, -1.00, 0.0, 82.0)"><text xml:space="preserve" font-family="Chalkduster,Chalkduster" font-size="56.0" fill="#FEFFFE" transform="matrix(1.00, 0.00, -0.00, -1.00, 0.0, 30.6)">B</text><text xml:space="preserve" font-family="Chalkduster,Chalkduster" font-size="56.0" fill="#FEFFFE" transform="matrix(1.00, 0.00, -0.00, -1.00, 37.4, 30.6)">l</text><text xml:space="preserve" font-family="Chalkduster,Chalkduster" font-size="56.0" fill="#FEFFFE" transform="matrix(1.00, 0.00, -0.00, -1.00, 61.5, 30.6)">o</text><text xml:space="preserve" font-family="Chalkduster,Chalkduster" font-size="56.0" fill="#FEFFFE" transform="matrix(1.00, 0.00, -0.00, -1.00, 102.7, 30.6)">c</text><text xml:space="preserve" font-family="Chalkduster,Chalkduster" font-size="56.0" fill="#FEFFFE" transform="matrix(1.00, 0.00, -0.00, -1.00, 136.1, 30.6)">o</text><text xml:space="preserve" font-family="Chalkduster,Chalkduster" font-size="56.0" fill="#FEFFFE" transform="matrix(1.00, 0.00, -0.00, -1.00, 176.9, 30.6)">s</text><text xml:space="preserve" font-family="Chalkduster,Chalkduster" font-size="56.0" fill="#FEFFFE" transform="matrix(1.00, 0.00, -0.00, -1.00, 205.2, 30.6)"> </text><text xml:space="preserve" font-family="Chalkduster,Chalkduster" font-size="56.0" fill="#FEFFFE" transform="matrix(1.00, 0.00, -0.00, -1.00, 233.1, 30.6)">d</text><text xml:space="preserve" font-family="Chalkduster,Chalkduster" font-size="56.0" fill="#FEFFFE" transform="matrix(1.00, 0.00, -0.00, -1.00, 276.8, 30.6)">e</text><text xml:space="preserve" font-family="Chalkduster,Chalkduster" font-size="56.0" fill="#FEFFFE" transform="matrix(1.00, 0.00, -0.00, -1.00, 311.5, 30.6)"> </text><text xml:space="preserve" font-family="Chalkduster,Chalkduster" font-size="56.0" fill="#FEFFFE" transform="matrix(1.00, 0.00, -0.00, -1.00, 339.4, 30.6)">I</text><text xml:space="preserve" font-family="Chalkduster,Chalkduster" font-size="56.0" fill="#FEFFFE" transform="matrix(1.00, 0.00, -0.00, -1.00, 372.7, 30.6)">n</text><text xml:space="preserve" font-family="Chalkduster,Chalkduster" font-size="56.0" fill="#FEFFFE" transform="matrix(1.00, 0.00, -0.00, -1.00, 413.8, 30.6)">s</text><text xml:space="preserve" font-family="Chalkduster,Chalkduster" font-size="56.0" fill="#FEFFFE" transform="matrix(1.00, 0.00, -0.00, -1.00, 443.8, 30.6)">t</text><text xml:space="preserve" font-family="Chalkduster,Chalkduster" font-size="56.0" fill="#FEFFFE" transform="matrix(1.00, 0.00, -0.00, -1.00, 469.4, 30.6)">r</text><text xml:space="preserve" font-family="Chalkduster,Chalkduster" font-size="56.0" fill="#FEFFFE" transform="matrix(1.00, 0.00, -0.00, -1.00, 500.4, 30.6)">u</text><text xml:space="preserve" font-family="Chalkduster,Chalkduster" font-size="56.0" fill="#FEFFFE" transform="matrix(1.00, 0.00, -0.00, -1.00, 538.9, 30.6)">รง</text><text xml:space="preserve" font-family="Chalkduster,Chalkduster" font-size="56.0" fill="#FEFFFE" transform="matrix(1.00, 0.00, -0.00, -1.00, 569.9, 30.6)">รฃ</text><text xml:space="preserve" font-family="Chalkduster,Chalkduster" font-size="56.0" fill="#FEFFFE" transform="matrix(1.00, 0.00, -0.00, -1.00, 607.9, 30.6)">o</text></g></svg>