<?xml version="1.0" encoding="UTF-8" standalone="no"?><svg xmlns="http://www.w3.org/2000/svg" xmlns:xlink="http://www.w3.org/1999/xlink" clip-rule="evenodd" stroke-miterlimit="10" viewBox="0 0 1024 768"><desc>SVG generated by Keynote</desc><defs></defs><g transform="matrix(1.00, 0.00, -0.00, -1.00, 0.0, 768.0)"><g><clipPath id="clip0x600002abb7e0"><path d="M 0.0 768.0 L 1024.0 768.0 L 1024.0 0.0 L 0.0 0.0 Z M 0.0 768.0 "></path></clipPath><g clip-path="url(#clip0x600002abb7e0)"><image xlink:href="../../2454F38C-308E-4D93-86A7-ACF877EF01F7/assets/D54D7AAA5FD1EC733BC359F041C689F1.jpeg" width="2048.00" height="1536.00" transform="matrix(0.50, 0.00, -0.00, -0.50, 0.0, 768.0)"></image></g></g><text xml:space="preserve" font-family="Chalkduster,Chalkduster" font-size="56.0" fill="#FEFFFE" transform="matrix(1.00, 0.00, -0.00, -1.00, 115.4, 651.6)">A</text><text xml:space="preserve" font-family="Chalkduster,Chalkduster" font-size="56.0" fill="#FEFFFE" transform="matrix(1.00, 0.00, -0.00, -1.00, 156.2, 651.6)">v</text><text xml:space="preserve" font-family="Chalkduster,Chalkduster" font-size="56.0" fill="#FEFFFE" transform="matrix(1.00, 0.00, -0.00, -1.00, 188.0, 651.6)">a</text><text xml:space="preserve" font-family="Chalkduster,Chalkduster" font-size="56.0" fill="#FEFFFE" transform="matrix(1.00, 0.00, -0.00, -1.00, 224.3, 651.6)">l</text><text xml:space="preserve" font-family="Chalkduster,Chalkduster" font-size="56.0" fill="#FEFFFE" transform="matrix(1.00, 0.00, -0.00, -1.00, 251.2, 651.6)">i</text><text xml:space="preserve" font-family="Chalkduster,Chalkduster" font-size="56.0" fill="#FEFFFE" transform="matrix(1.00, 0.00, -0.00, -1.00, 273.8, 651.6)">a</text><text xml:space="preserve" font-family="Chalkduster,Chalkduster" font-size="56.0" fill="#FEFFFE" transform="matrix(1.00, 0.00, -0.00, -1.00, 312.4, 651.6)">ç</text><text xml:space="preserve" font-family="Chalkduster,Chalkduster" font-size="56.0" fill="#FEFFFE" transform="matrix(1.00, 0.00, -0.00, -1.00, 343.4, 651.6)">ã</text><text xml:space="preserve" font-family="Chalkduster,Chalkduster" font-size="56.0" fill="#FEFFFE" transform="matrix(1.00, 0.00, -0.00, -1.00, 381.3, 651.6)">o</text><text xml:space="preserve" font-family="Chalkduster,Chalkduster" font-size="56.0" fill="#FEFFFE" transform="matrix(1.00, 0.00, -0.00, -1.00, 421.6, 651.6)"> </text><text xml:space="preserve" font-family="Chalkduster,Chalkduster" font-size="56.0" fill="#FEFFFE" transform="matrix(1.00, 0.00, -0.00, -1.00, 449.4, 651.6)">C</text><text xml:space="preserve" font-family="Chalkduster,Chalkduster" font-size="56.0" fill="#FEFFFE" transform="matrix(1.00, 0.00, -0.00, -1.00, 494.8, 651.6)">u</text><text xml:space="preserve" font-family="Chalkduster,Chalkduster" font-size="56.0" fill="#FEFFFE" transform="matrix(1.00, 0.00, -0.00, -1.00, 534.2, 651.6)">r</text><text xml:space="preserve" font-family="Chalkduster,Chalkduster" font-size="56.0" fill="#FEFFFE" transform="matrix(1.00, 0.00, -0.00, -1.00, 563.8, 651.6)">t</text><text xml:space="preserve" font-family="Chalkduster,Chalkduster" font-size="56.0" fill="#FEFFFE" transform="matrix(1.00, 0.00, -0.00, -1.00, 586.9, 651.6)">o</text><text xml:space="preserve" font-family="Chalkduster,Chalkduster" font-size="56.0" fill="#FEFFFE" transform="matrix(1.00, 0.00, -0.00, -1.00, 629.0, 651.6)">-</text><text xml:space="preserve" font-family="Chalkduster,Chalkduster" font-size="56.0" fill="#FEFFFE" transform="matrix(1.00, 0.00, -0.00, -1.00, 662.9, 651.6)">c</text><text xml:space="preserve" font-family="Chalkduster,Chalkduster" font-size="56.0" fill="#FEFFFE" transform="matrix(1.00, 0.00, -0.00, -1.00, 698.0, 651.6)">i</text><text xml:space="preserve" font-family="Chalkduster,Chalkduster" font-size="56.0" fill="#FEFFFE" transform="matrix(1.00, 0.00, -0.00, -1.00, 720.2, 651.6)">r</text><text xml:space="preserve" font-family="Chalkduster,Chalkduster" font-size="56.0" fill="#FEFFFE" transform="matrix(1.00, 0.00, -0.00, -1.00, 749.0, 651.6)">c</text><text xml:space="preserve" font-family="Chalkduster,Chalkduster" font-size="56.0" fill="#FEFFFE" transform="matrix(1.00, 0.00, -0.00, -1.00, 784.2, 651.6)">u</text><text xml:space="preserve" font-family="Chalkduster,Chalkduster" font-size="56.0" fill="#FEFFFE" transform="matrix(1.00, 0.00, -0.00, -1.00, 822.7, 651.6)">i</text><text xml:space="preserve" font-family="Chalkduster,Chalkduster" font-size="56.0" fill="#FEFFFE" transform="matrix(1.00, 0.00, -0.00, -1.00, 845.4, 651.6)">t</text><text xml:space="preserve" font-family="Chalkduster,Chalkduster" font-size="56.0" fill="#FEFFFE" transform="matrix(1.00, 0.00, -0.00, -1.00, 868.5, 651.6)">o</text><text xml:space="preserve" font-family="Chalkduster,Chalkduster" font-size="22.0" fill="#FEFFFE" transform="matrix(1.00, 0.00, -0.00, -1.00, 111.6, 575.8)">P</text><text xml:space="preserve" font-family="Chalkduster,Chalkduster" font-size="22.0" fill="#FEFFFE" transform="matrix(1.00, 0.00, -0.00, -1.00, 125.8, 575.8)">a</text><text xml:space="preserve" font-family="Chalkduster,Chalkduster" font-size="22.0" fill="#FEFFFE" transform="matrix(1.00, 0.00, -0.00, -1.00, 139.8, 575.8)">r</text><text xml:space="preserve" font-family="Chalkduster,Chalkduster" font-size="22.0" fill="#FEFFFE" transform="matrix(1.00, 0.00, -0.00, -1.00, 151.4, 575.8)">a</text><text xml:space="preserve" font-family="Chalkduster,Chalkduster" font-size="22.0" fill="#FEFFFE" transform="matrix(1.00, 0.00, -0.00, -1.00, 177.5, 575.8)">d</text><text xml:space="preserve" font-family="Chalkduster,Chalkduster" font-size="22.0" fill="#FEFFFE" transform="matrix(1.00, 0.00, -0.00, -1.00, 194.7, 575.8)">e</text><text xml:space="preserve" font-family="Chalkduster,Chalkduster" font-size="22.0" fill="#FEFFFE" transform="matrix(1.00, 0.00, -0.00, -1.00, 219.3, 575.8)">a</text><text xml:space="preserve" font-family="Chalkduster,Chalkduster" font-size="22.0" fill="#FEFFFE" transform="matrix(1.00, 0.00, -0.00, -1.00, 232.8, 575.8)">v</text><text xml:space="preserve" font-family="Chalkduster,Chalkduster" font-size="22.0" fill="#FEFFFE" transform="matrix(1.00, 0.00, -0.00, -1.00, 245.3, 575.8)">a</text><text xml:space="preserve" font-family="Chalkduster,Chalkduster" font-size="22.0" fill="#FEFFFE" transform="matrix(1.00, 0.00, -0.00, -1.00, 259.6, 575.8)">l</text><text xml:space="preserve" font-family="Chalkduster,Chalkduster" font-size="22.0" fill="#FEFFFE" transform="matrix(1.00, 0.00, -0.00, -1.00, 270.2, 575.8)">i</text><text xml:space="preserve" font-family="Chalkduster,Chalkduster" font-size="22.0" fill="#FEFFFE" transform="matrix(1.00, 0.00, -0.00, -1.00, 279.1, 575.8)">a</text><text xml:space="preserve" font-family="Chalkduster,Chalkduster" font-size="22.0" fill="#FEFFFE" transform="matrix(1.00, 0.00, -0.00, -1.00, 293.1, 575.8)">r</text><text xml:space="preserve" font-family="Chalkduster,Chalkduster" font-size="22.0" fill="#FEFFFE" transform="matrix(1.00, 0.00, -0.00, -1.00, 315.6, 575.8)">a</text><text xml:space="preserve" font-family="Chalkduster,Chalkduster" font-size="22.0" fill="#FEFFFE" transform="matrix(1.00, 0.00, -0.00, -1.00, 341.7, 575.8)">e</text><text xml:space="preserve" font-family="Chalkduster,Chalkduster" font-size="22.0" fill="#FEFFFE" transform="matrix(1.00, 0.00, -0.00, -1.00, 354.7, 575.8)">x</text><text xml:space="preserve" font-family="Chalkduster,Chalkduster" font-size="22.0" fill="#FEFFFE" transform="matrix(1.00, 0.00, -0.00, -1.00, 368.4, 575.8)">p</text><text xml:space="preserve" font-family="Chalkduster,Chalkduster" font-size="22.0" fill="#FEFFFE" transform="matrix(1.00, 0.00, -0.00, -1.00, 382.0, 575.8)">r</text><text xml:space="preserve" font-family="Chalkduster,Chalkduster" font-size="22.0" fill="#FEFFFE" transform="matrix(1.00, 0.00, -0.00, -1.00, 393.1, 575.8)">e</text><text xml:space="preserve" font-family="Chalkduster,Chalkduster" font-size="22.0" fill="#FEFFFE" transform="matrix(1.00, 0.00, -0.00, -1.00, 407.3, 575.8)">s</text><text xml:space="preserve" font-family="Chalkduster,Chalkduster" font-size="22.0" fill="#FEFFFE" transform="matrix(1.00, 0.00, -0.00, -1.00, 418.4, 575.8)">s</text><text xml:space="preserve" font-family="Chalkduster,Chalkduster" font-size="22.0" fill="#FEFFFE" transform="matrix(1.00, 0.00, -0.00, -1.00, 429.5, 575.8)">ã</text><text xml:space="preserve" font-family="Chalkduster,Chalkduster" font-size="22.0" fill="#FEFFFE" transform="matrix(1.00, 0.00, -0.00, -1.00, 444.4, 575.8)">o</text><text xml:space="preserve" font-family="Chalkduster,Chalkduster" font-size="22.0" fill="#A8C994" transform="matrix(1.00, 0.00, -0.00, -1.00, 471.1, 575.8)">b</text><text xml:space="preserve" font-family="Chalkduster,Chalkduster" font-size="22.0" fill="#A8C994" transform="matrix(1.00, 0.00, -0.00, -1.00, 483.9, 575.8)">o</text><text xml:space="preserve" font-family="Chalkduster,Chalkduster" font-size="22.0" fill="#A8C994" transform="matrix(1.00, 0.00, -0.00, -1.00, 500.6, 575.8)">o</text><text xml:space="preserve" font-family="Chalkduster,Chalkduster" font-size="22.0" fill="#A8C994" transform="matrix(1.00, 0.00, -0.00, -1.00, 517.3, 575.8)">l</text><text xml:space="preserve" font-family="Chalkduster,Chalkduster" font-size="22.0" fill="#A8C994" transform="matrix(1.00, 0.00, -0.00, -1.00, 526.4, 575.8)">e</text><text xml:space="preserve" font-family="Chalkduster,Chalkduster" font-size="22.0" fill="#A8C994" transform="matrix(1.00, 0.00, -0.00, -1.00, 540.0, 575.8)">a</text><text xml:space="preserve" font-family="Chalkduster,Chalkduster" font-size="22.0" fill="#A8C994" transform="matrix(1.00, 0.00, -0.00, -1.00, 555.2, 575.8)">n</text><text xml:space="preserve" font-family="Chalkduster,Chalkduster" font-size="22.0" fill="#FEFFFE" transform="matrix(1.00, 0.00, -0.00, -1.00, 582.3, 575.8)">a</text><text xml:space="preserve" font-family="Chalkduster,Chalkduster" font-size="22.0" fill="#FEFFFE" transform="matrix(1.00, 0.00, -0.00, -1.00, 597.7, 575.8)">s</text><text xml:space="preserve" font-family="Chalkduster,Chalkduster" font-size="22.0" fill="#FEFFFE" transform="matrix(1.00, 0.00, -0.00, -1.00, 608.8, 575.8)">s</text><text xml:space="preserve" font-family="Chalkduster,Chalkduster" font-size="22.0" fill="#FEFFFE" transform="matrix(1.00, 0.00, -0.00, -1.00, 619.9, 575.8)">i</text><text xml:space="preserve" font-family="Chalkduster,Chalkduster" font-size="22.0" fill="#FEFFFE" transform="matrix(1.00, 0.00, -0.00, -1.00, 628.6, 575.8)">m</text><text xml:space="preserve" font-family="Chalkduster,Chalkduster" font-size="22.0" fill="#FEFFFE" transform="matrix(1.00, 0.00, -0.00, -1.00, 661.8, 575.8)">q</text><text xml:space="preserve" font-family="Chalkduster,Chalkduster" font-size="22.0" fill="#FEFFFE" transform="matrix(1.00, 0.00, -0.00, -1.00, 676.0, 575.8)">u</text><text xml:space="preserve" font-family="Chalkduster,Chalkduster" font-size="22.0" fill="#FEFFFE" transform="matrix(1.00, 0.00, -0.00, -1.00, 691.1, 575.8)">e</text><text xml:space="preserve" font-family="Chalkduster,Chalkduster" font-size="22.0" fill="#FEFFFE" transform="matrix(1.00, 0.00, -0.00, -1.00, 715.7, 575.8)">n</text><text xml:space="preserve" font-family="Chalkduster,Chalkduster" font-size="22.0" fill="#FEFFFE" transform="matrix(1.00, 0.00, -0.00, -1.00, 731.9, 575.8)">ó</text><text xml:space="preserve" font-family="Chalkduster,Chalkduster" font-size="22.0" fill="#FEFFFE" transform="matrix(1.00, 0.00, -0.00, -1.00, 748.1, 575.8)">s</text><text xml:space="preserve" font-family="Chalkduster,Chalkduster" font-size="22.0" fill="#FEFFFE" transform="matrix(1.00, 0.00, -0.00, -1.00, 770.2, 575.8)">s</text><text xml:space="preserve" font-family="Chalkduster,Chalkduster" font-size="22.0" fill="#FEFFFE" transform="matrix(1.00, 0.00, -0.00, -1.00, 781.3, 575.8)">a</text><text xml:space="preserve" font-family="Chalkduster,Chalkduster" font-size="22.0" fill="#FEFFFE" transform="matrix(1.00, 0.00, -0.00, -1.00, 796.5, 575.8)">b</text><text xml:space="preserve" font-family="Chalkduster,Chalkduster" font-size="22.0" fill="#FEFFFE" transform="matrix(1.00, 0.00, -0.00, -1.00, 809.3, 575.8)">e</text><text xml:space="preserve" font-family="Chalkduster,Chalkduster" font-size="22.0" fill="#FEFFFE" transform="matrix(1.00, 0.00, -0.00, -1.00, 822.9, 575.8)">m</text><text xml:space="preserve" font-family="Chalkduster,Chalkduster" font-size="22.0" fill="#FEFFFE" transform="matrix(1.00, 0.00, -0.00, -1.00, 845.2, 575.8)">o</text><text xml:space="preserve" font-family="Chalkduster,Chalkduster" font-size="22.0" fill="#FEFFFE" transform="matrix(1.00, 0.00, -0.00, -1.00, 861.2, 575.8)">s</text><text xml:space="preserve" font-family="Chalkduster,Chalkduster" font-size="22.0" fill="#FEFFFE" transform="matrix(1.00, 0.00, -0.00, -1.00, 883.2, 575.8)">a</text><text xml:space="preserve" font-family="Chalkduster,Chalkduster" font-size="22.0" fill="#FEFFFE" transform="matrix(1.00, 0.00, -0.00, -1.00, 111.6, 541.8)">r</text><text xml:space="preserve" font-family="Chalkduster,Chalkduster" font-size="22.0" fill="#FEFFFE" transform="matrix(1.00, 0.00, -0.00, -1.00, 122.7, 541.8)">e</text><text xml:space="preserve" font-family="Chalkduster,Chalkduster" font-size="22.0" fill="#FEFFFE" transform="matrix(1.00, 0.00, -0.00, -1.00, 136.9, 541.8)">s</text><text xml:space="preserve" font-family="Chalkduster,Chalkduster" font-size="22.0" fill="#FEFFFE" transform="matrix(1.00, 0.00, -0.00, -1.00, 148.0, 541.8)">p</text><text xml:space="preserve" font-family="Chalkduster,Chalkduster" font-size="22.0" fill="#FEFFFE" transform="matrix(1.00, 0.00, -0.00, -1.00, 161.9, 541.8)">o</text><text xml:space="preserve" font-family="Chalkduster,Chalkduster" font-size="22.0" fill="#FEFFFE" transform="matrix(1.00, 0.00, -0.00, -1.00, 177.9, 541.8)">s</text><text xml:space="preserve" font-family="Chalkduster,Chalkduster" font-size="22.0" fill="#FEFFFE" transform="matrix(1.00, 0.00, -0.00, -1.00, 189.7, 541.8)">t</text><text xml:space="preserve" font-family="Chalkduster,Chalkduster" font-size="22.0" fill="#FEFFFE" transform="matrix(1.00, 0.00, -0.00, -1.00, 199.5, 541.8)">a</text><text xml:space="preserve" font-family="Chalkduster,Chalkduster" font-size="22.0" fill="#FEFFFE" transform="matrix(1.00, 0.00, -0.00, -1.00, 214.7, 541.8)">.</text><text xml:space="preserve" font-family="Chalkduster,Chalkduster" font-size="22.0" fill="#FEFFFE" transform="matrix(1.00, 0.00, -0.00, -1.00, 111.9, 477.6)">P</text><text xml:space="preserve" font-family="Chalkduster,Chalkduster" font-size="22.0" fill="#FEFFFE" transform="matrix(1.00, 0.00, -0.00, -1.00, 125.9, 477.6)">o</text><text xml:space="preserve" font-family="Chalkduster,Chalkduster" font-size="22.0" fill="#FEFFFE" transform="matrix(1.00, 0.00, -0.00, -1.00, 141.9, 477.6)">r</text><text xml:space="preserve" font-family="Chalkduster,Chalkduster" font-size="22.0" fill="#FEFFFE" transform="matrix(1.00, 0.00, -0.00, -1.00, 164.4, 477.6)">e</text><text xml:space="preserve" font-family="Chalkduster,Chalkduster" font-size="22.0" fill="#FEFFFE" transform="matrix(1.00, 0.00, -0.00, -1.00, 177.4, 477.6)">x</text><text xml:space="preserve" font-family="Chalkduster,Chalkduster" font-size="22.0" fill="#FEFFFE" transform="matrix(1.00, 0.00, -0.00, -1.00, 191.0, 477.6)">e</text><text xml:space="preserve" font-family="Chalkduster,Chalkduster" font-size="22.0" fill="#FEFFFE" transform="matrix(1.00, 0.00, -0.00, -1.00, 204.7, 477.6)">m</text><text xml:space="preserve" font-family="Chalkduster,Chalkduster" font-size="22.0" fill="#FEFFFE" transform="matrix(1.00, 0.00, -0.00, -1.00, 226.9, 477.6)">p</text><text xml:space="preserve" font-family="Chalkduster,Chalkduster" font-size="22.0" fill="#FEFFFE" transform="matrix(1.00, 0.00, -0.00, -1.00, 240.5, 477.6)">l</text><text xml:space="preserve" font-family="Chalkduster,Chalkduster" font-size="22.0" fill="#FEFFFE" transform="matrix(1.00, 0.00, -0.00, -1.00, 250.0, 477.6)">o</text><text xml:space="preserve" font-family="Chalkduster,Chalkduster" font-size="22.0" fill="#FEFFFE" transform="matrix(1.00, 0.00, -0.00, -1.00, 265.8, 477.6)">:</text><text xml:space="preserve" font-family="Menlo-Bold,Menlo" font-weight="bold" font-size="42.0" fill="#FEFFFE" transform="matrix(1.00, 0.00, -0.00, -1.00, 208.6, 409.9)">p</text><text xml:space="preserve" font-family="Menlo-Bold,Menlo" font-weight="bold" font-size="42.0" fill="#FEFFFE" transform="matrix(1.00, 0.00, -0.00, -1.00, 259.1, 409.9)">=</text><text xml:space="preserve" font-family="Menlo-Bold,Menlo" font-weight="bold" font-size="42.0" fill="#FEFFFE" transform="matrix(1.00, 0.00, -0.00, -1.00, 309.7, 409.9)">(</text><text xml:space="preserve" font-family="Menlo-Bold,Menlo" font-weight="bold" font-size="42.0" fill="#FEFFFE" transform="matrix(1.00, 0.00, -0.00, -1.00, 335.0, 409.9)">5</text><text xml:space="preserve" font-family="Menlo-Bold,Menlo" font-weight="bold" font-size="42.0" fill="#FEFFFE" transform="matrix(1.00, 0.00, -0.00, -1.00, 385.6, 409.9)">&gt;</text><text xml:space="preserve" font-family="Menlo-Bold,Menlo" font-weight="bold" font-size="42.0" fill="#FEFFFE" transform="matrix(1.00, 0.00, -0.00, -1.00, 436.1, 409.9)">3</text><text xml:space="preserve" font-family="Menlo-Bold,Menlo" font-weight="bold" font-size="42.0" fill="#FEFFFE" transform="matrix(1.00, 0.00, -0.00, -1.00, 461.4, 409.9)">)</text><text xml:space="preserve" font-family="Menlo-Bold,Menlo" font-weight="bold" font-size="42.0" fill="#FEFFFE" transform="matrix(1.00, 0.00, -0.00, -1.00, 512.0, 409.9)">|</text><text xml:space="preserve" font-family="Menlo-Bold,Menlo" font-weight="bold" font-size="42.0" fill="#FEFFFE" transform="matrix(1.00, 0.00, -0.00, -1.00, 537.3, 409.9)">|</text><text xml:space="preserve" font-family="Menlo-Bold,Menlo" font-weight="bold" font-size="42.0" fill="#FEFFFE" transform="matrix(1.00, 0.00, -0.00, -1.00, 587.9, 409.9)">(</text><text xml:space="preserve" font-family="Menlo-Bold,Menlo" font-weight="bold" font-size="42.0" fill="#FEFFFE" transform="matrix(1.00, 0.00, -0.00, -1.00, 613.1, 409.9)">4</text><text xml:space="preserve" font-family="Menlo-Bold,Menlo" font-weight="bold" font-size="42.0" fill="#FEFFFE" transform="matrix(1.00, 0.00, -0.00, -1.00, 663.7, 409.9)">&lt;</text><text xml:space="preserve" font-family="Menlo-Bold,Menlo" font-weight="bold" font-size="42.0" fill="#FEFFFE" transform="matrix(1.00, 0.00, -0.00, -1.00, 689.0, 409.9)">=</text><text xml:space="preserve" font-family="Menlo-Bold,Menlo" font-weight="bold" font-size="42.0" fill="#FEFFFE" transform="matrix(1.00, 0.00, -0.00, -1.00, 739.6, 409.9)">2</text><text xml:space="preserve" font-family="Menlo-Bold,Menlo" font-weight="bold" font-size="42.0" fill="#FEFFFE" transform="matrix(1.00, 0.00, -0.00, -1.00, 764.9, 409.9)">)</text><text xml:space="preserve" font-family="Menlo-Bold,Menlo" font-weight="bold" font-size="42.0" fill="#FEFFFE" transform="matrix(1.00, 0.00, -0.00, -1.00, 790.1, 409.9)">;</text><text xml:space="preserve" font-family="Chalkduster,Chalkduster" font-size="22.0" fill="#FEFFFE" transform="matrix(1.00, 0.00, -0.00, -1.00, 111.9, 350.2)">O</text><text xml:space="preserve" font-family="Chalkduster,Chalkduster" font-size="22.0" fill="#FEFFFE" transform="matrix(1.00, 0.00, -0.00, -1.00, 138.7, 350.2)">s</text><text xml:space="preserve" font-family="Chalkduster,Chalkduster" font-size="22.0" fill="#FEFFFE" transform="matrix(1.00, 0.00, -0.00, -1.00, 149.9, 350.2)">e</text><text xml:space="preserve" font-family="Chalkduster,Chalkduster" font-size="22.0" fill="#FEFFFE" transform="matrix(1.00, 0.00, -0.00, -1.00, 162.8, 350.2)">g</text><text xml:space="preserve" font-family="Chalkduster,Chalkduster" font-size="22.0" fill="#FEFFFE" transform="matrix(1.00, 0.00, -0.00, -1.00, 177.8, 350.2)">u</text><text xml:space="preserve" font-family="Chalkduster,Chalkduster" font-size="22.0" fill="#FEFFFE" transform="matrix(1.00, 0.00, -0.00, -1.00, 193.3, 350.2)">n</text><text xml:space="preserve" font-family="Chalkduster,Chalkduster" font-size="22.0" fill="#FEFFFE" transform="matrix(1.00, 0.00, -0.00, -1.00, 209.4, 350.2)">d</text><text xml:space="preserve" font-family="Chalkduster,Chalkduster" font-size="22.0" fill="#FEFFFE" transform="matrix(1.00, 0.00, -0.00, -1.00, 226.6, 350.2)">o</text><text xml:space="preserve" font-family="Chalkduster,Chalkduster" font-size="22.0" fill="#FEFFFE" transform="matrix(1.00, 0.00, -0.00, -1.00, 253.3, 350.2)">t</text><text xml:space="preserve" font-family="Chalkduster,Chalkduster" font-size="22.0" fill="#FEFFFE" transform="matrix(1.00, 0.00, -0.00, -1.00, 263.1, 350.2)">e</text><text xml:space="preserve" font-family="Chalkduster,Chalkduster" font-size="22.0" fill="#FEFFFE" transform="matrix(1.00, 0.00, -0.00, -1.00, 277.3, 350.2)">s</text><text xml:space="preserve" font-family="Chalkduster,Chalkduster" font-size="22.0" fill="#FEFFFE" transform="matrix(1.00, 0.00, -0.00, -1.00, 289.1, 350.2)">t</text><text xml:space="preserve" font-family="Chalkduster,Chalkduster" font-size="22.0" fill="#FEFFFE" transform="matrix(1.00, 0.00, -0.00, -1.00, 298.9, 350.2)">e</text><text xml:space="preserve" font-family="Chalkduster,Chalkduster" font-size="22.0" fill="#FEFFFE" transform="matrix(1.00, 0.00, -0.00, -1.00, 323.5, 350.2)">n</text><text xml:space="preserve" font-family="Chalkduster,Chalkduster" font-size="22.0" fill="#FEFFFE" transform="matrix(1.00, 0.00, -0.00, -1.00, 339.6, 350.2)">ã</text><text xml:space="preserve" font-family="Chalkduster,Chalkduster" font-size="22.0" fill="#FEFFFE" transform="matrix(1.00, 0.00, -0.00, -1.00, 354.5, 350.2)">o</text><text xml:space="preserve" font-family="Chalkduster,Chalkduster" font-size="22.0" fill="#FEFFFE" transform="matrix(1.00, 0.00, -0.00, -1.00, 381.3, 350.2)">é</text><text xml:space="preserve" font-family="Chalkduster,Chalkduster" font-size="22.0" fill="#FEFFFE" transform="matrix(1.00, 0.00, -0.00, -1.00, 406.9, 350.2)">a</text><text xml:space="preserve" font-family="Chalkduster,Chalkduster" font-size="22.0" fill="#FEFFFE" transform="matrix(1.00, 0.00, -0.00, -1.00, 420.4, 350.2)">v</text><text xml:space="preserve" font-family="Chalkduster,Chalkduster" font-size="22.0" fill="#FEFFFE" transform="matrix(1.00, 0.00, -0.00, -1.00, 432.9, 350.2)">a</text><text xml:space="preserve" font-family="Chalkduster,Chalkduster" font-size="22.0" fill="#FEFFFE" transform="matrix(1.00, 0.00, -0.00, -1.00, 447.2, 350.2)">l</text><text xml:space="preserve" font-family="Chalkduster,Chalkduster" font-size="22.0" fill="#FEFFFE" transform="matrix(1.00, 0.00, -0.00, -1.00, 457.8, 350.2)">i</text><text xml:space="preserve" font-family="Chalkduster,Chalkduster" font-size="22.0" fill="#FEFFFE" transform="matrix(1.00, 0.00, -0.00, -1.00, 466.7, 350.2)">a</text><text xml:space="preserve" font-family="Chalkduster,Chalkduster" font-size="22.0" fill="#FEFFFE" transform="matrix(1.00, 0.00, -0.00, -1.00, 481.1, 350.2)">d</text><text xml:space="preserve" font-family="Chalkduster,Chalkduster" font-size="22.0" fill="#FEFFFE" transform="matrix(1.00, 0.00, -0.00, -1.00, 498.3, 350.2)">o</text><text xml:space="preserve" font-family="Chalkduster,Chalkduster" font-size="22.0" fill="#FEFFFE" transform="matrix(1.00, 0.00, -0.00, -1.00, 512.7, 350.2)">.</text><text xml:space="preserve" font-family="Chalkduster,Chalkduster" font-size="22.0" fill="#FEFFFE" transform="matrix(1.00, 0.00, -0.00, -1.00, 112.9, 277.2)">U</text><text xml:space="preserve" font-family="Chalkduster,Chalkduster" font-size="22.0" fill="#FEFFFE" transform="matrix(1.00, 0.00, -0.00, -1.00, 128.5, 277.2)">m</text><text xml:space="preserve" font-family="Chalkduster,Chalkduster" font-size="22.0" fill="#FEFFFE" transform="matrix(1.00, 0.00, -0.00, -1.00, 161.7, 277.2)">e</text><text xml:space="preserve" font-family="Chalkduster,Chalkduster" font-size="22.0" fill="#FEFFFE" transform="matrix(1.00, 0.00, -0.00, -1.00, 174.7, 277.2)">x</text><text xml:space="preserve" font-family="Chalkduster,Chalkduster" font-size="22.0" fill="#FEFFFE" transform="matrix(1.00, 0.00, -0.00, -1.00, 188.3, 277.2)">e</text><text xml:space="preserve" font-family="Chalkduster,Chalkduster" font-size="22.0" fill="#FEFFFE" transform="matrix(1.00, 0.00, -0.00, -1.00, 202.0, 277.2)">m</text><text xml:space="preserve" font-family="Chalkduster,Chalkduster" font-size="22.0" fill="#FEFFFE" transform="matrix(1.00, 0.00, -0.00, -1.00, 224.2, 277.2)">p</text><text xml:space="preserve" font-family="Chalkduster,Chalkduster" font-size="22.0" fill="#FEFFFE" transform="matrix(1.00, 0.00, -0.00, -1.00, 237.8, 277.2)">l</text><text xml:space="preserve" font-family="Chalkduster,Chalkduster" font-size="22.0" fill="#FEFFFE" transform="matrix(1.00, 0.00, -0.00, -1.00, 247.3, 277.2)">o</text><text xml:space="preserve" font-family="Chalkduster,Chalkduster" font-size="22.0" fill="#FEFFFE" transform="matrix(1.00, 0.00, -0.00, -1.00, 274.1, 277.2)">ú</text><text xml:space="preserve" font-family="Chalkduster,Chalkduster" font-size="22.0" fill="#FEFFFE" transform="matrix(1.00, 0.00, -0.00, -1.00, 290.3, 277.2)">t</text><text xml:space="preserve" font-family="Chalkduster,Chalkduster" font-size="22.0" fill="#FEFFFE" transform="matrix(1.00, 0.00, -0.00, -1.00, 300.5, 277.2)">i</text><text xml:space="preserve" font-family="Chalkduster,Chalkduster" font-size="22.0" fill="#FEFFFE" transform="matrix(1.00, 0.00, -0.00, -1.00, 309.4, 277.2)">l</text><text xml:space="preserve" font-family="Chalkduster,Chalkduster" font-size="22.0" fill="#FEFFFE" transform="matrix(1.00, 0.00, -0.00, -1.00, 319.7, 277.2)">:</text><text xml:space="preserve" font-family="Menlo-Bold,Menlo" font-weight="bold" font-size="42.0" fill="#FEFFFE" transform="matrix(1.00, 0.00, -0.00, -1.00, 119.1, 192.7)">p</text><text xml:space="preserve" font-family="Menlo-Bold,Menlo" font-weight="bold" font-size="42.0" fill="#FEFFFE" transform="matrix(1.00, 0.00, -0.00, -1.00, 169.6, 192.7)">=</text><text xml:space="preserve" font-family="Menlo-Bold,Menlo" font-weight="bold" font-size="42.0" fill="#FEFFFE" transform="matrix(1.00, 0.00, -0.00, -1.00, 220.2, 192.7)">(</text><text xml:space="preserve" font-family="Menlo-Bold,Menlo" font-weight="bold" font-size="42.0" fill="#FEFFFE" transform="matrix(1.00, 0.00, -0.00, -1.00, 245.5, 192.7)">x</text><text xml:space="preserve" font-family="Menlo-Bold,Menlo" font-weight="bold" font-size="42.0" fill="#FEFFFE" transform="matrix(1.00, 0.00, -0.00, -1.00, 296.1, 192.7)">!</text><text xml:space="preserve" font-family="Menlo-Bold,Menlo" font-weight="bold" font-size="42.0" fill="#FEFFFE" transform="matrix(1.00, 0.00, -0.00, -1.00, 321.4, 192.7)">=</text><text xml:space="preserve" font-family="Menlo-Bold,Menlo" font-weight="bold" font-size="42.0" fill="#FEFFFE" transform="matrix(1.00, 0.00, -0.00, -1.00, 371.9, 192.7)">0</text><text xml:space="preserve" font-family="Menlo-Bold,Menlo" font-weight="bold" font-size="42.0" fill="#FEFFFE" transform="matrix(1.00, 0.00, -0.00, -1.00, 397.2, 192.7)">)</text><text xml:space="preserve" font-family="Menlo-Bold,Menlo" font-weight="bold" font-size="42.0" fill="#FEFFFE" transform="matrix(1.00, 0.00, -0.00, -1.00, 447.8, 192.7)">&amp;</text><text xml:space="preserve" font-family="Menlo-Bold,Menlo" font-weight="bold" font-size="42.0" fill="#FEFFFE" transform="matrix(1.00, 0.00, -0.00, -1.00, 473.1, 192.7)">&amp;</text><text xml:space="preserve" font-family="Menlo-Bold,Menlo" font-weight="bold" font-size="42.0" fill="#FEFFFE" transform="matrix(1.00, 0.00, -0.00, -1.00, 523.6, 192.7)">(</text><text xml:space="preserve" font-family="Menlo-Bold,Menlo" font-weight="bold" font-size="42.0" fill="#FEFFFE" transform="matrix(1.00, 0.00, -0.00, -1.00, 548.9, 192.7)">(</text><text xml:space="preserve" font-family="Menlo-Bold,Menlo" font-weight="bold" font-size="42.0" fill="#FEFFFE" transform="matrix(1.00, 0.00, -0.00, -1.00, 574.2, 192.7)">y</text><text xml:space="preserve" font-family="Menlo-Bold,Menlo" font-weight="bold" font-size="42.0" fill="#FEFFFE" transform="matrix(1.00, 0.00, -0.00, -1.00, 624.8, 192.7)">/</text><text xml:space="preserve" font-family="Menlo-Bold,Menlo" font-weight="bold" font-size="42.0" fill="#FEFFFE" transform="matrix(1.00, 0.00, -0.00, -1.00, 675.4, 192.7)">x</text><text xml:space="preserve" font-family="Menlo-Bold,Menlo" font-weight="bold" font-size="42.0" fill="#FEFFFE" transform="matrix(1.00, 0.00, -0.00, -1.00, 700.6, 192.7)">)</text><text xml:space="preserve" font-family="Menlo-Bold,Menlo" font-weight="bold" font-size="42.0" fill="#FEFFFE" transform="matrix(1.00, 0.00, -0.00, -1.00, 751.2, 192.7)">=</text><text xml:space="preserve" font-family="Menlo-Bold,Menlo" font-weight="bold" font-size="42.0" fill="#FEFFFE" transform="matrix(1.00, 0.00, -0.00, -1.00, 776.5, 192.7)">=</text><text xml:space="preserve" font-family="Menlo-Bold,Menlo" font-weight="bold" font-size="42.0" fill="#FEFFFE" transform="matrix(1.00, 0.00, -0.00, -1.00, 827.1, 192.7)">0</text><text xml:space="preserve" font-family="Menlo-Bold,Menlo" font-weight="bold" font-size="42.0" fill="#FEFFFE" transform="matrix(1.00, 0.00, -0.00, -1.00, 852.4, 192.7)">)</text><text xml:space="preserve" font-family="Menlo-Bold,Menlo" font-weight="bold" font-size="42.0" fill="#FEFFFE" transform="matrix(1.00, 0.00, -0.00, -1.00, 877.6, 192.7)">;</text><text xml:space="preserve" font-family="Chalkduster,Chalkduster" font-size="22.0" fill="#FEFFFE" transform="matrix(1.00, 0.00, -0.00, -1.00, 112.9, 116.1)">E</text><text xml:space="preserve" font-family="Chalkduster,Chalkduster" font-size="22.0" fill="#FEFFFE" transform="matrix(1.00, 0.00, -0.00, -1.00, 129.1, 116.1)">v</text><text xml:space="preserve" font-family="Chalkduster,Chalkduster" font-size="22.0" fill="#FEFFFE" transform="matrix(1.00, 0.00, -0.00, -1.00, 142.8, 116.1)">i</text><text xml:space="preserve" font-family="Chalkduster,Chalkduster" font-size="22.0" fill="#FEFFFE" transform="matrix(1.00, 0.00, -0.00, -1.00, 151.7, 116.1)">t</text><text xml:space="preserve" font-family="Chalkduster,Chalkduster" font-size="22.0" fill="#FEFFFE" transform="matrix(1.00, 0.00, -0.00, -1.00, 161.6, 116.1)">a</text><text xml:space="preserve" font-family="Chalkduster,Chalkduster" font-size="22.0" fill="#FEFFFE" transform="matrix(1.00, 0.00, -0.00, -1.00, 187.7, 116.1)">a</text><text xml:space="preserve" font-family="Chalkduster,Chalkduster" font-size="22.0" fill="#FEFFFE" transform="matrix(1.00, 0.00, -0.00, -1.00, 213.8, 116.1)">d</text><text xml:space="preserve" font-family="Chalkduster,Chalkduster" font-size="22.0" fill="#FEFFFE" transform="matrix(1.00, 0.00, -0.00, -1.00, 231.9, 116.1)">i</text><text xml:space="preserve" font-family="Chalkduster,Chalkduster" font-size="22.0" fill="#FEFFFE" transform="matrix(1.00, 0.00, -0.00, -1.00, 240.6, 116.1)">v</text><text xml:space="preserve" font-family="Chalkduster,Chalkduster" font-size="22.0" fill="#FEFFFE" transform="matrix(1.00, 0.00, -0.00, -1.00, 254.2, 116.1)">i</text><text xml:space="preserve" font-family="Chalkduster,Chalkduster" font-size="22.0" fill="#FEFFFE" transform="matrix(1.00, 0.00, -0.00, -1.00, 262.9, 116.1)">s</text><text xml:space="preserve" font-family="Chalkduster,Chalkduster" font-size="22.0" fill="#FEFFFE" transform="matrix(1.00, 0.00, -0.00, -1.00, 274.0, 116.1)">ã</text><text xml:space="preserve" font-family="Chalkduster,Chalkduster" font-size="22.0" fill="#FEFFFE" transform="matrix(1.00, 0.00, -0.00, -1.00, 288.9, 116.1)">o</text><text xml:space="preserve" font-family="Chalkduster,Chalkduster" font-size="22.0" fill="#FEFFFE" transform="matrix(1.00, 0.00, -0.00, -1.00, 315.7, 116.1)">p</text><text xml:space="preserve" font-family="Chalkduster,Chalkduster" font-size="22.0" fill="#FEFFFE" transform="matrix(1.00, 0.00, -0.00, -1.00, 329.5, 116.1)">o</text><text xml:space="preserve" font-family="Chalkduster,Chalkduster" font-size="22.0" fill="#FEFFFE" transform="matrix(1.00, 0.00, -0.00, -1.00, 345.6, 116.1)">r</text><text xml:space="preserve" font-family="Chalkduster,Chalkduster" font-size="22.0" fill="#FEFFFE" transform="matrix(1.00, 0.00, -0.00, -1.00, 368.1, 116.1)">0</text><text xml:space="preserve" font-family="Chalkduster,Chalkduster" font-size="22.0" fill="#FEFFFE" transform="matrix(1.00, 0.00, -0.00, -1.00, 382.1, 116.1)">,</text><text xml:space="preserve" font-family="Chalkduster,Chalkduster" font-size="22.0" fill="#FEFFFE" transform="matrix(1.00, 0.00, -0.00, -1.00, 399.9, 116.1)">j</text><text xml:space="preserve" font-family="Chalkduster,Chalkduster" font-size="22.0" fill="#FEFFFE" transform="matrix(1.00, 0.00, -0.00, -1.00, 410.2, 116.1)">á</text><text xml:space="preserve" font-family="Chalkduster,Chalkduster" font-size="22.0" fill="#FEFFFE" transform="matrix(1.00, 0.00, -0.00, -1.00, 435.5, 116.1)">q</text><text xml:space="preserve" font-family="Chalkduster,Chalkduster" font-size="22.0" fill="#FEFFFE" transform="matrix(1.00, 0.00, -0.00, -1.00, 449.7, 116.1)">u</text><text xml:space="preserve" font-family="Chalkduster,Chalkduster" font-size="22.0" fill="#FEFFFE" transform="matrix(1.00, 0.00, -0.00, -1.00, 464.9, 116.1)">e</text><text xml:space="preserve" font-family="Chalkduster,Chalkduster" font-size="22.0" fill="#FEFFFE" transform="matrix(1.00, 0.00, -0.00, -1.00, 489.4, 116.1)">o</text><text xml:space="preserve" font-family="Chalkduster,Chalkduster" font-size="22.0" fill="#FEFFFE" transform="matrix(1.00, 0.00, -0.00, -1.00, 516.2, 116.1)">s</text><text xml:space="preserve" font-family="Chalkduster,Chalkduster" font-size="22.0" fill="#FEFFFE" transform="matrix(1.00, 0.00, -0.00, -1.00, 527.3, 116.1)">e</text><text xml:space="preserve" font-family="Chalkduster,Chalkduster" font-size="22.0" fill="#FEFFFE" transform="matrix(1.00, 0.00, -0.00, -1.00, 540.2, 116.1)">g</text><text xml:space="preserve" font-family="Chalkduster,Chalkduster" font-size="22.0" fill="#FEFFFE" transform="matrix(1.00, 0.00, -0.00, -1.00, 555.2, 116.1)">u</text><text xml:space="preserve" font-family="Chalkduster,Chalkduster" font-size="22.0" fill="#FEFFFE" transform="matrix(1.00, 0.00, -0.00, -1.00, 570.7, 116.1)">n</text><text xml:space="preserve" font-family="Chalkduster,Chalkduster" font-size="22.0" fill="#FEFFFE" transform="matrix(1.00, 0.00, -0.00, -1.00, 586.8, 116.1)">d</text><text xml:space="preserve" font-family="Chalkduster,Chalkduster" font-size="22.0" fill="#FEFFFE" transform="matrix(1.00, 0.00, -0.00, -1.00, 604.0, 116.1)">o</text><text xml:space="preserve" font-family="Chalkduster,Chalkduster" font-size="22.0" fill="#FEFFFE" transform="matrix(1.00, 0.00, -0.00, -1.00, 630.7, 116.1)">t</text><text xml:space="preserve" font-family="Chalkduster,Chalkduster" font-size="22.0" fill="#FEFFFE" transform="matrix(1.00, 0.00, -0.00, -1.00, 640.6, 116.1)">e</text><text xml:space="preserve" font-family="Chalkduster,Chalkduster" font-size="22.0" fill="#FEFFFE" transform="matrix(1.00, 0.00, -0.00, -1.00, 654.7, 116.1)">s</text><text xml:space="preserve" font-family="Chalkduster,Chalkduster" font-size="22.0" fill="#FEFFFE" transform="matrix(1.00, 0.00, -0.00, -1.00, 666.5, 116.1)">t</text><text xml:space="preserve" font-family="Chalkduster,Chalkduster" font-size="22.0" fill="#FEFFFE" transform="matrix(1.00, 0.00, -0.00, -1.00, 676.3, 116.1)">e</text><text xml:space="preserve" font-family="Chalkduster,Chalkduster" font-size="22.0" fill="#FEFFFE" transform="matrix(1.00, 0.00, -0.00, -1.00, 700.9, 116.1)">n</text><text xml:space="preserve" font-family="Chalkduster,Chalkduster" font-size="22.0" fill="#FEFFFE" transform="matrix(1.00, 0.00, -0.00, -1.00, 717.0, 116.1)">ã</text><text xml:space="preserve" font-family="Chalkduster,Chalkduster" font-size="22.0" fill="#FEFFFE" transform="matrix(1.00, 0.00, -0.00, -1.00, 731.9, 116.1)">o</text><text xml:space="preserve" font-family="Chalkduster,Chalkduster" font-size="22.0" fill="#FEFFFE" transform="matrix(1.00, 0.00, -0.00, -1.00, 758.7, 116.1)">é</text><text xml:space="preserve" font-family="Chalkduster,Chalkduster" font-size="22.0" fill="#FEFFFE" transform="matrix(1.00, 0.00, -0.00, -1.00, 784.3, 116.1)">a</text><text xml:space="preserve" font-family="Chalkduster,Chalkduster" font-size="22.0" fill="#FEFFFE" transform="matrix(1.00, 0.00, -0.00, -1.00, 797.9, 116.1)">v</text><text xml:space="preserve" font-family="Chalkduster,Chalkduster" font-size="22.0" fill="#FEFFFE" transform="matrix(1.00, 0.00, -0.00, -1.00, 810.3, 116.1)">a</text><text xml:space="preserve" font-family="Chalkduster,Chalkduster" font-size="22.0" fill="#FEFFFE" transform="matrix(1.00, 0.00, -0.00, -1.00, 824.6, 116.1)">l</text><text xml:space="preserve" font-family="Chalkduster,Chalkduster" font-size="22.0" fill="#FEFFFE" transform="matrix(1.00, 0.00, -0.00, -1.00, 835.2, 116.1)">i</text><text xml:space="preserve" font-family="Chalkduster,Chalkduster" font-size="22.0" fill="#FEFFFE" transform="matrix(1.00, 0.00, -0.00, -1.00, 844.1, 116.1)">a</text><text xml:space="preserve" font-family="Chalkduster,Chalkduster" font-size="22.0" fill="#FEFFFE" transform="matrix(1.00, 0.00, -0.00, -1.00, 858.6, 116.1)">d</text><text xml:space="preserve" font-family="Chalkduster,Chalkduster" font-size="22.0" fill="#FEFFFE" transform="matrix(1.00, 0.00, -0.00, -1.00, 875.7, 116.1)">o</text><text xml:space="preserve" font-family="Chalkduster,Chalkduster" font-size="22.0" fill="#FEFFFE" transform="matrix(1.00, 0.00, -0.00, -1.00, 889.8, 116.1)">,</text><text xml:space="preserve" font-family="Chalkduster,Chalkduster" font-size="22.0" fill="#FEFFFE" transform="matrix(1.00, 0.00, -0.00, -1.00, 112.9, 82.1)">s</text><text xml:space="preserve" font-family="Chalkduster,Chalkduster" font-size="22.0" fill="#FEFFFE" transform="matrix(1.00, 0.00, -0.00, -1.00, 124.0, 82.1)">e</text><text xml:space="preserve" font-family="Chalkduster,Chalkduster" font-size="22.0" fill="#A8C994" transform="matrix(1.00, 0.00, -0.00, -1.00, 148.5, 82.1)">x</text><text xml:space="preserve" font-family="Chalkduster,Chalkduster" font-size="22.0" fill="#FEFFFE" transform="matrix(1.00, 0.00, -0.00, -1.00, 173.5, 82.1)">f</text><text xml:space="preserve" font-family="Chalkduster,Chalkduster" font-size="22.0" fill="#FEFFFE" transform="matrix(1.00, 0.00, -0.00, -1.00, 184.5, 82.1)">o</text><text xml:space="preserve" font-family="Chalkduster,Chalkduster" font-size="22.0" fill="#FEFFFE" transform="matrix(1.00, 0.00, -0.00, -1.00, 200.5, 82.1)">r</text><text xml:space="preserve" font-family="Chalkduster,Chalkduster" font-size="22.0" fill="#FEFFFE" transform="matrix(1.00, 0.00, -0.00, -1.00, 223.0, 82.1)">i</text><text xml:space="preserve" font-family="Chalkduster,Chalkduster" font-size="22.0" fill="#FEFFFE" transform="matrix(1.00, 0.00, -0.00, -1.00, 231.7, 82.1)">g</text><text xml:space="preserve" font-family="Chalkduster,Chalkduster" font-size="22.0" fill="#FEFFFE" transform="matrix(1.00, 0.00, -0.00, -1.00, 246.7, 82.1)">u</text><text xml:space="preserve" font-family="Chalkduster,Chalkduster" font-size="22.0" fill="#FEFFFE" transform="matrix(1.00, 0.00, -0.00, -1.00, 261.8, 82.1)">a</text><text xml:space="preserve" font-family="Chalkduster,Chalkduster" font-size="22.0" fill="#FEFFFE" transform="matrix(1.00, 0.00, -0.00, -1.00, 276.1, 82.1)">l</text><text xml:space="preserve" font-family="Chalkduster,Chalkduster" font-size="22.0" fill="#FEFFFE" transform="matrix(1.00, 0.00, -0.00, -1.00, 297.4, 82.1)">a</text><text xml:space="preserve" font-family="Chalkduster,Chalkduster" font-size="22.0" fill="#FEFFFE" transform="matrix(1.00, 0.00, -0.00, -1.00, 323.5, 82.1)">0</text><text xml:space="preserve" font-family="Chalkduster,Chalkduster" font-size="22.0" fill="#FEFFFE" transform="matrix(1.00, 0.00, -0.00, -1.00, 338.0, 82.1)">.</text></g></svg>