<?xml version="1.0" encoding="UTF-8" standalone="no"?><svg xmlns="http://www.w3.org/2000/svg" xmlns:xlink="http://www.w3.org/1999/xlink" clip-rule="evenodd" stroke-miterlimit="10" viewBox="0 0 600 85"><desc>SVG generated by Keynote</desc><defs></defs><g transform="matrix(1.00, 0.00, -0.00, -1.00, 0.0, 85.0)"><text xml:space="preserve" font-family="Chalkduster,Chalkduster" font-size="56.0" fill="#FEFFFE" transform="matrix(1.00, 0.00, -0.00, -1.00, -0.6, 30.6)">I</text><text xml:space="preserve" font-family="Chalkduster,Chalkduster" font-size="56.0" fill="#FEFFFE" transform="matrix(1.00, 0.00, -0.00, -1.00, 32.7, 30.6)">n</text><text xml:space="preserve" font-family="Chalkduster,Chalkduster" font-size="56.0" fill="#FEFFFE" transform="matrix(1.00, 0.00, -0.00, -1.00, 73.8, 30.6)">s</text><text xml:space="preserve" font-family="Chalkduster,Chalkduster" font-size="56.0" fill="#FEFFFE" transform="matrix(1.00, 0.00, -0.00, -1.00, 103.8, 30.6)">t</text><text xml:space="preserve" font-family="Chalkduster,Chalkduster" font-size="56.0" fill="#FEFFFE" transform="matrix(1.00, 0.00, -0.00, -1.00, 129.4, 30.6)">r</text><text xml:space="preserve" font-family="Chalkduster,Chalkduster" font-size="56.0" fill="#FEFFFE" transform="matrix(1.00, 0.00, -0.00, -1.00, 160.4, 30.6)">u</text><text xml:space="preserve" font-family="Chalkduster,Chalkduster" font-size="56.0" fill="#FEFFFE" transform="matrix(1.00, 0.00, -0.00, -1.00, 198.9, 30.6)">รง</text><text xml:space="preserve" font-family="Chalkduster,Chalkduster" font-size="56.0" fill="#FEFFFE" transform="matrix(1.00, 0.00, -0.00, -1.00, 229.9, 30.6)">รฃ</text><text xml:space="preserve" font-family="Chalkduster,Chalkduster" font-size="56.0" fill="#FEFFFE" transform="matrix(1.00, 0.00, -0.00, -1.00, 267.9, 30.6)">o</text><text xml:space="preserve" font-family="Chalkduster,Chalkduster" font-size="56.0" fill="#FEFFFE" transform="matrix(1.00, 0.00, -0.00, -1.00, 308.1, 30.6)"> </text><text xml:space="preserve" font-family="Chalkduster,Chalkduster" font-size="56.0" fill="#A8C994" transform="matrix(1.00, 0.00, -0.00, -1.00, 335.9, 30.6)">i</text><text xml:space="preserve" font-family="Chalkduster,Chalkduster" font-size="56.0" fill="#A8C994" transform="matrix(1.00, 0.00, -0.00, -1.00, 355.3, 30.6)">f</text><text xml:space="preserve" font-family="Chalkduster,Chalkduster" font-size="56.0" fill="#A8C994" transform="matrix(1.00, 0.00, -0.00, -1.00, 385.1, 30.6)"> </text><text xml:space="preserve" font-family="Chalkduster,Chalkduster" font-size="56.0" fill="#A8C994" transform="matrix(1.00, 0.00, -0.00, -1.00, 413.0, 30.6)">-</text><text xml:space="preserve" font-family="Chalkduster,Chalkduster" font-size="56.0" fill="#A8C994" transform="matrix(1.00, 0.00, -0.00, -1.00, 446.9, 30.6)"> </text><text xml:space="preserve" font-family="Chalkduster,Chalkduster" font-size="56.0" fill="#A8C994" transform="matrix(1.00, 0.00, -0.00, -1.00, 474.7, 30.6)">e</text><text xml:space="preserve" font-family="Chalkduster,Chalkduster" font-size="56.0" fill="#A8C994" transform="matrix(1.00, 0.00, -0.00, -1.00, 509.4, 30.6)">l</text><text xml:space="preserve" font-family="Chalkduster,Chalkduster" font-size="56.0" fill="#A8C994" transform="matrix(1.00, 0.00, -0.00, -1.00, 535.7, 30.6)">s</text><text xml:space="preserve" font-family="Chalkduster,Chalkduster" font-size="56.0" fill="#A8C994" transform="matrix(1.00, 0.00, -0.00, -1.00, 564.0, 30.6)">e</text></g></svg>