<?xml version="1.0" encoding="UTF-8" standalone="no"?><svg xmlns="http://www.w3.org/2000/svg" xmlns:xlink="http://www.w3.org/1999/xlink" clip-rule="evenodd" stroke-miterlimit="10" viewBox="0 0 1024 768"><desc>SVG generated by Keynote</desc><defs></defs><g transform="matrix(1.00, 0.00, -0.00, -1.00, 0.0, 768.0)"><g><clipPath id="clip0x608002ea0600"><path d="M 0.0 768.0 L 1024.0 768.0 L 1024.0 0.0 L 0.0 0.0 Z M 0.0 768.0 "></path></clipPath><g clip-path="url(#clip0x608002ea0600)"><image xlink:href="../../2454F38C-308E-4D93-86A7-ACF877EF01F7/assets/D54D7AAA5FD1EC733BC359F041C689F1.jpeg" width="2048.00" height="1536.00" transform="matrix(0.50, 0.00, -0.00, -0.50, 0.0, 768.0)"></image></g></g><text xml:space="preserve" font-family="Menlo-Bold,Menlo" font-weight="bold" font-size="36.0" fill="#FEFFFE" transform="matrix(1.00, 0.00, -0.00, -1.00, 182.9, 454.0)">i</text><text xml:space="preserve" font-family="Menlo-Bold,Menlo" font-weight="bold" font-size="36.0" fill="#FEFFFE" transform="matrix(1.00, 0.00, -0.00, -1.00, 204.6, 454.0)">f</text><text xml:space="preserve" font-family="Menlo-Bold,Menlo" font-weight="bold" font-size="36.0" fill="#FEFFFE" transform="matrix(1.00, 0.00, -0.00, -1.00, 247.9, 454.0)">(</text><text xml:space="preserve" font-family="Menlo-Bold,Menlo" font-weight="bold" font-size="36.0" fill="#FEFFFE" transform="matrix(1.00, 0.00, -0.00, -1.00, 269.6, 454.0)">(</text><text xml:space="preserve" font-family="Menlo-Bold,Menlo" font-weight="bold" font-size="36.0" fill="#FEFFFE" transform="matrix(1.00, 0.00, -0.00, -1.00, 291.3, 454.0)">n</text><text xml:space="preserve" font-family="Menlo-Bold,Menlo" font-weight="bold" font-size="36.0" fill="#FEFFFE" transform="matrix(1.00, 0.00, -0.00, -1.00, 312.9, 454.0)">u</text><text xml:space="preserve" font-family="Menlo-Bold,Menlo" font-weight="bold" font-size="36.0" fill="#FEFFFE" transform="matrix(1.00, 0.00, -0.00, -1.00, 334.6, 454.0)">m</text><text xml:space="preserve" font-family="Menlo-Bold,Menlo" font-weight="bold" font-size="36.0" fill="#FEFFFE" transform="matrix(1.00, 0.00, -0.00, -1.00, 378.0, 454.0)">%</text><text xml:space="preserve" font-family="Menlo-Bold,Menlo" font-weight="bold" font-size="36.0" fill="#FEFFFE" transform="matrix(1.00, 0.00, -0.00, -1.00, 421.3, 454.0)">2</text><text xml:space="preserve" font-family="Menlo-Bold,Menlo" font-weight="bold" font-size="36.0" fill="#FEFFFE" transform="matrix(1.00, 0.00, -0.00, -1.00, 443.0, 454.0)">)</text><text xml:space="preserve" font-family="Menlo-Bold,Menlo" font-weight="bold" font-size="36.0" fill="#FEFFFE" transform="matrix(1.00, 0.00, -0.00, -1.00, 486.3, 454.0)">=</text><text xml:space="preserve" font-family="Menlo-Bold,Menlo" font-weight="bold" font-size="36.0" fill="#FEFFFE" transform="matrix(1.00, 0.00, -0.00, -1.00, 508.0, 454.0)">=</text><text xml:space="preserve" font-family="Menlo-Bold,Menlo" font-weight="bold" font-size="36.0" fill="#FEFFFE" transform="matrix(1.00, 0.00, -0.00, -1.00, 551.4, 454.0)">0</text><text xml:space="preserve" font-family="Menlo-Bold,Menlo" font-weight="bold" font-size="36.0" fill="#FEFFFE" transform="matrix(1.00, 0.00, -0.00, -1.00, 573.0, 454.0)">)</text><text xml:space="preserve" font-family="Menlo-Bold,Menlo" font-weight="bold" font-size="36.0" fill="#FEFFFE" transform="matrix(1.00, 0.00, -0.00, -1.00, 616.4, 454.0)">{</text><text xml:space="preserve" font-family="Menlo-Bold,Menlo" font-weight="bold" font-size="36.0" fill="#FEFFFE" transform="matrix(1.00, 0.00, -0.00, -1.00, 254.9, 413.0)">p</text><text xml:space="preserve" font-family="Menlo-Bold,Menlo" font-weight="bold" font-size="36.0" fill="#FEFFFE" transform="matrix(1.00, 0.00, -0.00, -1.00, 276.6, 413.0)">r</text><text xml:space="preserve" font-family="Menlo-Bold,Menlo" font-weight="bold" font-size="36.0" fill="#FEFFFE" transform="matrix(1.00, 0.00, -0.00, -1.00, 298.3, 413.0)">i</text><text xml:space="preserve" font-family="Menlo-Bold,Menlo" font-weight="bold" font-size="36.0" fill="#FEFFFE" transform="matrix(1.00, 0.00, -0.00, -1.00, 319.9, 413.0)">n</text><text xml:space="preserve" font-family="Menlo-Bold,Menlo" font-weight="bold" font-size="36.0" fill="#FEFFFE" transform="matrix(1.00, 0.00, -0.00, -1.00, 341.6, 413.0)">t</text><text xml:space="preserve" font-family="Menlo-Bold,Menlo" font-weight="bold" font-size="36.0" fill="#FEFFFE" transform="matrix(1.00, 0.00, -0.00, -1.00, 363.3, 413.0)">l</text><text xml:space="preserve" font-family="Menlo-Bold,Menlo" font-weight="bold" font-size="36.0" fill="#FEFFFE" transform="matrix(1.00, 0.00, -0.00, -1.00, 384.9, 413.0)">n</text><text xml:space="preserve" font-family="Menlo-Bold,Menlo" font-weight="bold" font-size="36.0" fill="#FEFFFE" transform="matrix(1.00, 0.00, -0.00, -1.00, 406.6, 413.0)">(</text><text xml:space="preserve" font-family="Menlo-Bold,Menlo" font-weight="bold" font-size="36.0" fill="#FEFFFE" transform="matrix(1.00, 0.00, -0.00, -1.00, 428.3, 413.0)">“</text><text xml:space="preserve" font-family="Menlo-Bold,Menlo" font-weight="bold" font-size="36.0" fill="#FEFFFE" transform="matrix(1.00, 0.00, -0.00, -1.00, 450.0, 413.0)">n</text><text xml:space="preserve" font-family="Menlo-Bold,Menlo" font-weight="bold" font-size="36.0" fill="#FEFFFE" transform="matrix(1.00, 0.00, -0.00, -1.00, 471.6, 413.0)">ú</text><text xml:space="preserve" font-family="Menlo-Bold,Menlo" font-weight="bold" font-size="36.0" fill="#FEFFFE" transform="matrix(1.00, 0.00, -0.00, -1.00, 493.3, 413.0)">m</text><text xml:space="preserve" font-family="Menlo-Bold,Menlo" font-weight="bold" font-size="36.0" fill="#FEFFFE" transform="matrix(1.00, 0.00, -0.00, -1.00, 515.0, 413.0)">e</text><text xml:space="preserve" font-family="Menlo-Bold,Menlo" font-weight="bold" font-size="36.0" fill="#FEFFFE" transform="matrix(1.00, 0.00, -0.00, -1.00, 536.7, 413.0)">r</text><text xml:space="preserve" font-family="Menlo-Bold,Menlo" font-weight="bold" font-size="36.0" fill="#FEFFFE" transform="matrix(1.00, 0.00, -0.00, -1.00, 558.3, 413.0)">o</text><text xml:space="preserve" font-family="Menlo-Bold,Menlo" font-weight="bold" font-size="36.0" fill="#FEFFFE" transform="matrix(1.00, 0.00, -0.00, -1.00, 601.7, 413.0)">é</text><text xml:space="preserve" font-family="Menlo-Bold,Menlo" font-weight="bold" font-size="36.0" fill="#FEFFFE" transform="matrix(1.00, 0.00, -0.00, -1.00, 645.0, 413.0)">p</text><text xml:space="preserve" font-family="Menlo-Bold,Menlo" font-weight="bold" font-size="36.0" fill="#FEFFFE" transform="matrix(1.00, 0.00, -0.00, -1.00, 666.7, 413.0)">a</text><text xml:space="preserve" font-family="Menlo-Bold,Menlo" font-weight="bold" font-size="36.0" fill="#FEFFFE" transform="matrix(1.00, 0.00, -0.00, -1.00, 688.4, 413.0)">r</text><text xml:space="preserve" font-family="Menlo-Bold,Menlo" font-weight="bold" font-size="36.0" fill="#FEFFFE" transform="matrix(1.00, 0.00, -0.00, -1.00, 710.1, 413.0)">”</text><text xml:space="preserve" font-family="Menlo-Bold,Menlo" font-weight="bold" font-size="36.0" fill="#FEFFFE" transform="matrix(1.00, 0.00, -0.00, -1.00, 731.7, 413.0)">)</text><text xml:space="preserve" font-family="Menlo-Bold,Menlo" font-weight="bold" font-size="36.0" fill="#FEFFFE" transform="matrix(1.00, 0.00, -0.00, -1.00, 753.4, 413.0)">;</text><text xml:space="preserve" font-family="Menlo-Bold,Menlo" font-weight="bold" font-size="36.0" fill="#FEFFFE" transform="matrix(1.00, 0.00, -0.00, -1.00, 182.9, 372.0)">}</text><text xml:space="preserve" font-family="Menlo-Bold,Menlo" font-weight="bold" font-size="36.0" fill="#FEFFFE" transform="matrix(1.00, 0.00, -0.00, -1.00, 226.3, 372.0)">e</text><text xml:space="preserve" font-family="Menlo-Bold,Menlo" font-weight="bold" font-size="36.0" fill="#FEFFFE" transform="matrix(1.00, 0.00, -0.00, -1.00, 247.9, 372.0)">l</text><text xml:space="preserve" font-family="Menlo-Bold,Menlo" font-weight="bold" font-size="36.0" fill="#FEFFFE" transform="matrix(1.00, 0.00, -0.00, -1.00, 269.6, 372.0)">s</text><text xml:space="preserve" font-family="Menlo-Bold,Menlo" font-weight="bold" font-size="36.0" fill="#FEFFFE" transform="matrix(1.00, 0.00, -0.00, -1.00, 291.3, 372.0)">e</text><text xml:space="preserve" font-family="Menlo-Bold,Menlo" font-weight="bold" font-size="36.0" fill="#FEFFFE" transform="matrix(1.00, 0.00, -0.00, -1.00, 334.6, 372.0)">{</text><text xml:space="preserve" font-family="Menlo-Bold,Menlo" font-weight="bold" font-size="36.0" fill="#FEFFFE" transform="matrix(1.00, 0.00, -0.00, -1.00, 254.9, 331.0)">p</text><text xml:space="preserve" font-family="Menlo-Bold,Menlo" font-weight="bold" font-size="36.0" fill="#FEFFFE" transform="matrix(1.00, 0.00, -0.00, -1.00, 276.6, 331.0)">r</text><text xml:space="preserve" font-family="Menlo-Bold,Menlo" font-weight="bold" font-size="36.0" fill="#FEFFFE" transform="matrix(1.00, 0.00, -0.00, -1.00, 298.3, 331.0)">i</text><text xml:space="preserve" font-family="Menlo-Bold,Menlo" font-weight="bold" font-size="36.0" fill="#FEFFFE" transform="matrix(1.00, 0.00, -0.00, -1.00, 319.9, 331.0)">n</text><text xml:space="preserve" font-family="Menlo-Bold,Menlo" font-weight="bold" font-size="36.0" fill="#FEFFFE" transform="matrix(1.00, 0.00, -0.00, -1.00, 341.6, 331.0)">t</text><text xml:space="preserve" font-family="Menlo-Bold,Menlo" font-weight="bold" font-size="36.0" fill="#FEFFFE" transform="matrix(1.00, 0.00, -0.00, -1.00, 363.3, 331.0)">l</text><text xml:space="preserve" font-family="Menlo-Bold,Menlo" font-weight="bold" font-size="36.0" fill="#FEFFFE" transform="matrix(1.00, 0.00, -0.00, -1.00, 384.9, 331.0)">n</text><text xml:space="preserve" font-family="Menlo-Bold,Menlo" font-weight="bold" font-size="36.0" fill="#FEFFFE" transform="matrix(1.00, 0.00, -0.00, -1.00, 406.6, 331.0)">(</text><text xml:space="preserve" font-family="Menlo-Bold,Menlo" font-weight="bold" font-size="36.0" fill="#FEFFFE" transform="matrix(1.00, 0.00, -0.00, -1.00, 428.3, 331.0)">“</text><text xml:space="preserve" font-family="Menlo-Bold,Menlo" font-weight="bold" font-size="36.0" fill="#FEFFFE" transform="matrix(1.00, 0.00, -0.00, -1.00, 450.0, 331.0)">n</text><text xml:space="preserve" font-family="Menlo-Bold,Menlo" font-weight="bold" font-size="36.0" fill="#FEFFFE" transform="matrix(1.00, 0.00, -0.00, -1.00, 471.6, 331.0)">ú</text><text xml:space="preserve" font-family="Menlo-Bold,Menlo" font-weight="bold" font-size="36.0" fill="#FEFFFE" transform="matrix(1.00, 0.00, -0.00, -1.00, 493.3, 331.0)">m</text><text xml:space="preserve" font-family="Menlo-Bold,Menlo" font-weight="bold" font-size="36.0" fill="#FEFFFE" transform="matrix(1.00, 0.00, -0.00, -1.00, 515.0, 331.0)">e</text><text xml:space="preserve" font-family="Menlo-Bold,Menlo" font-weight="bold" font-size="36.0" fill="#FEFFFE" transform="matrix(1.00, 0.00, -0.00, -1.00, 536.7, 331.0)">r</text><text xml:space="preserve" font-family="Menlo-Bold,Menlo" font-weight="bold" font-size="36.0" fill="#FEFFFE" transform="matrix(1.00, 0.00, -0.00, -1.00, 558.3, 331.0)">o</text><text xml:space="preserve" font-family="Menlo-Bold,Menlo" font-weight="bold" font-size="36.0" fill="#FEFFFE" transform="matrix(1.00, 0.00, -0.00, -1.00, 601.7, 331.0)">é</text><text xml:space="preserve" font-family="Menlo-Bold,Menlo" font-weight="bold" font-size="36.0" fill="#FEFFFE" transform="matrix(1.00, 0.00, -0.00, -1.00, 645.0, 331.0)">í</text><text xml:space="preserve" font-family="Menlo-Bold,Menlo" font-weight="bold" font-size="36.0" fill="#FEFFFE" transform="matrix(1.00, 0.00, -0.00, -1.00, 666.7, 331.0)">m</text><text xml:space="preserve" font-family="Menlo-Bold,Menlo" font-weight="bold" font-size="36.0" fill="#FEFFFE" transform="matrix(1.00, 0.00, -0.00, -1.00, 688.4, 331.0)">p</text><text xml:space="preserve" font-family="Menlo-Bold,Menlo" font-weight="bold" font-size="36.0" fill="#FEFFFE" transform="matrix(1.00, 0.00, -0.00, -1.00, 710.1, 331.0)">a</text><text xml:space="preserve" font-family="Menlo-Bold,Menlo" font-weight="bold" font-size="36.0" fill="#FEFFFE" transform="matrix(1.00, 0.00, -0.00, -1.00, 731.7, 331.0)">r</text><text xml:space="preserve" font-family="Menlo-Bold,Menlo" font-weight="bold" font-size="36.0" fill="#FEFFFE" transform="matrix(1.00, 0.00, -0.00, -1.00, 753.4, 331.0)">”</text><text xml:space="preserve" font-family="Menlo-Bold,Menlo" font-weight="bold" font-size="36.0" fill="#FEFFFE" transform="matrix(1.00, 0.00, -0.00, -1.00, 775.1, 331.0)">)</text><text xml:space="preserve" font-family="Menlo-Bold,Menlo" font-weight="bold" font-size="36.0" fill="#FEFFFE" transform="matrix(1.00, 0.00, -0.00, -1.00, 796.7, 331.0)">;</text><text xml:space="preserve" font-family="Menlo-Bold,Menlo" font-weight="bold" font-size="36.0" fill="#FEFFFE" transform="matrix(1.00, 0.00, -0.00, -1.00, 182.9, 290.0)">}</text><text xml:space="preserve" font-family="Chalkduster,Chalkduster" font-size="56.0" fill="#FEFFFE" transform="matrix(1.00, 0.00, -0.00, -1.00, 378.8, 651.6)">E</text><text xml:space="preserve" font-family="Chalkduster,Chalkduster" font-size="56.0" fill="#FEFFFE" transform="matrix(1.00, 0.00, -0.00, -1.00, 420.2, 651.6)">x</text><text xml:space="preserve" font-family="Chalkduster,Chalkduster" font-size="56.0" fill="#FEFFFE" transform="matrix(1.00, 0.00, -0.00, -1.00, 454.9, 651.6)">e</text><text xml:space="preserve" font-family="Chalkduster,Chalkduster" font-size="56.0" fill="#FEFFFE" transform="matrix(1.00, 0.00, -0.00, -1.00, 489.7, 651.6)">m</text><text xml:space="preserve" font-family="Chalkduster,Chalkduster" font-size="56.0" fill="#FEFFFE" transform="matrix(1.00, 0.00, -0.00, -1.00, 546.4, 651.6)">p</text><text xml:space="preserve" font-family="Chalkduster,Chalkduster" font-size="56.0" fill="#FEFFFE" transform="matrix(1.00, 0.00, -0.00, -1.00, 580.9, 651.6)">l</text><text xml:space="preserve" font-family="Chalkduster,Chalkduster" font-size="56.0" fill="#FEFFFE" transform="matrix(1.00, 0.00, -0.00, -1.00, 605.0, 651.6)">o</text></g></svg>