<?xml version="1.0" encoding="UTF-8" standalone="no"?><svg xmlns="http://www.w3.org/2000/svg" xmlns:xlink="http://www.w3.org/1999/xlink" clip-rule="evenodd" stroke-miterlimit="10" viewBox="0 0 1024 768"><desc>SVG generated by Keynote</desc><defs></defs><g transform="matrix(1.00, 0.00, -0.00, -1.00, 0.0, 768.0)"><g><clipPath id="clip0x618002cb7520"><path d="M 0.0 768.0 L 1024.0 768.0 L 1024.0 0.0 L 0.0 0.0 Z M 0.0 768.0 "></path></clipPath><g clip-path="url(#clip0x618002cb7520)"><image xlink:href="../../2454F38C-308E-4D93-86A7-ACF877EF01F7/assets/D54D7AAA5FD1EC733BC359F041C689F1.jpeg" width="2048.00" height="1536.00" transform="matrix(0.50, 0.00, -0.00, -0.50, 0.0, 768.0)"></image></g></g><text xml:space="preserve" font-family="Chalkduster,Chalkduster" font-size="56.0" fill="#A8C994" transform="matrix(1.00, 0.00, -0.00, -1.00, 373.9, 651.6)">f</text><text xml:space="preserve" font-family="Chalkduster,Chalkduster" font-size="56.0" fill="#A8C994" transform="matrix(1.00, 0.00, -0.00, -1.00, 402.0, 651.6)">o</text><text xml:space="preserve" font-family="Chalkduster,Chalkduster" font-size="56.0" fill="#A8C994" transform="matrix(1.00, 0.00, -0.00, -1.00, 442.8, 651.6)">r</text><text xml:space="preserve" font-family="Chalkduster,Chalkduster" font-size="56.0" fill="#A8C994" transform="matrix(1.00, 0.00, -0.00, -1.00, 474.4, 651.6)">-</text><text xml:space="preserve" font-family="Chalkduster,Chalkduster" font-size="56.0" fill="#A8C994" transform="matrix(1.00, 0.00, -0.00, -1.00, 508.3, 651.6)">l</text><text xml:space="preserve" font-family="Chalkduster,Chalkduster" font-size="56.0" fill="#A8C994" transform="matrix(1.00, 0.00, -0.00, -1.00, 532.4, 651.6)">o</text><text xml:space="preserve" font-family="Chalkduster,Chalkduster" font-size="56.0" fill="#A8C994" transform="matrix(1.00, 0.00, -0.00, -1.00, 574.7, 651.6)">o</text><text xml:space="preserve" font-family="Chalkduster,Chalkduster" font-size="56.0" fill="#A8C994" transform="matrix(1.00, 0.00, -0.00, -1.00, 615.6, 651.6)">p</text><text xml:space="preserve" font-family="Menlo-Bold,Menlo" font-weight="bold" font-size="42.0" fill="#FEFFFE" transform="matrix(1.00, 0.00, -0.00, -1.00, 69.0, 512.1)">f</text><text xml:space="preserve" font-family="Menlo-Bold,Menlo" font-weight="bold" font-size="42.0" fill="#FEFFFE" transform="matrix(1.00, 0.00, -0.00, -1.00, 94.3, 512.1)">o</text><text xml:space="preserve" font-family="Menlo-Bold,Menlo" font-weight="bold" font-size="42.0" fill="#FEFFFE" transform="matrix(1.00, 0.00, -0.00, -1.00, 119.6, 512.1)">r</text><text xml:space="preserve" font-family="Menlo-Bold,Menlo" font-weight="bold" font-size="42.0" fill="#FEFFFE" transform="matrix(1.00, 0.00, -0.00, -1.00, 170.1, 512.1)">(</text><text xml:space="preserve" font-family="Menlo-Bold,Menlo" font-weight="bold" font-size="42.0" fill="#FEFFFE" transform="matrix(1.00, 0.00, -0.00, -1.00, 372.4, 512.1)">;</text><text xml:space="preserve" font-family="Menlo-Bold,Menlo" font-weight="bold" font-size="42.0" fill="#FEFFFE" transform="matrix(1.00, 0.00, -0.00, -1.00, 650.6, 512.1)">;</text><text xml:space="preserve" font-family="Menlo-Bold,Menlo" font-weight="bold" font-size="42.0" fill="#FEFFFE" transform="matrix(1.00, 0.00, -0.00, -1.00, 827.6, 512.1)">;</text><text xml:space="preserve" font-family="Menlo-Bold,Menlo" font-weight="bold" font-size="42.0" fill="#FEFFFE" transform="matrix(1.00, 0.00, -0.00, -1.00, 852.9, 512.1)">)</text><text xml:space="preserve" font-family="Menlo-Bold,Menlo" font-weight="bold" font-size="42.0" fill="#FEFFFE" transform="matrix(1.00, 0.00, -0.00, -1.00, 903.4, 512.1)">{</text><text xml:space="preserve" font-family="Menlo-Bold,Menlo" font-weight="bold" font-size="42.0" fill="#FEFFFE" transform="matrix(1.00, 0.00, -0.00, -1.00, 69.0, 365.1)">}</text><text xml:space="preserve" font-family="Chalkduster,Chalkduster" font-size="42.0" fill="#FEFFFE" transform="matrix(1.00, 0.00, -0.00, -1.00, 413.3, 512.5)">c</text><text xml:space="preserve" font-family="Chalkduster,Chalkduster" font-size="42.0" fill="#FEFFFE" transform="matrix(1.00, 0.00, -0.00, -1.00, 438.4, 512.5)">o</text><text xml:space="preserve" font-family="Chalkduster,Chalkduster" font-size="42.0" fill="#FEFFFE" transform="matrix(1.00, 0.00, -0.00, -1.00, 469.6, 512.5)">n</text><text xml:space="preserve" font-family="Chalkduster,Chalkduster" font-size="42.0" fill="#FEFFFE" transform="matrix(1.00, 0.00, -0.00, -1.00, 500.5, 512.5)">d</text><text xml:space="preserve" font-family="Chalkduster,Chalkduster" font-size="42.0" fill="#FEFFFE" transform="matrix(1.00, 0.00, -0.00, -1.00, 535.0, 512.5)">i</text><text xml:space="preserve" font-family="Chalkduster,Chalkduster" font-size="42.0" fill="#FEFFFE" transform="matrix(1.00, 0.00, -0.00, -1.00, 551.6, 512.5)">ç</text><text xml:space="preserve" font-family="Chalkduster,Chalkduster" font-size="42.0" fill="#FEFFFE" transform="matrix(1.00, 0.00, -0.00, -1.00, 574.8, 512.5)">ã</text><text xml:space="preserve" font-family="Chalkduster,Chalkduster" font-size="42.0" fill="#FEFFFE" transform="matrix(1.00, 0.00, -0.00, -1.00, 603.2, 512.5)">o</text><text xml:space="preserve" font-family="Chalkduster,Chalkduster" font-size="42.0" fill="#FEFFFE" transform="matrix(1.00, 0.00, -0.00, -1.00, 239.5, 438.4)">i</text><text xml:space="preserve" font-family="Chalkduster,Chalkduster" font-size="42.0" fill="#FEFFFE" transform="matrix(1.00, 0.00, -0.00, -1.00, 256.1, 438.4)">n</text><text xml:space="preserve" font-family="Chalkduster,Chalkduster" font-size="42.0" fill="#FEFFFE" transform="matrix(1.00, 0.00, -0.00, -1.00, 286.9, 438.4)">s</text><text xml:space="preserve" font-family="Chalkduster,Chalkduster" font-size="42.0" fill="#FEFFFE" transform="matrix(1.00, 0.00, -0.00, -1.00, 309.4, 438.4)">t</text><text xml:space="preserve" font-family="Chalkduster,Chalkduster" font-size="42.0" fill="#FEFFFE" transform="matrix(1.00, 0.00, -0.00, -1.00, 328.6, 438.4)">r</text><text xml:space="preserve" font-family="Chalkduster,Chalkduster" font-size="42.0" fill="#FEFFFE" transform="matrix(1.00, 0.00, -0.00, -1.00, 351.9, 438.4)">u</text><text xml:space="preserve" font-family="Chalkduster,Chalkduster" font-size="42.0" fill="#FEFFFE" transform="matrix(1.00, 0.00, -0.00, -1.00, 380.8, 438.4)">ç</text><text xml:space="preserve" font-family="Chalkduster,Chalkduster" font-size="42.0" fill="#FEFFFE" transform="matrix(1.00, 0.00, -0.00, -1.00, 404.0, 438.4)">õ</text><text xml:space="preserve" font-family="Chalkduster,Chalkduster" font-size="42.0" fill="#FEFFFE" transform="matrix(1.00, 0.00, -0.00, -1.00, 436.4, 438.4)">e</text><text xml:space="preserve" font-family="Chalkduster,Chalkduster" font-size="42.0" fill="#FEFFFE" transform="matrix(1.00, 0.00, -0.00, -1.00, 463.4, 438.4)">s</text><text xml:space="preserve" font-family="Chalkduster,Chalkduster" font-size="42.0" fill="#FEFFFE" transform="matrix(1.00, 0.00, -0.00, -1.00, 688.7, 512.5)">p</text><text xml:space="preserve" font-family="Chalkduster,Chalkduster" font-size="42.0" fill="#FEFFFE" transform="matrix(1.00, 0.00, -0.00, -1.00, 714.7, 512.5)">a</text><text xml:space="preserve" font-family="Chalkduster,Chalkduster" font-size="42.0" fill="#FEFFFE" transform="matrix(1.00, 0.00, -0.00, -1.00, 744.1, 512.5)">s</text><text xml:space="preserve" font-family="Chalkduster,Chalkduster" font-size="42.0" fill="#FEFFFE" transform="matrix(1.00, 0.00, -0.00, -1.00, 765.4, 512.5)">s</text><text xml:space="preserve" font-family="Chalkduster,Chalkduster" font-size="42.0" fill="#FEFFFE" transform="matrix(1.00, 0.00, -0.00, -1.00, 786.6, 512.5)">o</text><text xml:space="preserve" font-family="Chalkduster,Chalkduster" font-size="42.0" fill="#FEFFFE" transform="matrix(1.00, 0.00, -0.00, -1.00, 223.4, 512.5)">i</text><text xml:space="preserve" font-family="Chalkduster,Chalkduster" font-size="42.0" fill="#FEFFFE" transform="matrix(1.00, 0.00, -0.00, -1.00, 240.0, 512.5)">n</text><text xml:space="preserve" font-family="Chalkduster,Chalkduster" font-size="42.0" fill="#FEFFFE" transform="matrix(1.00, 0.00, -0.00, -1.00, 270.8, 512.5)">í</text><text xml:space="preserve" font-family="Chalkduster,Chalkduster" font-size="42.0" fill="#FEFFFE" transform="matrix(1.00, 0.00, -0.00, -1.00, 284.8, 512.5)">c</text><text xml:space="preserve" font-family="Chalkduster,Chalkduster" font-size="42.0" fill="#FEFFFE" transform="matrix(1.00, 0.00, -0.00, -1.00, 311.2, 512.5)">i</text><text xml:space="preserve" font-family="Chalkduster,Chalkduster" font-size="42.0" fill="#FEFFFE" transform="matrix(1.00, 0.00, -0.00, -1.00, 327.8, 512.5)">o</text><image xlink:href="../../1720769D-C001-4C46-AD71-4C7F5CD3A382/assets/4DEEB86E8592901A27491E22B30EA716.png" width="78.00" height="72.00" transform="matrix(0.17, 0.00, -0.00, -0.17, 138.4, 269.7)"></image><text xml:space="preserve" font-family="Chalkduster,Chalkduster" font-size="22.0" fill="#FF7777" transform="matrix(1.00, 0.00, -0.00, -1.00, 183.4, 259.1)">i</text><text xml:space="preserve" font-family="Chalkduster,Chalkduster" font-size="22.0" fill="#FF7777" transform="matrix(1.00, 0.00, -0.00, -1.00, 192.1, 259.1)">n</text><text xml:space="preserve" font-family="Chalkduster,Chalkduster" font-size="22.0" fill="#FF7777" transform="matrix(1.00, 0.00, -0.00, -1.00, 208.2, 259.1)">í</text><text xml:space="preserve" font-family="Chalkduster,Chalkduster" font-size="22.0" fill="#FF7777" transform="matrix(1.00, 0.00, -0.00, -1.00, 215.6, 259.1)">c</text><text xml:space="preserve" font-family="Chalkduster,Chalkduster" font-size="22.0" fill="#FF7777" transform="matrix(1.00, 0.00, -0.00, -1.00, 229.4, 259.1)">i</text><text xml:space="preserve" font-family="Chalkduster,Chalkduster" font-size="22.0" fill="#FF7777" transform="matrix(1.00, 0.00, -0.00, -1.00, 238.1, 259.1)">o</text><text xml:space="preserve" font-family="Chalkduster,Chalkduster" font-size="22.0" fill="#FF7777" transform="matrix(1.00, 0.00, -0.00, -1.00, 253.9, 259.1)">:</text><text xml:space="preserve" font-family="Chalkduster,Chalkduster" font-size="22.0" fill="#FEFFFE" transform="matrix(1.00, 0.00, -0.00, -1.00, 272.1, 259.1)">e</text><text xml:space="preserve" font-family="Chalkduster,Chalkduster" font-size="22.0" fill="#FEFFFE" transform="matrix(1.00, 0.00, -0.00, -1.00, 285.0, 259.1)">x</text><text xml:space="preserve" font-family="Chalkduster,Chalkduster" font-size="22.0" fill="#FEFFFE" transform="matrix(1.00, 0.00, -0.00, -1.00, 298.7, 259.1)">e</text><text xml:space="preserve" font-family="Chalkduster,Chalkduster" font-size="22.0" fill="#FEFFFE" transform="matrix(1.00, 0.00, -0.00, -1.00, 312.7, 259.1)">c</text><text xml:space="preserve" font-family="Chalkduster,Chalkduster" font-size="22.0" fill="#FEFFFE" transform="matrix(1.00, 0.00, -0.00, -1.00, 326.5, 259.1)">u</text><text xml:space="preserve" font-family="Chalkduster,Chalkduster" font-size="22.0" fill="#FEFFFE" transform="matrix(1.00, 0.00, -0.00, -1.00, 341.4, 259.1)">t</text><text xml:space="preserve" font-family="Chalkduster,Chalkduster" font-size="22.0" fill="#FEFFFE" transform="matrix(1.00, 0.00, -0.00, -1.00, 351.2, 259.1)">a</text><text xml:space="preserve" font-family="Chalkduster,Chalkduster" font-size="22.0" fill="#FEFFFE" transform="matrix(1.00, 0.00, -0.00, -1.00, 365.7, 259.1)">d</text><text xml:space="preserve" font-family="Chalkduster,Chalkduster" font-size="22.0" fill="#FEFFFE" transform="matrix(1.00, 0.00, -0.00, -1.00, 382.9, 259.1)">o</text><text xml:space="preserve" font-family="Chalkduster,Chalkduster" font-size="22.0" fill="#FEFFFE" transform="matrix(1.00, 0.00, -0.00, -1.00, 409.6, 259.1)">u</text><text xml:space="preserve" font-family="Chalkduster,Chalkduster" font-size="22.0" fill="#FEFFFE" transform="matrix(1.00, 0.00, -0.00, -1.00, 424.3, 259.1)">m</text><text xml:space="preserve" font-family="Chalkduster,Chalkduster" font-size="22.0" fill="#FEFFFE" transform="matrix(1.00, 0.00, -0.00, -1.00, 446.5, 259.1)">a</text><text xml:space="preserve" font-family="Chalkduster,Chalkduster" font-size="22.0" fill="#FEFFFE" transform="matrix(1.00, 0.00, -0.00, -1.00, 472.6, 259.1)">v</text><text xml:space="preserve" font-family="Chalkduster,Chalkduster" font-size="22.0" fill="#FEFFFE" transform="matrix(1.00, 0.00, -0.00, -1.00, 486.2, 259.1)">e</text><text xml:space="preserve" font-family="Chalkduster,Chalkduster" font-size="22.0" fill="#FEFFFE" transform="matrix(1.00, 0.00, -0.00, -1.00, 500.3, 259.1)">z</text><text xml:space="preserve" font-family="Chalkduster,Chalkduster" font-size="22.0" fill="#FEFFFE" transform="matrix(1.00, 0.00, -0.00, -1.00, 525.5, 259.1)">n</text><text xml:space="preserve" font-family="Chalkduster,Chalkduster" font-size="22.0" fill="#FEFFFE" transform="matrix(1.00, 0.00, -0.00, -1.00, 541.2, 259.1)">o</text><text xml:space="preserve" font-family="Chalkduster,Chalkduster" font-size="22.0" fill="#FEFFFE" transform="matrix(1.00, 0.00, -0.00, -1.00, 568.0, 259.1)">c</text><text xml:space="preserve" font-family="Chalkduster,Chalkduster" font-size="22.0" fill="#FEFFFE" transform="matrix(1.00, 0.00, -0.00, -1.00, 581.1, 259.1)">o</text><text xml:space="preserve" font-family="Chalkduster,Chalkduster" font-size="22.0" fill="#FEFFFE" transform="matrix(1.00, 0.00, -0.00, -1.00, 597.6, 259.1)">m</text><text xml:space="preserve" font-family="Chalkduster,Chalkduster" font-size="22.0" fill="#FEFFFE" transform="matrix(1.00, 0.00, -0.00, -1.00, 620.4, 259.1)">e</text><text xml:space="preserve" font-family="Chalkduster,Chalkduster" font-size="22.0" fill="#FEFFFE" transform="matrix(1.00, 0.00, -0.00, -1.00, 634.0, 259.1)">ç</text><text xml:space="preserve" font-family="Chalkduster,Chalkduster" font-size="22.0" fill="#FEFFFE" transform="matrix(1.00, 0.00, -0.00, -1.00, 646.2, 259.1)">o</text><text xml:space="preserve" font-family="Chalkduster,Chalkduster" font-size="22.0" fill="#FEFFFE" transform="matrix(1.00, 0.00, -0.00, -1.00, 672.9, 259.1)">d</text><text xml:space="preserve" font-family="Chalkduster,Chalkduster" font-size="22.0" fill="#FEFFFE" transform="matrix(1.00, 0.00, -0.00, -1.00, 690.1, 259.1)">o</text><text xml:space="preserve" font-family="Chalkduster,Chalkduster" font-size="22.0" fill="#FEFFFE" transform="matrix(1.00, 0.00, -0.00, -1.00, 716.9, 259.1)">l</text><text xml:space="preserve" font-family="Chalkduster,Chalkduster" font-size="22.0" fill="#FEFFFE" transform="matrix(1.00, 0.00, -0.00, -1.00, 726.3, 259.1)">o</text><text xml:space="preserve" font-family="Chalkduster,Chalkduster" font-size="22.0" fill="#FEFFFE" transform="matrix(1.00, 0.00, -0.00, -1.00, 743.0, 259.1)">o</text><text xml:space="preserve" font-family="Chalkduster,Chalkduster" font-size="22.0" fill="#FEFFFE" transform="matrix(1.00, 0.00, -0.00, -1.00, 759.0, 259.1)">p</text><text xml:space="preserve" font-family="Chalkduster,Chalkduster" font-size="22.0" fill="#FEFFFE" transform="matrix(1.00, 0.00, -0.00, -1.00, 771.3, 259.1)">.</text><image xlink:href="../../1720769D-C001-4C46-AD71-4C7F5CD3A382/assets/4DEEB86E8592901A27491E22B30EA716.png" width="78.00" height="72.00" transform="matrix(0.17, 0.00, -0.00, -0.17, 138.4, 235.7)"></image><text xml:space="preserve" font-family="Chalkduster,Chalkduster" font-size="22.0" fill="#FF7777" transform="matrix(1.00, 0.00, -0.00, -1.00, 183.4, 225.1)">c</text><text xml:space="preserve" font-family="Chalkduster,Chalkduster" font-size="22.0" fill="#FF7777" transform="matrix(1.00, 0.00, -0.00, -1.00, 196.6, 225.1)">o</text><text xml:space="preserve" font-family="Chalkduster,Chalkduster" font-size="22.0" fill="#FF7777" transform="matrix(1.00, 0.00, -0.00, -1.00, 212.9, 225.1)">n</text><text xml:space="preserve" font-family="Chalkduster,Chalkduster" font-size="22.0" fill="#FF7777" transform="matrix(1.00, 0.00, -0.00, -1.00, 229.1, 225.1)">d</text><text xml:space="preserve" font-family="Chalkduster,Chalkduster" font-size="22.0" fill="#FF7777" transform="matrix(1.00, 0.00, -0.00, -1.00, 247.1, 225.1)">i</text><text xml:space="preserve" font-family="Chalkduster,Chalkduster" font-size="22.0" fill="#FF7777" transform="matrix(1.00, 0.00, -0.00, -1.00, 255.8, 225.1)">ç</text><text xml:space="preserve" font-family="Chalkduster,Chalkduster" font-size="22.0" fill="#FF7777" transform="matrix(1.00, 0.00, -0.00, -1.00, 268.0, 225.1)">ã</text><text xml:space="preserve" font-family="Chalkduster,Chalkduster" font-size="22.0" fill="#FF7777" transform="matrix(1.00, 0.00, -0.00, -1.00, 282.9, 225.1)">o</text><text xml:space="preserve" font-family="Chalkduster,Chalkduster" font-size="22.0" fill="#FF7777" transform="matrix(1.00, 0.00, -0.00, -1.00, 298.7, 225.1)">:</text><text xml:space="preserve" font-family="Chalkduster,Chalkduster" font-size="22.0" fill="#FEFFFE" transform="matrix(1.00, 0.00, -0.00, -1.00, 316.9, 225.1)">v</text><text xml:space="preserve" font-family="Chalkduster,Chalkduster" font-size="22.0" fill="#FEFFFE" transform="matrix(1.00, 0.00, -0.00, -1.00, 330.4, 225.1)">e</text><text xml:space="preserve" font-family="Chalkduster,Chalkduster" font-size="22.0" fill="#FEFFFE" transform="matrix(1.00, 0.00, -0.00, -1.00, 343.8, 225.1)">r</text><text xml:space="preserve" font-family="Chalkduster,Chalkduster" font-size="22.0" fill="#FEFFFE" transform="matrix(1.00, 0.00, -0.00, -1.00, 356.0, 225.1)">i</text><text xml:space="preserve" font-family="Chalkduster,Chalkduster" font-size="22.0" fill="#FEFFFE" transform="matrix(1.00, 0.00, -0.00, -1.00, 363.6, 225.1)">f</text><text xml:space="preserve" font-family="Chalkduster,Chalkduster" font-size="22.0" fill="#FEFFFE" transform="matrix(1.00, 0.00, -0.00, -1.00, 375.3, 225.1)">i</text><text xml:space="preserve" font-family="Chalkduster,Chalkduster" font-size="22.0" fill="#FEFFFE" transform="matrix(1.00, 0.00, -0.00, -1.00, 384.2, 225.1)">c</text><text xml:space="preserve" font-family="Chalkduster,Chalkduster" font-size="22.0" fill="#FEFFFE" transform="matrix(1.00, 0.00, -0.00, -1.00, 397.2, 225.1)">a</text><text xml:space="preserve" font-family="Chalkduster,Chalkduster" font-size="22.0" fill="#FEFFFE" transform="matrix(1.00, 0.00, -0.00, -1.00, 411.7, 225.1)">d</text><text xml:space="preserve" font-family="Chalkduster,Chalkduster" font-size="22.0" fill="#FEFFFE" transform="matrix(1.00, 0.00, -0.00, -1.00, 428.9, 225.1)">a</text><text xml:space="preserve" font-family="Chalkduster,Chalkduster" font-size="22.0" fill="#FEFFFE" transform="matrix(1.00, 0.00, -0.00, -1.00, 455.0, 225.1)">a</text><text xml:space="preserve" font-family="Chalkduster,Chalkduster" font-size="22.0" fill="#FEFFFE" transform="matrix(1.00, 0.00, -0.00, -1.00, 470.2, 225.1)">n</text><text xml:space="preserve" font-family="Chalkduster,Chalkduster" font-size="22.0" fill="#FEFFFE" transform="matrix(1.00, 0.00, -0.00, -1.00, 485.5, 225.1)">t</text><text xml:space="preserve" font-family="Chalkduster,Chalkduster" font-size="22.0" fill="#FEFFFE" transform="matrix(1.00, 0.00, -0.00, -1.00, 495.3, 225.1)">e</text><text xml:space="preserve" font-family="Chalkduster,Chalkduster" font-size="22.0" fill="#FEFFFE" transform="matrix(1.00, 0.00, -0.00, -1.00, 509.4, 225.1)">s</text><text xml:space="preserve" font-family="Chalkduster,Chalkduster" font-size="22.0" fill="#FEFFFE" transform="matrix(1.00, 0.00, -0.00, -1.00, 531.5, 225.1)">d</text><text xml:space="preserve" font-family="Chalkduster,Chalkduster" font-size="22.0" fill="#FEFFFE" transform="matrix(1.00, 0.00, -0.00, -1.00, 548.7, 225.1)">e</text><text xml:space="preserve" font-family="Chalkduster,Chalkduster" font-size="22.0" fill="#FEFFFE" transform="matrix(1.00, 0.00, -0.00, -1.00, 573.3, 225.1)">c</text><text xml:space="preserve" font-family="Chalkduster,Chalkduster" font-size="22.0" fill="#FEFFFE" transform="matrix(1.00, 0.00, -0.00, -1.00, 586.3, 225.1)">a</text><text xml:space="preserve" font-family="Chalkduster,Chalkduster" font-size="22.0" fill="#FEFFFE" transform="matrix(1.00, 0.00, -0.00, -1.00, 600.7, 225.1)">d</text><text xml:space="preserve" font-family="Chalkduster,Chalkduster" font-size="22.0" fill="#FEFFFE" transform="matrix(1.00, 0.00, -0.00, -1.00, 617.9, 225.1)">a</text><text xml:space="preserve" font-family="Chalkduster,Chalkduster" font-size="22.0" fill="#FEFFFE" transform="matrix(1.00, 0.00, -0.00, -1.00, 644.0, 225.1)">r</text><text xml:space="preserve" font-family="Chalkduster,Chalkduster" font-size="22.0" fill="#FEFFFE" transform="matrix(1.00, 0.00, -0.00, -1.00, 655.2, 225.1)">e</text><text xml:space="preserve" font-family="Chalkduster,Chalkduster" font-size="22.0" fill="#FEFFFE" transform="matrix(1.00, 0.00, -0.00, -1.00, 669.2, 225.1)">p</text><text xml:space="preserve" font-family="Chalkduster,Chalkduster" font-size="22.0" fill="#FEFFFE" transform="matrix(1.00, 0.00, -0.00, -1.00, 683.0, 225.1)">e</text><text xml:space="preserve" font-family="Chalkduster,Chalkduster" font-size="22.0" fill="#FEFFFE" transform="matrix(1.00, 0.00, -0.00, -1.00, 696.4, 225.1)">t</text><text xml:space="preserve" font-family="Chalkduster,Chalkduster" font-size="22.0" fill="#FEFFFE" transform="matrix(1.00, 0.00, -0.00, -1.00, 706.6, 225.1)">i</text><text xml:space="preserve" font-family="Chalkduster,Chalkduster" font-size="22.0" fill="#FEFFFE" transform="matrix(1.00, 0.00, -0.00, -1.00, 715.3, 225.1)">ç</text><text xml:space="preserve" font-family="Chalkduster,Chalkduster" font-size="22.0" fill="#FEFFFE" transform="matrix(1.00, 0.00, -0.00, -1.00, 727.4, 225.1)">ã</text><text xml:space="preserve" font-family="Chalkduster,Chalkduster" font-size="22.0" fill="#FEFFFE" transform="matrix(1.00, 0.00, -0.00, -1.00, 742.3, 225.1)">o</text><text xml:space="preserve" font-family="Chalkduster,Chalkduster" font-size="22.0" fill="#FEFFFE" transform="matrix(1.00, 0.00, -0.00, -1.00, 769.0, 225.1)">d</text><text xml:space="preserve" font-family="Chalkduster,Chalkduster" font-size="22.0" fill="#FEFFFE" transform="matrix(1.00, 0.00, -0.00, -1.00, 786.2, 225.1)">o</text><text xml:space="preserve" font-family="Chalkduster,Chalkduster" font-size="22.0" fill="#FEFFFE" transform="matrix(1.00, 0.00, -0.00, -1.00, 813.0, 225.1)">l</text><text xml:space="preserve" font-family="Chalkduster,Chalkduster" font-size="22.0" fill="#FEFFFE" transform="matrix(1.00, 0.00, -0.00, -1.00, 822.5, 225.1)">o</text><text xml:space="preserve" font-family="Chalkduster,Chalkduster" font-size="22.0" fill="#FEFFFE" transform="matrix(1.00, 0.00, -0.00, -1.00, 839.1, 225.1)">o</text><text xml:space="preserve" font-family="Chalkduster,Chalkduster" font-size="22.0" fill="#FEFFFE" transform="matrix(1.00, 0.00, -0.00, -1.00, 855.1, 225.1)">p</text><text xml:space="preserve" font-family="Chalkduster,Chalkduster" font-size="22.0" fill="#FEFFFE" transform="matrix(1.00, 0.00, -0.00, -1.00, 867.4, 225.1)">.</text><image xlink:href="../../1720769D-C001-4C46-AD71-4C7F5CD3A382/assets/4DEEB86E8592901A27491E22B30EA716.png" width="78.00" height="72.00" transform="matrix(0.17, 0.00, -0.00, -0.17, 138.4, 201.7)"></image><text xml:space="preserve" font-family="Chalkduster,Chalkduster" font-size="22.0" fill="#FF7777" transform="matrix(1.00, 0.00, -0.00, -1.00, 183.4, 191.1)">i</text><text xml:space="preserve" font-family="Chalkduster,Chalkduster" font-size="22.0" fill="#FF7777" transform="matrix(1.00, 0.00, -0.00, -1.00, 192.1, 191.1)">n</text><text xml:space="preserve" font-family="Chalkduster,Chalkduster" font-size="22.0" fill="#FF7777" transform="matrix(1.00, 0.00, -0.00, -1.00, 208.2, 191.1)">s</text><text xml:space="preserve" font-family="Chalkduster,Chalkduster" font-size="22.0" fill="#FF7777" transform="matrix(1.00, 0.00, -0.00, -1.00, 220.0, 191.1)">t</text><text xml:space="preserve" font-family="Chalkduster,Chalkduster" font-size="22.0" fill="#FF7777" transform="matrix(1.00, 0.00, -0.00, -1.00, 230.1, 191.1)">r</text><text xml:space="preserve" font-family="Chalkduster,Chalkduster" font-size="22.0" fill="#FF7777" transform="matrix(1.00, 0.00, -0.00, -1.00, 242.3, 191.1)">u</text><text xml:space="preserve" font-family="Chalkduster,Chalkduster" font-size="22.0" fill="#FF7777" transform="matrix(1.00, 0.00, -0.00, -1.00, 257.4, 191.1)">ç</text><text xml:space="preserve" font-family="Chalkduster,Chalkduster" font-size="22.0" fill="#FF7777" transform="matrix(1.00, 0.00, -0.00, -1.00, 269.5, 191.1)">õ</text><text xml:space="preserve" font-family="Chalkduster,Chalkduster" font-size="22.0" fill="#FF7777" transform="matrix(1.00, 0.00, -0.00, -1.00, 286.5, 191.1)">e</text><text xml:space="preserve" font-family="Chalkduster,Chalkduster" font-size="22.0" fill="#FF7777" transform="matrix(1.00, 0.00, -0.00, -1.00, 300.7, 191.1)">s</text><text xml:space="preserve" font-family="Chalkduster,Chalkduster" font-size="22.0" fill="#FF7777" transform="matrix(1.00, 0.00, -0.00, -1.00, 310.9, 191.1)">:</text><text xml:space="preserve" font-family="Chalkduster,Chalkduster" font-size="22.0" fill="#FEFFFE" transform="matrix(1.00, 0.00, -0.00, -1.00, 329.1, 191.1)">e</text><text xml:space="preserve" font-family="Chalkduster,Chalkduster" font-size="22.0" fill="#FEFFFE" transform="matrix(1.00, 0.00, -0.00, -1.00, 342.1, 191.1)">x</text><text xml:space="preserve" font-family="Chalkduster,Chalkduster" font-size="22.0" fill="#FEFFFE" transform="matrix(1.00, 0.00, -0.00, -1.00, 355.7, 191.1)">e</text><text xml:space="preserve" font-family="Chalkduster,Chalkduster" font-size="22.0" fill="#FEFFFE" transform="matrix(1.00, 0.00, -0.00, -1.00, 369.7, 191.1)">c</text><text xml:space="preserve" font-family="Chalkduster,Chalkduster" font-size="22.0" fill="#FEFFFE" transform="matrix(1.00, 0.00, -0.00, -1.00, 383.5, 191.1)">u</text><text xml:space="preserve" font-family="Chalkduster,Chalkduster" font-size="22.0" fill="#FEFFFE" transform="matrix(1.00, 0.00, -0.00, -1.00, 398.4, 191.1)">t</text><text xml:space="preserve" font-family="Chalkduster,Chalkduster" font-size="22.0" fill="#FEFFFE" transform="matrix(1.00, 0.00, -0.00, -1.00, 408.2, 191.1)">a</text><text xml:space="preserve" font-family="Chalkduster,Chalkduster" font-size="22.0" fill="#FEFFFE" transform="matrix(1.00, 0.00, -0.00, -1.00, 422.7, 191.1)">d</text><text xml:space="preserve" font-family="Chalkduster,Chalkduster" font-size="22.0" fill="#FEFFFE" transform="matrix(1.00, 0.00, -0.00, -1.00, 439.9, 191.1)">a</text><text xml:space="preserve" font-family="Chalkduster,Chalkduster" font-size="22.0" fill="#FEFFFE" transform="matrix(1.00, 0.00, -0.00, -1.00, 455.3, 191.1)">s</text><text xml:space="preserve" font-family="Chalkduster,Chalkduster" font-size="22.0" fill="#FEFFFE" transform="matrix(1.00, 0.00, -0.00, -1.00, 477.4, 191.1)">s</text><text xml:space="preserve" font-family="Chalkduster,Chalkduster" font-size="22.0" fill="#FEFFFE" transform="matrix(1.00, 0.00, -0.00, -1.00, 488.5, 191.1)">e</text><text xml:space="preserve" font-family="Chalkduster,Chalkduster" font-size="22.0" fill="#FEFFFE" transform="matrix(1.00, 0.00, -0.00, -1.00, 513.1, 191.1)">a</text><text xml:space="preserve" font-family="Chalkduster,Chalkduster" font-size="22.0" fill="#FEFFFE" transform="matrix(1.00, 0.00, -0.00, -1.00, 539.2, 191.1)">c</text><text xml:space="preserve" font-family="Chalkduster,Chalkduster" font-size="22.0" fill="#FEFFFE" transform="matrix(1.00, 0.00, -0.00, -1.00, 552.3, 191.1)">o</text><text xml:space="preserve" font-family="Chalkduster,Chalkduster" font-size="22.0" fill="#FEFFFE" transform="matrix(1.00, 0.00, -0.00, -1.00, 568.7, 191.1)">n</text><text xml:space="preserve" font-family="Chalkduster,Chalkduster" font-size="22.0" fill="#FEFFFE" transform="matrix(1.00, 0.00, -0.00, -1.00, 584.8, 191.1)">d</text><text xml:space="preserve" font-family="Chalkduster,Chalkduster" font-size="22.0" fill="#FEFFFE" transform="matrix(1.00, 0.00, -0.00, -1.00, 602.9, 191.1)">i</text><text xml:space="preserve" font-family="Chalkduster,Chalkduster" font-size="22.0" fill="#FEFFFE" transform="matrix(1.00, 0.00, -0.00, -1.00, 611.6, 191.1)">ç</text><text xml:space="preserve" font-family="Chalkduster,Chalkduster" font-size="22.0" fill="#FEFFFE" transform="matrix(1.00, 0.00, -0.00, -1.00, 623.8, 191.1)">ã</text><text xml:space="preserve" font-family="Chalkduster,Chalkduster" font-size="22.0" fill="#FEFFFE" transform="matrix(1.00, 0.00, -0.00, -1.00, 638.7, 191.1)">o</text><text xml:space="preserve" font-family="Chalkduster,Chalkduster" font-size="22.0" fill="#FEFFFE" transform="matrix(1.00, 0.00, -0.00, -1.00, 665.4, 191.1)">f</text><text xml:space="preserve" font-family="Chalkduster,Chalkduster" font-size="22.0" fill="#FEFFFE" transform="matrix(1.00, 0.00, -0.00, -1.00, 676.4, 191.1)">o</text><text xml:space="preserve" font-family="Chalkduster,Chalkduster" font-size="22.0" fill="#FEFFFE" transform="matrix(1.00, 0.00, -0.00, -1.00, 692.4, 191.1)">r</text><text xml:space="preserve" font-family="Chalkduster,Chalkduster" font-size="22.0" fill="#A8C994" transform="matrix(1.00, 0.00, -0.00, -1.00, 715.0, 191.1)">t</text><text xml:space="preserve" font-family="Chalkduster,Chalkduster" font-size="22.0" fill="#A8C994" transform="matrix(1.00, 0.00, -0.00, -1.00, 725.0, 191.1)">r</text><text xml:space="preserve" font-family="Chalkduster,Chalkduster" font-size="22.0" fill="#A8C994" transform="matrix(1.00, 0.00, -0.00, -1.00, 737.2, 191.1)">u</text><text xml:space="preserve" font-family="Chalkduster,Chalkduster" font-size="22.0" fill="#A8C994" transform="matrix(1.00, 0.00, -0.00, -1.00, 752.3, 191.1)">e</text><text xml:space="preserve" font-family="Chalkduster,Chalkduster" font-size="22.0" fill="#FEFFFE" transform="matrix(1.00, 0.00, -0.00, -1.00, 765.2, 191.1)">.</text><image xlink:href="../../1720769D-C001-4C46-AD71-4C7F5CD3A382/assets/4DEEB86E8592901A27491E22B30EA716.png" width="78.00" height="72.00" transform="matrix(0.17, 0.00, -0.00, -0.17, 138.4, 167.7)"></image><text xml:space="preserve" font-family="Chalkduster,Chalkduster" font-size="22.0" fill="#FF7777" transform="matrix(1.00, 0.00, -0.00, -1.00, 183.4, 157.1)">p</text><text xml:space="preserve" font-family="Chalkduster,Chalkduster" font-size="22.0" fill="#FF7777" transform="matrix(1.00, 0.00, -0.00, -1.00, 197.0, 157.1)">a</text><text xml:space="preserve" font-family="Chalkduster,Chalkduster" font-size="22.0" fill="#FF7777" transform="matrix(1.00, 0.00, -0.00, -1.00, 212.4, 157.1)">s</text><text xml:space="preserve" font-family="Chalkduster,Chalkduster" font-size="22.0" fill="#FF7777" transform="matrix(1.00, 0.00, -0.00, -1.00, 223.5, 157.1)">s</text><text xml:space="preserve" font-family="Chalkduster,Chalkduster" font-size="22.0" fill="#FF7777" transform="matrix(1.00, 0.00, -0.00, -1.00, 234.7, 157.1)">o</text><text xml:space="preserve" font-family="Chalkduster,Chalkduster" font-size="22.0" fill="#FF7777" transform="matrix(1.00, 0.00, -0.00, -1.00, 250.5, 157.1)">:</text><text xml:space="preserve" font-family="Chalkduster,Chalkduster" font-size="22.0" fill="#FEFFFE" transform="matrix(1.00, 0.00, -0.00, -1.00, 268.6, 157.1)">e</text><text xml:space="preserve" font-family="Chalkduster,Chalkduster" font-size="22.0" fill="#FEFFFE" transform="matrix(1.00, 0.00, -0.00, -1.00, 281.6, 157.1)">x</text><text xml:space="preserve" font-family="Chalkduster,Chalkduster" font-size="22.0" fill="#FEFFFE" transform="matrix(1.00, 0.00, -0.00, -1.00, 295.2, 157.1)">e</text><text xml:space="preserve" font-family="Chalkduster,Chalkduster" font-size="22.0" fill="#FEFFFE" transform="matrix(1.00, 0.00, -0.00, -1.00, 309.2, 157.1)">c</text><text xml:space="preserve" font-family="Chalkduster,Chalkduster" font-size="22.0" fill="#FEFFFE" transform="matrix(1.00, 0.00, -0.00, -1.00, 323.1, 157.1)">u</text><text xml:space="preserve" font-family="Chalkduster,Chalkduster" font-size="22.0" fill="#FEFFFE" transform="matrix(1.00, 0.00, -0.00, -1.00, 338.0, 157.1)">t</text><text xml:space="preserve" font-family="Chalkduster,Chalkduster" font-size="22.0" fill="#FEFFFE" transform="matrix(1.00, 0.00, -0.00, -1.00, 347.8, 157.1)">a</text><text xml:space="preserve" font-family="Chalkduster,Chalkduster" font-size="22.0" fill="#FEFFFE" transform="matrix(1.00, 0.00, -0.00, -1.00, 362.3, 157.1)">d</text><text xml:space="preserve" font-family="Chalkduster,Chalkduster" font-size="22.0" fill="#FEFFFE" transform="matrix(1.00, 0.00, -0.00, -1.00, 379.4, 157.1)">o</text><text xml:space="preserve" font-family="Chalkduster,Chalkduster" font-size="22.0" fill="#FEFFFE" transform="matrix(1.00, 0.00, -0.00, -1.00, 406.2, 157.1)">t</text><text xml:space="preserve" font-family="Chalkduster,Chalkduster" font-size="22.0" fill="#FEFFFE" transform="matrix(1.00, 0.00, -0.00, -1.00, 415.2, 157.1)">o</text><text xml:space="preserve" font-family="Chalkduster,Chalkduster" font-size="22.0" fill="#FEFFFE" transform="matrix(1.00, 0.00, -0.00, -1.00, 432.1, 157.1)">d</text><text xml:space="preserve" font-family="Chalkduster,Chalkduster" font-size="22.0" fill="#FEFFFE" transform="matrix(1.00, 0.00, -0.00, -1.00, 449.3, 157.1)">a</text><text xml:space="preserve" font-family="Chalkduster,Chalkduster" font-size="22.0" fill="#FEFFFE" transform="matrix(1.00, 0.00, -0.00, -1.00, 464.8, 157.1)">s</text><text xml:space="preserve" font-family="Chalkduster,Chalkduster" font-size="22.0" fill="#FEFFFE" transform="matrix(1.00, 0.00, -0.00, -1.00, 486.8, 157.1)">a</text><text xml:space="preserve" font-family="Chalkduster,Chalkduster" font-size="22.0" fill="#FEFFFE" transform="matrix(1.00, 0.00, -0.00, -1.00, 502.3, 157.1)">s</text><text xml:space="preserve" font-family="Chalkduster,Chalkduster" font-size="22.0" fill="#FEFFFE" transform="matrix(1.00, 0.00, -0.00, -1.00, 524.3, 157.1)">v</text><text xml:space="preserve" font-family="Chalkduster,Chalkduster" font-size="22.0" fill="#FEFFFE" transform="matrix(1.00, 0.00, -0.00, -1.00, 537.8, 157.1)">e</text><text xml:space="preserve" font-family="Chalkduster,Chalkduster" font-size="22.0" fill="#FEFFFE" transform="matrix(1.00, 0.00, -0.00, -1.00, 552.0, 157.1)">z</text><text xml:space="preserve" font-family="Chalkduster,Chalkduster" font-size="22.0" fill="#FEFFFE" transform="matrix(1.00, 0.00, -0.00, -1.00, 565.2, 157.1)">e</text><text xml:space="preserve" font-family="Chalkduster,Chalkduster" font-size="22.0" fill="#FEFFFE" transform="matrix(1.00, 0.00, -0.00, -1.00, 579.4, 157.1)">s</text><text xml:space="preserve" font-family="Chalkduster,Chalkduster" font-size="22.0" fill="#FEFFFE" transform="matrix(1.00, 0.00, -0.00, -1.00, 601.4, 157.1)">d</text><text xml:space="preserve" font-family="Chalkduster,Chalkduster" font-size="22.0" fill="#FEFFFE" transform="matrix(1.00, 0.00, -0.00, -1.00, 618.6, 157.1)">e</text><text xml:space="preserve" font-family="Chalkduster,Chalkduster" font-size="22.0" fill="#FEFFFE" transform="matrix(1.00, 0.00, -0.00, -1.00, 632.6, 157.1)">p</text><text xml:space="preserve" font-family="Chalkduster,Chalkduster" font-size="22.0" fill="#FEFFFE" transform="matrix(1.00, 0.00, -0.00, -1.00, 646.5, 157.1)">o</text><text xml:space="preserve" font-family="Chalkduster,Chalkduster" font-size="22.0" fill="#FEFFFE" transform="matrix(1.00, 0.00, -0.00, -1.00, 663.0, 157.1)">i</text><text xml:space="preserve" font-family="Chalkduster,Chalkduster" font-size="22.0" fill="#FEFFFE" transform="matrix(1.00, 0.00, -0.00, -1.00, 671.7, 157.1)">s</text><text xml:space="preserve" font-family="Chalkduster,Chalkduster" font-size="22.0" fill="#FEFFFE" transform="matrix(1.00, 0.00, -0.00, -1.00, 693.8, 157.1)">d</text><text xml:space="preserve" font-family="Chalkduster,Chalkduster" font-size="22.0" fill="#FEFFFE" transform="matrix(1.00, 0.00, -0.00, -1.00, 710.9, 157.1)">a</text><text xml:space="preserve" font-family="Chalkduster,Chalkduster" font-size="22.0" fill="#FEFFFE" transform="matrix(1.00, 0.00, -0.00, -1.00, 726.4, 157.1)">s</text><text xml:space="preserve" font-family="Chalkduster,Chalkduster" font-size="22.0" fill="#FEFFFE" transform="matrix(1.00, 0.00, -0.00, -1.00, 748.4, 157.1)">i</text><text xml:space="preserve" font-family="Chalkduster,Chalkduster" font-size="22.0" fill="#FEFFFE" transform="matrix(1.00, 0.00, -0.00, -1.00, 757.1, 157.1)">n</text><text xml:space="preserve" font-family="Chalkduster,Chalkduster" font-size="22.0" fill="#FEFFFE" transform="matrix(1.00, 0.00, -0.00, -1.00, 773.3, 157.1)">s</text><text xml:space="preserve" font-family="Chalkduster,Chalkduster" font-size="22.0" fill="#FEFFFE" transform="matrix(1.00, 0.00, -0.00, -1.00, 785.0, 157.1)">t</text><text xml:space="preserve" font-family="Chalkduster,Chalkduster" font-size="22.0" fill="#FEFFFE" transform="matrix(1.00, 0.00, -0.00, -1.00, 795.1, 157.1)">r</text><text xml:space="preserve" font-family="Chalkduster,Chalkduster" font-size="22.0" fill="#FEFFFE" transform="matrix(1.00, 0.00, -0.00, -1.00, 807.3, 157.1)">u</text><text xml:space="preserve" font-family="Chalkduster,Chalkduster" font-size="22.0" fill="#FEFFFE" transform="matrix(1.00, 0.00, -0.00, -1.00, 822.4, 157.1)">ç</text><text xml:space="preserve" font-family="Chalkduster,Chalkduster" font-size="22.0" fill="#FEFFFE" transform="matrix(1.00, 0.00, -0.00, -1.00, 834.6, 157.1)">õ</text><text xml:space="preserve" font-family="Chalkduster,Chalkduster" font-size="22.0" fill="#FEFFFE" transform="matrix(1.00, 0.00, -0.00, -1.00, 851.5, 157.1)">e</text><text xml:space="preserve" font-family="Chalkduster,Chalkduster" font-size="22.0" fill="#FEFFFE" transform="matrix(1.00, 0.00, -0.00, -1.00, 865.7, 157.1)">s</text><text xml:space="preserve" font-family="Chalkduster,Chalkduster" font-size="22.0" fill="#FEFFFE" transform="matrix(1.00, 0.00, -0.00, -1.00, 876.3, 157.1)">.</text></g></svg>