<?xml version="1.0" encoding="UTF-8" standalone="no"?><svg xmlns="http://www.w3.org/2000/svg" xmlns:xlink="http://www.w3.org/1999/xlink" clip-rule="evenodd" stroke-miterlimit="10" viewBox="0 0 826 45"><desc>SVG generated by Keynote</desc><defs></defs><g transform="matrix(1.00, 0.00, -0.00, -1.00, 0.0, 45.0)"><text xml:space="preserve" font-family="Menlo-Bold,Menlo" font-weight="bold" font-size="42.0" fill="#FF7777" transform="matrix(1.00, 0.00, -0.00, -1.00, -1.2, 11.4)">b</text><text xml:space="preserve" font-family="Menlo-Bold,Menlo" font-weight="bold" font-size="42.0" fill="#FF7777" transform="matrix(1.00, 0.00, -0.00, -1.00, 24.1, 11.4)">o</text><text xml:space="preserve" font-family="Menlo-Bold,Menlo" font-weight="bold" font-size="42.0" fill="#FF7777" transform="matrix(1.00, 0.00, -0.00, -1.00, 49.4, 11.4)">o</text><text xml:space="preserve" font-family="Menlo-Bold,Menlo" font-weight="bold" font-size="42.0" fill="#FF7777" transform="matrix(1.00, 0.00, -0.00, -1.00, 74.6, 11.4)">l</text><text xml:space="preserve" font-family="Menlo-Bold,Menlo" font-weight="bold" font-size="42.0" fill="#FF7777" transform="matrix(1.00, 0.00, -0.00, -1.00, 99.9, 11.4)">e</text><text xml:space="preserve" font-family="Menlo-Bold,Menlo" font-weight="bold" font-size="42.0" fill="#FF7777" transform="matrix(1.00, 0.00, -0.00, -1.00, 125.2, 11.4)">a</text><text xml:space="preserve" font-family="Menlo-Bold,Menlo" font-weight="bold" font-size="42.0" fill="#FF7777" transform="matrix(1.00, 0.00, -0.00, -1.00, 150.5, 11.4)">n</text><text xml:space="preserve" font-family="Menlo-Bold,Menlo" font-weight="bold" font-size="42.0" fill="#FF7777" transform="matrix(1.00, 0.00, -0.00, -1.00, 175.8, 11.4)"> </text><text xml:space="preserve" font-family="Menlo-Bold,Menlo" font-weight="bold" font-size="42.0" fill="#FF7777" transform="matrix(1.00, 0.00, -0.00, -1.00, 201.1, 11.4)">p</text><text xml:space="preserve" font-family="Menlo-Bold,Menlo" font-weight="bold" font-size="42.0" fill="#FF7777" transform="matrix(1.00, 0.00, -0.00, -1.00, 226.4, 11.4)"> </text><text xml:space="preserve" font-family="Menlo-Bold,Menlo" font-weight="bold" font-size="42.0" fill="#FF7777" transform="matrix(1.00, 0.00, -0.00, -1.00, 251.7, 11.4)">=</text><text xml:space="preserve" font-family="Menlo-Bold,Menlo" font-weight="bold" font-size="42.0" fill="#FF7777" transform="matrix(1.00, 0.00, -0.00, -1.00, 277.0, 11.4)"> </text><text xml:space="preserve" font-family="Menlo-Bold,Menlo" font-weight="bold" font-size="42.0" fill="#FF7777" transform="matrix(1.00, 0.00, -0.00, -1.00, 302.3, 11.4)">(</text><text xml:space="preserve" font-family="Menlo-Bold,Menlo" font-weight="bold" font-size="42.0" fill="#FF7777" transform="matrix(1.00, 0.00, -0.00, -1.00, 327.6, 11.4)">x</text><text xml:space="preserve" font-family="Menlo-Bold,Menlo" font-weight="bold" font-size="42.0" fill="#FF7777" transform="matrix(1.00, 0.00, -0.00, -1.00, 352.8, 11.4)"> </text><text xml:space="preserve" font-family="Menlo-Bold,Menlo" font-weight="bold" font-size="42.0" fill="#FF7777" transform="matrix(1.00, 0.00, -0.00, -1.00, 378.1, 11.4)">!</text><text xml:space="preserve" font-family="Menlo-Bold,Menlo" font-weight="bold" font-size="42.0" fill="#FF7777" transform="matrix(1.00, 0.00, -0.00, -1.00, 403.4, 11.4)">=</text><text xml:space="preserve" font-family="Menlo-Bold,Menlo" font-weight="bold" font-size="42.0" fill="#FF7777" transform="matrix(1.00, 0.00, -0.00, -1.00, 428.7, 11.4)"> </text><text xml:space="preserve" font-family="Menlo-Bold,Menlo" font-weight="bold" font-size="42.0" fill="#FF7777" transform="matrix(1.00, 0.00, -0.00, -1.00, 454.0, 11.4)">1</text><text xml:space="preserve" font-family="Menlo-Bold,Menlo" font-weight="bold" font-size="42.0" fill="#FF7777" transform="matrix(1.00, 0.00, -0.00, -1.00, 479.3, 11.4)">)</text><text xml:space="preserve" font-family="Menlo-Bold,Menlo" font-weight="bold" font-size="42.0" fill="#FF7777" transform="matrix(1.00, 0.00, -0.00, -1.00, 504.6, 11.4)"> </text><text xml:space="preserve" font-family="Menlo-Bold,Menlo" font-weight="bold" font-size="42.0" fill="#FF7777" transform="matrix(1.00, 0.00, -0.00, -1.00, 529.9, 11.4)">|</text><text xml:space="preserve" font-family="Menlo-Bold,Menlo" font-weight="bold" font-size="42.0" fill="#FF7777" transform="matrix(1.00, 0.00, -0.00, -1.00, 555.2, 11.4)">|</text><text xml:space="preserve" font-family="Menlo-Bold,Menlo" font-weight="bold" font-size="42.0" fill="#FF7777" transform="matrix(1.00, 0.00, -0.00, -1.00, 580.5, 11.4)"> </text><text xml:space="preserve" font-family="Menlo-Bold,Menlo" font-weight="bold" font-size="42.0" fill="#FF7777" transform="matrix(1.00, 0.00, -0.00, -1.00, 605.7, 11.4)">(</text><text xml:space="preserve" font-family="Menlo-Bold,Menlo" font-weight="bold" font-size="42.0" fill="#FF7777" transform="matrix(1.00, 0.00, -0.00, -1.00, 631.0, 11.4)">x</text><text xml:space="preserve" font-family="Menlo-Bold,Menlo" font-weight="bold" font-size="42.0" fill="#FF7777" transform="matrix(1.00, 0.00, -0.00, -1.00, 656.3, 11.4)"> </text><text xml:space="preserve" font-family="Menlo-Bold,Menlo" font-weight="bold" font-size="42.0" fill="#FF7777" transform="matrix(1.00, 0.00, -0.00, -1.00, 681.6, 11.4)">!</text><text xml:space="preserve" font-family="Menlo-Bold,Menlo" font-weight="bold" font-size="42.0" fill="#FF7777" transform="matrix(1.00, 0.00, -0.00, -1.00, 706.9, 11.4)">=</text><text xml:space="preserve" font-family="Menlo-Bold,Menlo" font-weight="bold" font-size="42.0" fill="#FF7777" transform="matrix(1.00, 0.00, -0.00, -1.00, 732.2, 11.4)"> </text><text xml:space="preserve" font-family="Menlo-Bold,Menlo" font-weight="bold" font-size="42.0" fill="#FF7777" transform="matrix(1.00, 0.00, -0.00, -1.00, 757.5, 11.4)">2</text><text xml:space="preserve" font-family="Menlo-Bold,Menlo" font-weight="bold" font-size="42.0" fill="#FF7777" transform="matrix(1.00, 0.00, -0.00, -1.00, 782.8, 11.4)">)</text><text xml:space="preserve" font-family="Menlo-Bold,Menlo" font-weight="bold" font-size="42.0" fill="#FF7777" transform="matrix(1.00, 0.00, -0.00, -1.00, 808.1, 11.4)">;</text></g></svg>