<?xml version="1.0" encoding="UTF-8" standalone="no"?><svg xmlns="http://www.w3.org/2000/svg" xmlns:xlink="http://www.w3.org/1999/xlink" clip-rule="evenodd" stroke-miterlimit="10" viewBox="0 0 1024 768"><desc>SVG generated by Keynote</desc><defs></defs><g transform="matrix(1.00, 0.00, -0.00, -1.00, 0.0, 768.0)"><g><clipPath id="clip0x6000020b5000"><path d="M 0.0 768.0 L 1024.0 768.0 L 1024.0 0.0 L 0.0 0.0 Z M 0.0 768.0 "></path></clipPath><g clip-path="url(#clip0x6000020b5000)"><image xlink:href="../../2454F38C-308E-4D93-86A7-ACF877EF01F7/assets/D54D7AAA5FD1EC733BC359F041C689F1.jpeg" width="2048.00" height="1536.00" transform="matrix(0.50, 0.00, -0.00, -0.50, 0.0, 768.0)"></image></g></g><text xml:space="preserve" font-family="Chalkduster,Chalkduster" font-size="56.0" fill="#FEFFFE" transform="matrix(1.00, 0.00, -0.00, -1.00, 378.8, 651.6)">E</text><text xml:space="preserve" font-family="Chalkduster,Chalkduster" font-size="56.0" fill="#FEFFFE" transform="matrix(1.00, 0.00, -0.00, -1.00, 420.2, 651.6)">x</text><text xml:space="preserve" font-family="Chalkduster,Chalkduster" font-size="56.0" fill="#FEFFFE" transform="matrix(1.00, 0.00, -0.00, -1.00, 454.9, 651.6)">e</text><text xml:space="preserve" font-family="Chalkduster,Chalkduster" font-size="56.0" fill="#FEFFFE" transform="matrix(1.00, 0.00, -0.00, -1.00, 489.7, 651.6)">m</text><text xml:space="preserve" font-family="Chalkduster,Chalkduster" font-size="56.0" fill="#FEFFFE" transform="matrix(1.00, 0.00, -0.00, -1.00, 546.4, 651.6)">p</text><text xml:space="preserve" font-family="Chalkduster,Chalkduster" font-size="56.0" fill="#FEFFFE" transform="matrix(1.00, 0.00, -0.00, -1.00, 580.9, 651.6)">l</text><text xml:space="preserve" font-family="Chalkduster,Chalkduster" font-size="56.0" fill="#FEFFFE" transform="matrix(1.00, 0.00, -0.00, -1.00, 605.0, 651.6)">o</text><text xml:space="preserve" font-family="Menlo-Bold,Menlo" font-weight="bold" font-size="42.0" fill="#FEFFFE" transform="matrix(1.00, 0.00, -0.00, -1.00, 94.8, 474.7)">b</text><text xml:space="preserve" font-family="Menlo-Bold,Menlo" font-weight="bold" font-size="42.0" fill="#FEFFFE" transform="matrix(1.00, 0.00, -0.00, -1.00, 120.1, 474.7)">o</text><text xml:space="preserve" font-family="Menlo-Bold,Menlo" font-weight="bold" font-size="42.0" fill="#FEFFFE" transform="matrix(1.00, 0.00, -0.00, -1.00, 145.4, 474.7)">o</text><text xml:space="preserve" font-family="Menlo-Bold,Menlo" font-weight="bold" font-size="42.0" fill="#FEFFFE" transform="matrix(1.00, 0.00, -0.00, -1.00, 170.6, 474.7)">l</text><text xml:space="preserve" font-family="Menlo-Bold,Menlo" font-weight="bold" font-size="42.0" fill="#FEFFFE" transform="matrix(1.00, 0.00, -0.00, -1.00, 195.9, 474.7)">e</text><text xml:space="preserve" font-family="Menlo-Bold,Menlo" font-weight="bold" font-size="42.0" fill="#FEFFFE" transform="matrix(1.00, 0.00, -0.00, -1.00, 221.2, 474.7)">a</text><text xml:space="preserve" font-family="Menlo-Bold,Menlo" font-weight="bold" font-size="42.0" fill="#FEFFFE" transform="matrix(1.00, 0.00, -0.00, -1.00, 246.5, 474.7)">n</text><text xml:space="preserve" font-family="Menlo-Bold,Menlo" font-weight="bold" font-size="42.0" fill="#FEFFFE" transform="matrix(1.00, 0.00, -0.00, -1.00, 271.8, 474.7)"> </text><text xml:space="preserve" font-family="Menlo-Bold,Menlo" font-weight="bold" font-size="42.0" fill="#FEFFFE" transform="matrix(1.00, 0.00, -0.00, -1.00, 297.1, 474.7)">p</text><text xml:space="preserve" font-family="Menlo-Bold,Menlo" font-weight="bold" font-size="42.0" fill="#FEFFFE" transform="matrix(1.00, 0.00, -0.00, -1.00, 322.4, 474.7)"> </text><text xml:space="preserve" font-family="Menlo-Bold,Menlo" font-weight="bold" font-size="42.0" fill="#FEFFFE" transform="matrix(1.00, 0.00, -0.00, -1.00, 347.7, 474.7)">=</text><text xml:space="preserve" font-family="Menlo-Bold,Menlo" font-weight="bold" font-size="42.0" fill="#FEFFFE" transform="matrix(1.00, 0.00, -0.00, -1.00, 373.0, 474.7)"> </text><text xml:space="preserve" font-family="Menlo-Bold,Menlo" font-weight="bold" font-size="42.0" fill="#FEFFFE" transform="matrix(1.00, 0.00, -0.00, -1.00, 398.3, 474.7)">(</text><text xml:space="preserve" font-family="Menlo-Bold,Menlo" font-weight="bold" font-size="42.0" fill="#FEFFFE" transform="matrix(1.00, 0.00, -0.00, -1.00, 423.6, 474.7)">x</text><text xml:space="preserve" font-family="Menlo-Bold,Menlo" font-weight="bold" font-size="42.0" fill="#FEFFFE" transform="matrix(1.00, 0.00, -0.00, -1.00, 448.8, 474.7)"> </text><text xml:space="preserve" font-family="Menlo-Bold,Menlo" font-weight="bold" font-size="42.0" fill="#FEFFFE" transform="matrix(1.00, 0.00, -0.00, -1.00, 474.1, 474.7)">!</text><text xml:space="preserve" font-family="Menlo-Bold,Menlo" font-weight="bold" font-size="42.0" fill="#FEFFFE" transform="matrix(1.00, 0.00, -0.00, -1.00, 499.4, 474.7)">=</text><text xml:space="preserve" font-family="Menlo-Bold,Menlo" font-weight="bold" font-size="42.0" fill="#FEFFFE" transform="matrix(1.00, 0.00, -0.00, -1.00, 524.7, 474.7)"> </text><text xml:space="preserve" font-family="Menlo-Bold,Menlo" font-weight="bold" font-size="42.0" fill="#FEFFFE" transform="matrix(1.00, 0.00, -0.00, -1.00, 550.0, 474.7)">1</text><text xml:space="preserve" font-family="Menlo-Bold,Menlo" font-weight="bold" font-size="42.0" fill="#FEFFFE" transform="matrix(1.00, 0.00, -0.00, -1.00, 575.3, 474.7)">)</text><text xml:space="preserve" font-family="Menlo-Bold,Menlo" font-weight="bold" font-size="42.0" fill="#FEFFFE" transform="matrix(1.00, 0.00, -0.00, -1.00, 600.6, 474.7)"> </text><text xml:space="preserve" font-family="Menlo-Bold,Menlo" font-weight="bold" font-size="42.0" fill="#FEFFFE" transform="matrix(1.00, 0.00, -0.00, -1.00, 625.9, 474.7)">|</text><text xml:space="preserve" font-family="Menlo-Bold,Menlo" font-weight="bold" font-size="42.0" fill="#FEFFFE" transform="matrix(1.00, 0.00, -0.00, -1.00, 651.2, 474.7)">|</text><text xml:space="preserve" font-family="Menlo-Bold,Menlo" font-weight="bold" font-size="42.0" fill="#FEFFFE" transform="matrix(1.00, 0.00, -0.00, -1.00, 676.5, 474.7)"> </text><text xml:space="preserve" font-family="Menlo-Bold,Menlo" font-weight="bold" font-size="42.0" fill="#FEFFFE" transform="matrix(1.00, 0.00, -0.00, -1.00, 701.7, 474.7)">(</text><text xml:space="preserve" font-family="Menlo-Bold,Menlo" font-weight="bold" font-size="42.0" fill="#FEFFFE" transform="matrix(1.00, 0.00, -0.00, -1.00, 727.0, 474.7)">x</text><text xml:space="preserve" font-family="Menlo-Bold,Menlo" font-weight="bold" font-size="42.0" fill="#FEFFFE" transform="matrix(1.00, 0.00, -0.00, -1.00, 752.3, 474.7)"> </text><text xml:space="preserve" font-family="Menlo-Bold,Menlo" font-weight="bold" font-size="42.0" fill="#FEFFFE" transform="matrix(1.00, 0.00, -0.00, -1.00, 777.6, 474.7)">!</text><text xml:space="preserve" font-family="Menlo-Bold,Menlo" font-weight="bold" font-size="42.0" fill="#FEFFFE" transform="matrix(1.00, 0.00, -0.00, -1.00, 802.9, 474.7)">=</text><text xml:space="preserve" font-family="Menlo-Bold,Menlo" font-weight="bold" font-size="42.0" fill="#FEFFFE" transform="matrix(1.00, 0.00, -0.00, -1.00, 828.2, 474.7)"> </text><text xml:space="preserve" font-family="Menlo-Bold,Menlo" font-weight="bold" font-size="42.0" fill="#FEFFFE" transform="matrix(1.00, 0.00, -0.00, -1.00, 853.5, 474.7)">2</text><text xml:space="preserve" font-family="Menlo-Bold,Menlo" font-weight="bold" font-size="42.0" fill="#FEFFFE" transform="matrix(1.00, 0.00, -0.00, -1.00, 878.8, 474.7)">)</text><text xml:space="preserve" font-family="Menlo-Bold,Menlo" font-weight="bold" font-size="42.0" fill="#FEFFFE" transform="matrix(1.00, 0.00, -0.00, -1.00, 904.1, 474.7)">;</text><text xml:space="preserve" font-family="Menlo-Bold,Menlo" font-weight="bold" font-size="42.0" fill="#FEFFFE" transform="matrix(1.00, 0.00, -0.00, -1.00, 94.8, 248.9)">b</text><text xml:space="preserve" font-family="Menlo-Bold,Menlo" font-weight="bold" font-size="42.0" fill="#FEFFFE" transform="matrix(1.00, 0.00, -0.00, -1.00, 120.1, 248.9)">o</text><text xml:space="preserve" font-family="Menlo-Bold,Menlo" font-weight="bold" font-size="42.0" fill="#FEFFFE" transform="matrix(1.00, 0.00, -0.00, -1.00, 145.4, 248.9)">o</text><text xml:space="preserve" font-family="Menlo-Bold,Menlo" font-weight="bold" font-size="42.0" fill="#FEFFFE" transform="matrix(1.00, 0.00, -0.00, -1.00, 170.6, 248.9)">l</text><text xml:space="preserve" font-family="Menlo-Bold,Menlo" font-weight="bold" font-size="42.0" fill="#FEFFFE" transform="matrix(1.00, 0.00, -0.00, -1.00, 195.9, 248.9)">e</text><text xml:space="preserve" font-family="Menlo-Bold,Menlo" font-weight="bold" font-size="42.0" fill="#FEFFFE" transform="matrix(1.00, 0.00, -0.00, -1.00, 221.2, 248.9)">a</text><text xml:space="preserve" font-family="Menlo-Bold,Menlo" font-weight="bold" font-size="42.0" fill="#FEFFFE" transform="matrix(1.00, 0.00, -0.00, -1.00, 246.5, 248.9)">n</text><text xml:space="preserve" font-family="Menlo-Bold,Menlo" font-weight="bold" font-size="42.0" fill="#FEFFFE" transform="matrix(1.00, 0.00, -0.00, -1.00, 297.1, 248.9)">p</text><text xml:space="preserve" font-family="Menlo-Bold,Menlo" font-weight="bold" font-size="42.0" fill="#FEFFFE" transform="matrix(1.00, 0.00, -0.00, -1.00, 347.6, 248.9)">=</text><text xml:space="preserve" font-family="Menlo-Bold,Menlo" font-weight="bold" font-size="42.0" fill="#FEFFFE" transform="matrix(1.00, 0.00, -0.00, -1.00, 398.2, 248.9)">(</text><text xml:space="preserve" font-family="Menlo-Bold,Menlo" font-weight="bold" font-size="42.0" fill="#FEFFFE" transform="matrix(1.00, 0.00, -0.00, -1.00, 423.5, 248.9)">x</text><text xml:space="preserve" font-family="Menlo-Bold,Menlo" font-weight="bold" font-size="42.0" fill="#FEFFFE" transform="matrix(1.00, 0.00, -0.00, -1.00, 474.1, 248.9)">!</text><text xml:space="preserve" font-family="Menlo-Bold,Menlo" font-weight="bold" font-size="42.0" fill="#FEFFFE" transform="matrix(1.00, 0.00, -0.00, -1.00, 499.4, 248.9)">=</text><text xml:space="preserve" font-family="Menlo-Bold,Menlo" font-weight="bold" font-size="42.0" fill="#FEFFFE" transform="matrix(1.00, 0.00, -0.00, -1.00, 549.9, 248.9)">1</text><text xml:space="preserve" font-family="Menlo-Bold,Menlo" font-weight="bold" font-size="42.0" fill="#FEFFFE" transform="matrix(1.00, 0.00, -0.00, -1.00, 575.2, 248.9)">)</text><text xml:space="preserve" font-family="Menlo-Bold,Menlo" font-weight="bold" font-size="42.0" fill="#FEFFFE" transform="matrix(1.00, 0.00, -0.00, -1.00, 625.8, 248.9)">&amp;</text><text xml:space="preserve" font-family="Menlo-Bold,Menlo" font-weight="bold" font-size="42.0" fill="#FEFFFE" transform="matrix(1.00, 0.00, -0.00, -1.00, 651.1, 248.9)">&amp;</text><text xml:space="preserve" font-family="Menlo-Bold,Menlo" font-weight="bold" font-size="42.0" fill="#FEFFFE" transform="matrix(1.00, 0.00, -0.00, -1.00, 701.6, 248.9)">(</text><text xml:space="preserve" font-family="Menlo-Bold,Menlo" font-weight="bold" font-size="42.0" fill="#FEFFFE" transform="matrix(1.00, 0.00, -0.00, -1.00, 726.9, 248.9)">x</text><text xml:space="preserve" font-family="Menlo-Bold,Menlo" font-weight="bold" font-size="42.0" fill="#FEFFFE" transform="matrix(1.00, 0.00, -0.00, -1.00, 777.5, 248.9)">!</text><text xml:space="preserve" font-family="Menlo-Bold,Menlo" font-weight="bold" font-size="42.0" fill="#FEFFFE" transform="matrix(1.00, 0.00, -0.00, -1.00, 802.8, 248.9)">=</text><text xml:space="preserve" font-family="Menlo-Bold,Menlo" font-weight="bold" font-size="42.0" fill="#FEFFFE" transform="matrix(1.00, 0.00, -0.00, -1.00, 853.4, 248.9)">2</text><text xml:space="preserve" font-family="Menlo-Bold,Menlo" font-weight="bold" font-size="42.0" fill="#FEFFFE" transform="matrix(1.00, 0.00, -0.00, -1.00, 878.6, 248.9)">)</text><text xml:space="preserve" font-family="Menlo-Bold,Menlo" font-weight="bold" font-size="42.0" fill="#FEFFFE" transform="matrix(1.00, 0.00, -0.00, -1.00, 903.9, 248.9)">;</text><text xml:space="preserve" font-family="Menlo-Bold,Menlo" font-weight="bold" font-size="42.0" fill="#FF7777" transform="matrix(1.00, 0.00, -0.00, -1.00, 94.8, 474.4)">b</text><text xml:space="preserve" font-family="Menlo-Bold,Menlo" font-weight="bold" font-size="42.0" fill="#FF7777" transform="matrix(1.00, 0.00, -0.00, -1.00, 120.1, 474.4)">o</text><text xml:space="preserve" font-family="Menlo-Bold,Menlo" font-weight="bold" font-size="42.0" fill="#FF7777" transform="matrix(1.00, 0.00, -0.00, -1.00, 145.4, 474.4)">o</text><text xml:space="preserve" font-family="Menlo-Bold,Menlo" font-weight="bold" font-size="42.0" fill="#FF7777" transform="matrix(1.00, 0.00, -0.00, -1.00, 170.6, 474.4)">l</text><text xml:space="preserve" font-family="Menlo-Bold,Menlo" font-weight="bold" font-size="42.0" fill="#FF7777" transform="matrix(1.00, 0.00, -0.00, -1.00, 195.9, 474.4)">e</text><text xml:space="preserve" font-family="Menlo-Bold,Menlo" font-weight="bold" font-size="42.0" fill="#FF7777" transform="matrix(1.00, 0.00, -0.00, -1.00, 221.2, 474.4)">a</text><text xml:space="preserve" font-family="Menlo-Bold,Menlo" font-weight="bold" font-size="42.0" fill="#FF7777" transform="matrix(1.00, 0.00, -0.00, -1.00, 246.5, 474.4)">n</text><text xml:space="preserve" font-family="Menlo-Bold,Menlo" font-weight="bold" font-size="42.0" fill="#FF7777" transform="matrix(1.00, 0.00, -0.00, -1.00, 271.8, 474.4)"> </text><text xml:space="preserve" font-family="Menlo-Bold,Menlo" font-weight="bold" font-size="42.0" fill="#FF7777" transform="matrix(1.00, 0.00, -0.00, -1.00, 297.1, 474.4)">p</text><text xml:space="preserve" font-family="Menlo-Bold,Menlo" font-weight="bold" font-size="42.0" fill="#FF7777" transform="matrix(1.00, 0.00, -0.00, -1.00, 322.4, 474.4)"> </text><text xml:space="preserve" font-family="Menlo-Bold,Menlo" font-weight="bold" font-size="42.0" fill="#FF7777" transform="matrix(1.00, 0.00, -0.00, -1.00, 347.7, 474.4)">=</text><text xml:space="preserve" font-family="Menlo-Bold,Menlo" font-weight="bold" font-size="42.0" fill="#FF7777" transform="matrix(1.00, 0.00, -0.00, -1.00, 373.0, 474.4)"> </text><text xml:space="preserve" font-family="Menlo-Bold,Menlo" font-weight="bold" font-size="42.0" fill="#FF7777" transform="matrix(1.00, 0.00, -0.00, -1.00, 398.3, 474.4)">(</text><text xml:space="preserve" font-family="Menlo-Bold,Menlo" font-weight="bold" font-size="42.0" fill="#FF7777" transform="matrix(1.00, 0.00, -0.00, -1.00, 423.6, 474.4)">x</text><text xml:space="preserve" font-family="Menlo-Bold,Menlo" font-weight="bold" font-size="42.0" fill="#FF7777" transform="matrix(1.00, 0.00, -0.00, -1.00, 448.8, 474.4)"> </text><text xml:space="preserve" font-family="Menlo-Bold,Menlo" font-weight="bold" font-size="42.0" fill="#FF7777" transform="matrix(1.00, 0.00, -0.00, -1.00, 474.1, 474.4)">!</text><text xml:space="preserve" font-family="Menlo-Bold,Menlo" font-weight="bold" font-size="42.0" fill="#FF7777" transform="matrix(1.00, 0.00, -0.00, -1.00, 499.4, 474.4)">=</text><text xml:space="preserve" font-family="Menlo-Bold,Menlo" font-weight="bold" font-size="42.0" fill="#FF7777" transform="matrix(1.00, 0.00, -0.00, -1.00, 524.7, 474.4)"> </text><text xml:space="preserve" font-family="Menlo-Bold,Menlo" font-weight="bold" font-size="42.0" fill="#FF7777" transform="matrix(1.00, 0.00, -0.00, -1.00, 550.0, 474.4)">1</text><text xml:space="preserve" font-family="Menlo-Bold,Menlo" font-weight="bold" font-size="42.0" fill="#FF7777" transform="matrix(1.00, 0.00, -0.00, -1.00, 575.3, 474.4)">)</text><text xml:space="preserve" font-family="Menlo-Bold,Menlo" font-weight="bold" font-size="42.0" fill="#FF7777" transform="matrix(1.00, 0.00, -0.00, -1.00, 600.6, 474.4)"> </text><text xml:space="preserve" font-family="Menlo-Bold,Menlo" font-weight="bold" font-size="42.0" fill="#FF7777" transform="matrix(1.00, 0.00, -0.00, -1.00, 625.9, 474.4)">|</text><text xml:space="preserve" font-family="Menlo-Bold,Menlo" font-weight="bold" font-size="42.0" fill="#FF7777" transform="matrix(1.00, 0.00, -0.00, -1.00, 651.2, 474.4)">|</text><text xml:space="preserve" font-family="Menlo-Bold,Menlo" font-weight="bold" font-size="42.0" fill="#FF7777" transform="matrix(1.00, 0.00, -0.00, -1.00, 676.5, 474.4)"> </text><text xml:space="preserve" font-family="Menlo-Bold,Menlo" font-weight="bold" font-size="42.0" fill="#FF7777" transform="matrix(1.00, 0.00, -0.00, -1.00, 701.7, 474.4)">(</text><text xml:space="preserve" font-family="Menlo-Bold,Menlo" font-weight="bold" font-size="42.0" fill="#FF7777" transform="matrix(1.00, 0.00, -0.00, -1.00, 727.0, 474.4)">x</text><text xml:space="preserve" font-family="Menlo-Bold,Menlo" font-weight="bold" font-size="42.0" fill="#FF7777" transform="matrix(1.00, 0.00, -0.00, -1.00, 752.3, 474.4)"> </text><text xml:space="preserve" font-family="Menlo-Bold,Menlo" font-weight="bold" font-size="42.0" fill="#FF7777" transform="matrix(1.00, 0.00, -0.00, -1.00, 777.6, 474.4)">!</text><text xml:space="preserve" font-family="Menlo-Bold,Menlo" font-weight="bold" font-size="42.0" fill="#FF7777" transform="matrix(1.00, 0.00, -0.00, -1.00, 802.9, 474.4)">=</text><text xml:space="preserve" font-family="Menlo-Bold,Menlo" font-weight="bold" font-size="42.0" fill="#FF7777" transform="matrix(1.00, 0.00, -0.00, -1.00, 828.2, 474.4)"> </text><text xml:space="preserve" font-family="Menlo-Bold,Menlo" font-weight="bold" font-size="42.0" fill="#FF7777" transform="matrix(1.00, 0.00, -0.00, -1.00, 853.5, 474.4)">2</text><text xml:space="preserve" font-family="Menlo-Bold,Menlo" font-weight="bold" font-size="42.0" fill="#FF7777" transform="matrix(1.00, 0.00, -0.00, -1.00, 878.8, 474.4)">)</text><text xml:space="preserve" font-family="Menlo-Bold,Menlo" font-weight="bold" font-size="42.0" fill="#FF7777" transform="matrix(1.00, 0.00, -0.00, -1.00, 904.1, 474.4)">;</text><text xml:space="preserve" font-family="Menlo-Bold,Menlo" font-weight="bold" font-size="42.0" fill="#A8E685" transform="matrix(1.00, 0.00, -0.00, -1.00, 94.8, 248.9)">b</text><text xml:space="preserve" font-family="Menlo-Bold,Menlo" font-weight="bold" font-size="42.0" fill="#A8E685" transform="matrix(1.00, 0.00, -0.00, -1.00, 120.1, 248.9)">o</text><text xml:space="preserve" font-family="Menlo-Bold,Menlo" font-weight="bold" font-size="42.0" fill="#A8E685" transform="matrix(1.00, 0.00, -0.00, -1.00, 145.4, 248.9)">o</text><text xml:space="preserve" font-family="Menlo-Bold,Menlo" font-weight="bold" font-size="42.0" fill="#A8E685" transform="matrix(1.00, 0.00, -0.00, -1.00, 170.6, 248.9)">l</text><text xml:space="preserve" font-family="Menlo-Bold,Menlo" font-weight="bold" font-size="42.0" fill="#A8E685" transform="matrix(1.00, 0.00, -0.00, -1.00, 195.9, 248.9)">e</text><text xml:space="preserve" font-family="Menlo-Bold,Menlo" font-weight="bold" font-size="42.0" fill="#A8E685" transform="matrix(1.00, 0.00, -0.00, -1.00, 221.2, 248.9)">a</text><text xml:space="preserve" font-family="Menlo-Bold,Menlo" font-weight="bold" font-size="42.0" fill="#A8E685" transform="matrix(1.00, 0.00, -0.00, -1.00, 246.5, 248.9)">n</text><text xml:space="preserve" font-family="Menlo-Bold,Menlo" font-weight="bold" font-size="42.0" fill="#A8E685" transform="matrix(1.00, 0.00, -0.00, -1.00, 271.8, 248.9)"> </text><text xml:space="preserve" font-family="Menlo-Bold,Menlo" font-weight="bold" font-size="42.0" fill="#A8E685" transform="matrix(1.00, 0.00, -0.00, -1.00, 297.1, 248.9)">p</text><text xml:space="preserve" font-family="Menlo-Bold,Menlo" font-weight="bold" font-size="42.0" fill="#A8E685" transform="matrix(1.00, 0.00, -0.00, -1.00, 322.4, 248.9)"> </text><text xml:space="preserve" font-family="Menlo-Bold,Menlo" font-weight="bold" font-size="42.0" fill="#A8E685" transform="matrix(1.00, 0.00, -0.00, -1.00, 347.7, 248.9)">=</text><text xml:space="preserve" font-family="Menlo-Bold,Menlo" font-weight="bold" font-size="42.0" fill="#A8E685" transform="matrix(1.00, 0.00, -0.00, -1.00, 373.0, 248.9)"> </text><text xml:space="preserve" font-family="Menlo-Bold,Menlo" font-weight="bold" font-size="42.0" fill="#A8E685" transform="matrix(1.00, 0.00, -0.00, -1.00, 398.3, 248.9)">(</text><text xml:space="preserve" font-family="Menlo-Bold,Menlo" font-weight="bold" font-size="42.0" fill="#A8E685" transform="matrix(1.00, 0.00, -0.00, -1.00, 423.6, 248.9)">x</text><text xml:space="preserve" font-family="Menlo-Bold,Menlo" font-weight="bold" font-size="42.0" fill="#A8E685" transform="matrix(1.00, 0.00, -0.00, -1.00, 448.8, 248.9)"> </text><text xml:space="preserve" font-family="Menlo-Bold,Menlo" font-weight="bold" font-size="42.0" fill="#A8E685" transform="matrix(1.00, 0.00, -0.00, -1.00, 474.1, 248.9)">!</text><text xml:space="preserve" font-family="Menlo-Bold,Menlo" font-weight="bold" font-size="42.0" fill="#A8E685" transform="matrix(1.00, 0.00, -0.00, -1.00, 499.4, 248.9)">=</text><text xml:space="preserve" font-family="Menlo-Bold,Menlo" font-weight="bold" font-size="42.0" fill="#A8E685" transform="matrix(1.00, 0.00, -0.00, -1.00, 524.7, 248.9)"> </text><text xml:space="preserve" font-family="Menlo-Bold,Menlo" font-weight="bold" font-size="42.0" fill="#A8E685" transform="matrix(1.00, 0.00, -0.00, -1.00, 550.0, 248.9)">1</text><text xml:space="preserve" font-family="Menlo-Bold,Menlo" font-weight="bold" font-size="42.0" fill="#A8E685" transform="matrix(1.00, 0.00, -0.00, -1.00, 575.3, 248.9)">)</text><text xml:space="preserve" font-family="Menlo-Bold,Menlo" font-weight="bold" font-size="42.0" fill="#A8E685" transform="matrix(1.00, 0.00, -0.00, -1.00, 600.6, 248.9)"> </text><text xml:space="preserve" font-family="Menlo-Bold,Menlo" font-weight="bold" font-size="42.0" fill="#A8E685" transform="matrix(1.00, 0.00, -0.00, -1.00, 625.9, 248.9)">&amp;</text><text xml:space="preserve" font-family="Menlo-Bold,Menlo" font-weight="bold" font-size="42.0" fill="#A8E685" transform="matrix(1.00, 0.00, -0.00, -1.00, 651.2, 248.9)">&amp;</text><text xml:space="preserve" font-family="Menlo-Bold,Menlo" font-weight="bold" font-size="42.0" fill="#A8E685" transform="matrix(1.00, 0.00, -0.00, -1.00, 676.5, 248.9)"> </text><text xml:space="preserve" font-family="Menlo-Bold,Menlo" font-weight="bold" font-size="42.0" fill="#A8E685" transform="matrix(1.00, 0.00, -0.00, -1.00, 701.7, 248.9)">(</text><text xml:space="preserve" font-family="Menlo-Bold,Menlo" font-weight="bold" font-size="42.0" fill="#A8E685" transform="matrix(1.00, 0.00, -0.00, -1.00, 727.0, 248.9)">x</text><text xml:space="preserve" font-family="Menlo-Bold,Menlo" font-weight="bold" font-size="42.0" fill="#A8E685" transform="matrix(1.00, 0.00, -0.00, -1.00, 752.3, 248.9)"> </text><text xml:space="preserve" font-family="Menlo-Bold,Menlo" font-weight="bold" font-size="42.0" fill="#A8E685" transform="matrix(1.00, 0.00, -0.00, -1.00, 777.6, 248.9)">!</text><text xml:space="preserve" font-family="Menlo-Bold,Menlo" font-weight="bold" font-size="42.0" fill="#A8E685" transform="matrix(1.00, 0.00, -0.00, -1.00, 802.9, 248.9)">=</text><text xml:space="preserve" font-family="Menlo-Bold,Menlo" font-weight="bold" font-size="42.0" fill="#A8E685" transform="matrix(1.00, 0.00, -0.00, -1.00, 828.2, 248.9)"> </text><text xml:space="preserve" font-family="Menlo-Bold,Menlo" font-weight="bold" font-size="42.0" fill="#A8E685" transform="matrix(1.00, 0.00, -0.00, -1.00, 853.5, 248.9)">2</text><text xml:space="preserve" font-family="Menlo-Bold,Menlo" font-weight="bold" font-size="42.0" fill="#A8E685" transform="matrix(1.00, 0.00, -0.00, -1.00, 878.8, 248.9)">)</text><text xml:space="preserve" font-family="Menlo-Bold,Menlo" font-weight="bold" font-size="42.0" fill="#A8E685" transform="matrix(1.00, 0.00, -0.00, -1.00, 904.1, 248.9)">;</text></g></svg>