<?xml version="1.0" encoding="UTF-8" standalone="no"?><svg xmlns="http://www.w3.org/2000/svg" xmlns:xlink="http://www.w3.org/1999/xlink" clip-rule="evenodd" stroke-miterlimit="10" viewBox="0 0 832 54"><desc>SVG generated by Keynote</desc><defs></defs><g transform="matrix(1.00, 0.00, -0.00, -1.00, 0.0, 54.0)"><g><clipPath id="clip0x608001ab91a0"><path d="M 1.4 53.0 L 237.8 53.0 L 237.8 1.3 L 1.4 1.3 Z M 1.4 53.0 "></path></clipPath><g clip-path="url(#clip0x608001ab91a0)"><path d="M 1.9 52.5 L 237.3 52.5 L 237.3 1.8 L 1.9 1.8 Z M 1.9 52.5 " fill="#000000" fill-opacity="0.25"></path><path d="M 237.3 52.5 L 830.1 52.5 L 830.1 1.8 L 237.3 1.8 Z M 237.3 52.5 " fill="#000000" fill-opacity="0.25"></path></g></g><image xlink:href="A5C2727E2FF6A1AC9D80B465334E5CAC.png" width="35.00" height="36.00" transform="matrix(1.00, 0.00, -0.00, -1.00, 105.0, 43.0)"></image><g><clipPath id="clip0x600001abe480"><path d="M 1.4 53.0 L 237.8 53.0 L 237.8 1.3 L 1.4 1.3 Z M 1.4 53.0 "></path></clipPath><g clip-path="url(#clip0x600001abe480)"><g><clipPath id="clip0x600001abe180"><path d="M 2.4 2.3 L 236.8 2.3 L 236.8 52.0 L 2.4 52.0 Z M 2.4 2.3 "></path></clipPath><g clip-path="url(#clip0x600001abe180)"><text xml:space="preserve" font-family="Menlo-Bold,Menlo" font-weight="bold" font-size="26.0" fill="#FEFFFE" transform="matrix(1.00, 0.00, -0.00, -1.00, 103.9, 18.1)">!</text><text xml:space="preserve" font-family="Menlo-Bold,Menlo" font-weight="bold" font-size="26.0" fill="#FEFFFE" transform="matrix(1.00, 0.00, -0.00, -1.00, 119.6, 18.1)">p</text></g></g></g></g><g><clipPath id="clip0x600001abde80"><path d="M 1.4 53.0 L 237.8 53.0 L 237.8 1.3 L 1.4 1.3 Z M 1.4 53.0 "></path></clipPath><g clip-path="url(#clip0x600001abde80)"><path d="M 237.4 2.0 L 237.4 154.0 " fill="none" stroke="#FEFFFE" stroke-opacity="0.50" stroke-width="1.00" transform="matrix(1.00, 0.00, 0.00, -1.00, -0.1, 105.1)"></path><path d="M 1.5 52.7 L 830.2 52.7 " fill="none" stroke="#FEFFFE" stroke-opacity="0.50" stroke-width="1.00" transform="matrix(1.00, 0.00, 0.00, -1.00, -0.1, 105.1)"></path><path d="M 1.5 103.3 L 830.2 103.3 " fill="none" stroke="#FEFFFE" stroke-opacity="0.50" stroke-width="1.00" transform="matrix(1.00, 0.00, 0.00, -1.00, -0.1, 105.1)"></path><path d="M 2.0 154.0 L 830.2 154.0 " fill="none" stroke="#FEFFFE" stroke-opacity="0.50" stroke-width="1.00" transform="matrix(1.00, 0.00, 0.00, -1.00, -0.1, 105.1)"></path><path d="M 2.0 2.0 L 2.0 154.0 " fill="none" stroke="#FEFFFE" stroke-opacity="0.50" stroke-width="1.00" transform="matrix(1.00, 0.00, 0.00, -1.00, -0.1, 105.1)"></path><path d="M 830.2 2.0 L 830.2 154.0 " fill="none" stroke="#FEFFFE" stroke-opacity="0.50" stroke-width="1.00" transform="matrix(1.00, 0.00, 0.00, -1.00, -0.1, 105.1)"></path><path d="M 2.0 2.0 L 830.2 2.0 " fill="none" stroke="#FEFFFE" stroke-opacity="0.50" stroke-width="1.00" transform="matrix(1.00, 0.00, 0.00, -1.00, -0.1, 105.1)"></path></g></g><g><clipPath id="clip0x600001abe9c0"><path d="M 236.8 53.0 L 830.6 53.0 L 830.6 1.3 L 236.8 1.3 Z M 236.8 53.0 "></path></clipPath><g clip-path="url(#clip0x600001abe9c0)"><path d="M 1.9 52.5 L 237.3 52.5 L 237.3 1.8 L 1.9 1.8 Z M 1.9 52.5 " fill="#000000" fill-opacity="0.25"></path><path d="M 237.3 52.5 L 830.1 52.5 L 830.1 1.8 L 237.3 1.8 Z M 237.3 52.5 " fill="#000000" fill-opacity="0.25"></path></g></g><image xlink:href="0FC8471A8476EEAC76658AB441F276FE.png" width="39.00" height="26.00" transform="matrix(1.00, 0.00, -0.00, -1.00, 314.0, 35.0)"></image><g><clipPath id="clip0x600001abeba0"><path d="M 236.8 53.0 L 830.6 53.0 L 830.6 1.3 L 236.8 1.3 Z M 236.8 53.0 "></path></clipPath><g clip-path="url(#clip0x600001abeba0)"><g><clipPath id="clip0x600001abef00"><path d="M 237.8 2.3 L 829.6 2.3 L 829.6 52.0 L 237.8 52.0 Z M 237.8 2.3 "></path></clipPath><g clip-path="url(#clip0x600001abef00)"><text xml:space="preserve" font-family="Chalkduster,Chalkduster" font-size="26.0" fill="#FEFFFE" transform="matrix(1.00, 0.00, -0.00, -1.00, 318.2, 15.7)">s</text><text xml:space="preserve" font-family="Chalkduster,Chalkduster" font-size="26.0" fill="#FEFFFE" transform="matrix(1.00, 0.00, -0.00, -1.00, 331.4, 15.7)">e</text><text xml:space="preserve" font-family="Chalkduster,Chalkduster" font-size="26.0" fill="#FEFFFE" transform="matrix(1.00, 0.00, -0.00, -1.00, 347.5, 15.7)"> </text></g></g></g></g><image xlink:href="EDA274752FFA5E2483E2E6217766DE58.png" width="23.00" height="31.00" transform="matrix(1.00, 0.00, -0.00, -1.00, 357.0, 36.0)"></image><g><clipPath id="clip0x600001abf260"><path d="M 236.8 53.0 L 830.6 53.0 L 830.6 1.3 L 236.8 1.3 Z M 236.8 53.0 "></path></clipPath><g clip-path="url(#clip0x600001abf260)"><g><clipPath id="clip0x600001abf440"><path d="M 237.8 2.3 L 829.6 2.3 L 829.6 52.0 L 237.8 52.0 Z M 237.8 2.3 "></path></clipPath><g clip-path="url(#clip0x600001abf440)"><text xml:space="preserve" font-family="Menlo-Bold,Menlo" font-weight="bold" font-size="26.0" fill="#FEFFFE" transform="matrix(1.00, 0.00, -0.00, -1.00, 360.4, 15.7)">p</text></g></g></g></g><image xlink:href="F9D01F7A068D1084CCC185CDD89C6ABE.png" width="26.00" height="36.00" transform="matrix(1.00, 0.00, -0.00, -1.00, 385.0, 45.0)"></image><g><clipPath id="clip0x600001abf560"><path d="M 236.8 53.0 L 830.6 53.0 L 830.6 1.3 L 236.8 1.3 Z M 236.8 53.0 "></path></clipPath><g clip-path="url(#clip0x600001abf560)"><g><clipPath id="clip0x600001abf8c0"><path d="M 237.8 2.3 L 829.6 2.3 L 829.6 52.0 L 237.8 52.0 Z M 237.8 2.3 "></path></clipPath><g clip-path="url(#clip0x600001abf8c0)"><text xml:space="preserve" font-family="Chalkduster,Chalkduster" font-size="26.0" fill="#FEFFFE" transform="matrix(1.00, 0.00, -0.00, -1.00, 376.1, 15.7)"> </text><text xml:space="preserve" font-family="Chalkduster,Chalkduster" font-size="26.0" fill="#FEFFFE" transform="matrix(1.00, 0.00, -0.00, -1.00, 389.0, 15.7)">é</text><text xml:space="preserve" font-family="Chalkduster,Chalkduster" font-size="26.0" fill="#FEFFFE" transform="matrix(1.00, 0.00, -0.00, -1.00, 406.3, 15.7)"> </text></g></g></g></g><image xlink:href="FDAC583B1F171A403673EFD6C6173E7E.png" width="70.00" height="34.00" transform="matrix(1.00, 0.00, -0.00, -1.00, 415.0, 42.0)"></image><g><clipPath id="clip0x600001abfaa0"><path d="M 236.8 53.0 L 830.6 53.0 L 830.6 1.3 L 236.8 1.3 Z M 236.8 53.0 "></path></clipPath><g clip-path="url(#clip0x600001abfaa0)"><g><clipPath id="clip0x600001abfe00"><path d="M 237.8 2.3 L 829.6 2.3 L 829.6 52.0 L 237.8 52.0 Z M 237.8 2.3 "></path></clipPath><g clip-path="url(#clip0x600001abfe00)"><text xml:space="preserve" font-family="Chalkduster,Chalkduster" font-size="26.0" fill="#A8C994" transform="matrix(1.00, 0.00, -0.00, -1.00, 419.2, 15.7)">t</text><text xml:space="preserve" font-family="Chalkduster,Chalkduster" font-size="26.0" fill="#A8C994" transform="matrix(1.00, 0.00, -0.00, -1.00, 431.1, 15.7)">r</text><text xml:space="preserve" font-family="Chalkduster,Chalkduster" font-size="26.0" fill="#A8C994" transform="matrix(1.00, 0.00, -0.00, -1.00, 445.5, 15.7)">u</text><text xml:space="preserve" font-family="Chalkduster,Chalkduster" font-size="26.0" fill="#A8C994" transform="matrix(1.00, 0.00, -0.00, -1.00, 463.4, 15.7)">e</text></g></g></g></g><image xlink:href="C0E7DBBFA42165CFEA90050ADCDE32C3.png" width="113.00" height="40.00" transform="matrix(1.00, 0.00, -0.00, -1.00, 474.0, 44.0)"></image><g><clipPath id="clip0x600001ca0060"><path d="M 236.8 53.0 L 830.6 53.0 L 830.6 1.3 L 236.8 1.3 Z M 236.8 53.0 "></path></clipPath><g clip-path="url(#clip0x600001ca0060)"><g><clipPath id="clip0x600001ca03c0"><path d="M 237.8 2.3 L 829.6 2.3 L 829.6 52.0 L 237.8 52.0 Z M 237.8 2.3 "></path></clipPath><g clip-path="url(#clip0x600001ca03c0)"><text xml:space="preserve" font-family="Chalkduster,Chalkduster" font-size="26.0" fill="#FEFFFE" transform="matrix(1.00, 0.00, -0.00, -1.00, 478.9, 15.7)">,</text><text xml:space="preserve" font-family="Chalkduster,Chalkduster" font-size="26.0" fill="#FEFFFE" transform="matrix(1.00, 0.00, -0.00, -1.00, 487.0, 15.7)"> </text><text xml:space="preserve" font-family="Chalkduster,Chalkduster" font-size="26.0" fill="#FEFFFE" transform="matrix(1.00, 0.00, -0.00, -1.00, 499.9, 15.7)">e</text><text xml:space="preserve" font-family="Chalkduster,Chalkduster" font-size="26.0" fill="#FEFFFE" transform="matrix(1.00, 0.00, -0.00, -1.00, 516.3, 15.7)">n</text><text xml:space="preserve" font-family="Chalkduster,Chalkduster" font-size="26.0" fill="#FEFFFE" transform="matrix(1.00, 0.00, -0.00, -1.00, 534.4, 15.7)">t</text><text xml:space="preserve" font-family="Chalkduster,Chalkduster" font-size="26.0" fill="#FEFFFE" transform="matrix(1.00, 0.00, -0.00, -1.00, 546.3, 15.7)">ã</text><text xml:space="preserve" font-family="Chalkduster,Chalkduster" font-size="26.0" fill="#FEFFFE" transform="matrix(1.00, 0.00, -0.00, -1.00, 563.9, 15.7)">o</text><text xml:space="preserve" font-family="Chalkduster,Chalkduster" font-size="26.0" fill="#FEFFFE" transform="matrix(1.00, 0.00, -0.00, -1.00, 582.6, 15.7)"> </text></g></g></g></g><image xlink:href="A364AAE9176F7C1FFBE3755FD7FA3587.png" width="35.00" height="35.00" transform="matrix(1.00, 0.00, -0.00, -1.00, 596.0, 40.0)"></image><g><clipPath id="clip0x600001ca0780"><path d="M 236.8 53.0 L 830.6 53.0 L 830.6 1.3 L 236.8 1.3 Z M 236.8 53.0 "></path></clipPath><g clip-path="url(#clip0x600001ca0780)"><g><clipPath id="clip0x600001ca0ae0"><path d="M 237.8 2.3 L 829.6 2.3 L 829.6 52.0 L 237.8 52.0 Z M 237.8 2.3 "></path></clipPath><g clip-path="url(#clip0x600001ca0ae0)"><text xml:space="preserve" font-family="Menlo-Bold,Menlo" font-weight="bold" font-size="26.0" fill="#FEFFFE" transform="matrix(1.00, 0.00, -0.00, -1.00, 595.5, 15.7)">!</text><text xml:space="preserve" font-family="Menlo-Bold,Menlo" font-weight="bold" font-size="26.0" fill="#FEFFFE" transform="matrix(1.00, 0.00, -0.00, -1.00, 611.1, 15.7)">p</text></g></g></g></g><image xlink:href="22AA0C56FAA4B75EF249A8C8AD42D0B3.png" width="27.00" height="36.00" transform="matrix(1.00, 0.00, -0.00, -1.00, 635.0, 45.0)"></image><g><clipPath id="clip0x618001abff80"><path d="M 236.8 53.0 L 830.6 53.0 L 830.6 1.3 L 236.8 1.3 Z M 236.8 53.0 "></path></clipPath><g clip-path="url(#clip0x618001abff80)"><g><clipPath id="clip0x618001ca0180"><path d="M 237.8 2.3 L 829.6 2.3 L 829.6 52.0 L 237.8 52.0 Z M 237.8 2.3 "></path></clipPath><g clip-path="url(#clip0x618001ca0180)"><text xml:space="preserve" font-family="Chalkduster,Chalkduster" font-size="26.0" fill="#FEFFFE" transform="matrix(1.00, 0.00, -0.00, -1.00, 626.8, 15.7)"> </text><text xml:space="preserve" font-family="Chalkduster,Chalkduster" font-size="26.0" fill="#FEFFFE" transform="matrix(1.00, 0.00, -0.00, -1.00, 639.7, 15.7)">é</text><text xml:space="preserve" font-family="Chalkduster,Chalkduster" font-size="26.0" fill="#FEFFFE" transform="matrix(1.00, 0.00, -0.00, -1.00, 657.0, 15.7)"> </text></g></g></g></g><image xlink:href="4F30C3FC52414A4C15D925E1281CFF93.png" width="82.00" height="44.00" transform="matrix(1.00, 0.00, -0.00, -1.00, 665.0, 46.0)"></image><g><clipPath id="clip0x600001ca0c60"><path d="M 236.8 53.0 L 830.6 53.0 L 830.6 1.3 L 236.8 1.3 Z M 236.8 53.0 "></path></clipPath><g clip-path="url(#clip0x600001ca0c60)"><g><clipPath id="clip0x600001ca0fc0"><path d="M 237.8 2.3 L 829.6 2.3 L 829.6 52.0 L 237.8 52.0 Z M 237.8 2.3 "></path></clipPath><g clip-path="url(#clip0x600001ca0fc0)"><text xml:space="preserve" font-family="Chalkduster,Chalkduster" font-size="26.0" fill="#A8C994" transform="matrix(1.00, 0.00, -0.00, -1.00, 670.0, 15.7)">f</text><text xml:space="preserve" font-family="Chalkduster,Chalkduster" font-size="26.0" fill="#A8C994" transform="matrix(1.00, 0.00, -0.00, -1.00, 683.0, 15.7)">a</text><text xml:space="preserve" font-family="Chalkduster,Chalkduster" font-size="26.0" fill="#A8C994" transform="matrix(1.00, 0.00, -0.00, -1.00, 699.8, 15.7)">l</text><text xml:space="preserve" font-family="Chalkduster,Chalkduster" font-size="26.0" fill="#A8C994" transform="matrix(1.00, 0.00, -0.00, -1.00, 712.0, 15.7)">s</text><text xml:space="preserve" font-family="Chalkduster,Chalkduster" font-size="26.0" fill="#A8C994" transform="matrix(1.00, 0.00, -0.00, -1.00, 725.2, 15.7)">e</text></g></g></g></g><image xlink:href="CDD2C6A00E1A126CA33C0DD06760DC64.png" width="16.00" height="18.00" transform="matrix(1.00, 0.00, -0.00, -1.00, 737.0, 26.0)"></image><g><clipPath id="clip0x600001ca1260"><path d="M 236.8 53.0 L 830.6 53.0 L 830.6 1.3 L 236.8 1.3 Z M 236.8 53.0 "></path></clipPath><g clip-path="url(#clip0x600001ca1260)"><g><clipPath id="clip0x600001ca15c0"><path d="M 237.8 2.3 L 829.6 2.3 L 829.6 52.0 L 237.8 52.0 Z M 237.8 2.3 "></path></clipPath><g clip-path="url(#clip0x600001ca15c0)"><text xml:space="preserve" font-family="Chalkduster,Chalkduster" font-size="26.0" fill="#FEFFFE" transform="matrix(1.00, 0.00, -0.00, -1.00, 740.4, 15.7)">.</text></g></g></g></g><g><clipPath id="clip0x600001ca1800"><path d="M 236.8 53.0 L 830.6 53.0 L 830.6 1.3 L 236.8 1.3 Z M 236.8 53.0 "></path></clipPath><g clip-path="url(#clip0x600001ca1800)"><path d="M 237.4 2.0 L 237.4 154.0 " fill="none" stroke="#FEFFFE" stroke-opacity="0.50" stroke-width="1.00" transform="matrix(1.00, 0.00, 0.00, -1.00, -0.1, 105.1)"></path><path d="M 2.0 52.7 L 830.7 52.7 " fill="none" stroke="#FEFFFE" stroke-opacity="0.50" stroke-width="1.00" transform="matrix(1.00, 0.00, 0.00, -1.00, -0.1, 105.1)"></path><path d="M 2.0 103.3 L 830.7 103.3 " fill="none" stroke="#FEFFFE" stroke-opacity="0.50" stroke-width="1.00" transform="matrix(1.00, 0.00, 0.00, -1.00, -0.1, 105.1)"></path><path d="M 2.0 154.0 L 830.2 154.0 " fill="none" stroke="#FEFFFE" stroke-opacity="0.50" stroke-width="1.00" transform="matrix(1.00, 0.00, 0.00, -1.00, -0.1, 105.1)"></path><path d="M 2.0 2.0 L 2.0 154.0 " fill="none" stroke="#FEFFFE" stroke-opacity="0.50" stroke-width="1.00" transform="matrix(1.00, 0.00, 0.00, -1.00, -0.1, 105.1)"></path><path d="M 830.2 2.0 L 830.2 154.0 " fill="none" stroke="#FEFFFE" stroke-opacity="0.50" stroke-width="1.00" transform="matrix(1.00, 0.00, 0.00, -1.00, -0.1, 105.1)"></path><path d="M 2.0 2.0 L 830.2 2.0 " fill="none" stroke="#FEFFFE" stroke-opacity="0.50" stroke-width="1.00" transform="matrix(1.00, 0.00, 0.00, -1.00, -0.1, 105.1)"></path></g></g></g></svg>