<?xml version="1.0" encoding="UTF-8" standalone="no"?><svg xmlns="http://www.w3.org/2000/svg" xmlns:xlink="http://www.w3.org/1999/xlink" clip-rule="evenodd" stroke-miterlimit="10" viewBox="0 0 832 409"><desc>SVG generated by Keynote</desc><defs></defs><g transform="matrix(1.00, 0.00, -0.00, -1.00, 0.0, 409.0)"><g><clipPath id="clip0x608001ca5100"><path d="M 1.4 407.6 L 237.8 407.6 L 237.8 356.0 L 1.4 356.0 Z M 1.4 407.6 "></path></clipPath><g clip-path="url(#clip0x608001ca5100)"><path d="M 1.9 356.5 L 237.3 356.5 L 237.3 305.8 L 1.9 305.8 Z M 1.9 356.5 " fill="#000000" fill-opacity="0.25"></path><path d="M 237.3 356.5 L 830.1 356.5 L 830.1 305.8 L 237.3 305.8 Z M 237.3 356.5 " fill="#000000" fill-opacity="0.25"></path></g></g><image xlink:href="../../DAD094F7-E148-471E-B4B2-5EEF99D1DD4D/assets/6D64A1B3D3D4FD7C3DF5E3CB23BF746E.png" width="15.00" height="30.00" transform="matrix(1.00, 0.00, -0.00, -1.00, 112.0, 397.0)"></image><g><clipPath id="clip0x608001ca5400"><path d="M 1.4 407.6 L 237.8 407.6 L 237.8 356.0 L 1.4 356.0 Z M 1.4 407.6 "></path></clipPath><g clip-path="url(#clip0x608001ca5400)"><g><clipPath id="clip0x608001ca5340"><path d="M 2.4 357.0 L 236.8 357.0 L 236.8 406.6 L 2.4 406.6 Z M 2.4 357.0 "></path></clipPath><g clip-path="url(#clip0x608001ca5340)"><text xml:space="preserve" font-family="Menlo-Bold,Menlo" font-weight="bold" font-size="26.0" fill="#FEFFFE" transform="matrix(1.00, 0.00, -0.00, -1.00, 111.8, 372.8)">!</text></g></g></g></g><g><clipPath id="clip0x608001ca4740"><path d="M 1.4 407.6 L 237.8 407.6 L 237.8 356.0 L 1.4 356.0 Z M 1.4 407.6 "></path></clipPath><g clip-path="url(#clip0x608001ca4740)"><path d="M 237.4 1.5 L 237.4 103.3 " fill="none" stroke="#FEFFFE" stroke-opacity="0.50" stroke-width="1.00" transform="matrix(1.00, 0.00, 0.00, -1.00, -0.1, 409.1)"></path><path d="M 1.5 52.7 L 830.2 52.7 " fill="none" stroke="#FEFFFE" stroke-opacity="0.50" stroke-width="1.00" transform="matrix(1.00, 0.00, 0.00, -1.00, -0.1, 409.1)"></path><path d="M 2.0 103.3 L 830.2 103.3 " fill="none" stroke="#FEFFFE" stroke-opacity="0.50" stroke-width="1.00" transform="matrix(1.00, 0.00, 0.00, -1.00, -0.1, 409.1)"></path><path d="M 2.0 1.5 L 2.0 103.3 " fill="none" stroke="#FEFFFE" stroke-opacity="0.50" stroke-width="1.00" transform="matrix(1.00, 0.00, 0.00, -1.00, -0.1, 409.1)"></path><path d="M 830.2 2.0 L 830.2 103.3 " fill="none" stroke="#FEFFFE" stroke-opacity="0.50" stroke-width="1.00" transform="matrix(1.00, 0.00, 0.00, -1.00, -0.1, 409.1)"></path><path d="M 1.5 2.0 L 830.2 2.0 " fill="none" stroke="#FEFFFE" stroke-opacity="0.50" stroke-width="1.00" transform="matrix(1.00, 0.00, 0.00, -1.00, -0.1, 409.1)"></path></g></g><g><clipPath id="clip0x608001ca46e0"><path d="M 236.8 407.6 L 830.6 407.6 L 830.6 356.0 L 236.8 356.0 Z M 236.8 407.6 "></path></clipPath><g clip-path="url(#clip0x608001ca46e0)"><path d="M 1.9 356.5 L 237.3 356.5 L 237.3 305.8 L 1.9 305.8 Z M 1.9 356.5 " fill="#000000" fill-opacity="0.25"></path><path d="M 237.3 356.5 L 830.1 356.5 L 830.1 305.8 L 237.3 305.8 Z M 237.3 356.5 " fill="#000000" fill-opacity="0.25"></path></g></g><image xlink:href="../../DAD094F7-E148-471E-B4B2-5EEF99D1DD4D/assets/0CEB4860CAE32F253ACF3FD4054C147B.png" width="88.00" height="35.00" transform="matrix(1.00, 0.00, -0.00, -1.00, 489.0, 399.0)"></image><g><clipPath id="clip0x608001ca4560"><path d="M 236.8 407.6 L 830.6 407.6 L 830.6 356.0 L 236.8 356.0 Z M 236.8 407.6 "></path></clipPath><g clip-path="url(#clip0x608001ca4560)"><g><clipPath id="clip0x608001ca5760"><path d="M 237.8 357.0 L 829.6 357.0 L 829.6 406.6 L 237.8 406.6 Z M 237.8 357.0 "></path></clipPath><g clip-path="url(#clip0x608001ca5760)"><text xml:space="preserve" font-family="Chalkduster,Chalkduster" font-size="26.0" fill="#FEFFFE" transform="matrix(1.00, 0.00, -0.00, -1.00, 493.7, 370.3)">“</text><text xml:space="preserve" font-family="Chalkduster,Chalkduster" font-size="26.0" fill="#FEFFFE" transform="matrix(1.00, 0.00, -0.00, -1.00, 506.4, 370.3)">n</text><text xml:space="preserve" font-family="Chalkduster,Chalkduster" font-size="26.0" fill="#FEFFFE" transform="matrix(1.00, 0.00, -0.00, -1.00, 525.4, 370.3)">ã</text><text xml:space="preserve" font-family="Chalkduster,Chalkduster" font-size="26.0" fill="#FEFFFE" transform="matrix(1.00, 0.00, -0.00, -1.00, 543.0, 370.3)">o</text><text xml:space="preserve" font-family="Chalkduster,Chalkduster" font-size="26.0" fill="#FEFFFE" transform="matrix(1.00, 0.00, -0.00, -1.00, 560.6, 370.3)">"</text></g></g></g></g><g><clipPath id="clip0x608001ca5b20"><path d="M 236.8 407.6 L 830.6 407.6 L 830.6 356.0 L 236.8 356.0 Z M 236.8 407.6 "></path></clipPath><g clip-path="url(#clip0x608001ca5b20)"><path d="M 237.4 1.5 L 237.4 103.3 " fill="none" stroke="#FEFFFE" stroke-opacity="0.50" stroke-width="1.00" transform="matrix(1.00, 0.00, 0.00, -1.00, -0.1, 409.1)"></path><path d="M 2.0 52.7 L 830.7 52.7 " fill="none" stroke="#FEFFFE" stroke-opacity="0.50" stroke-width="1.00" transform="matrix(1.00, 0.00, 0.00, -1.00, -0.1, 409.1)"></path><path d="M 2.0 103.3 L 830.2 103.3 " fill="none" stroke="#FEFFFE" stroke-opacity="0.50" stroke-width="1.00" transform="matrix(1.00, 0.00, 0.00, -1.00, -0.1, 409.1)"></path><path d="M 2.0 2.0 L 2.0 103.3 " fill="none" stroke="#FEFFFE" stroke-opacity="0.50" stroke-width="1.00" transform="matrix(1.00, 0.00, 0.00, -1.00, -0.1, 409.1)"></path><path d="M 830.2 1.5 L 830.2 103.3 " fill="none" stroke="#FEFFFE" stroke-opacity="0.50" stroke-width="1.00" transform="matrix(1.00, 0.00, 0.00, -1.00, -0.1, 409.1)"></path><path d="M 2.0 2.0 L 830.7 2.0 " fill="none" stroke="#FEFFFE" stroke-opacity="0.50" stroke-width="1.00" transform="matrix(1.00, 0.00, 0.00, -1.00, -0.1, 409.1)"></path></g></g><g><clipPath id="clip0x608001ca6120"><path d="M 1.4 357.0 L 237.8 357.0 L 237.8 305.3 L 1.4 305.3 Z M 1.4 357.0 "></path></clipPath><g clip-path="url(#clip0x608001ca6120)"><path d="M 1.9 356.5 L 237.3 356.5 L 237.3 305.8 L 1.9 305.8 Z M 1.9 356.5 " fill="#000000" fill-opacity="0.25"></path><path d="M 237.3 356.5 L 830.1 356.5 L 830.1 305.8 L 237.3 305.8 Z M 237.3 356.5 " fill="#000000" fill-opacity="0.25"></path></g></g><image xlink:href="../../DAD094F7-E148-471E-B4B2-5EEF99D1DD4D/assets/A5C2727E2FF6A1AC9D80B465334E5CAC.png" width="35.00" height="36.00" transform="matrix(1.00, 0.00, -0.00, -1.00, 105.0, 347.0)"></image><g><clipPath id="clip0x608001ca6300"><path d="M 1.4 357.0 L 237.8 357.0 L 237.8 305.3 L 1.4 305.3 Z M 1.4 357.0 "></path></clipPath><g clip-path="url(#clip0x608001ca6300)"><g><clipPath id="clip0x608001ca6660"><path d="M 2.4 306.3 L 236.8 306.3 L 236.8 356.0 L 2.4 356.0 Z M 2.4 306.3 "></path></clipPath><g clip-path="url(#clip0x608001ca6660)"><text xml:space="preserve" font-family="Menlo-Bold,Menlo" font-weight="bold" font-size="26.0" fill="#FEFFFE" transform="matrix(1.00, 0.00, -0.00, -1.00, 103.9, 322.1)">!</text><text xml:space="preserve" font-family="Menlo-Bold,Menlo" font-weight="bold" font-size="26.0" fill="#FEFFFE" transform="matrix(1.00, 0.00, -0.00, -1.00, 119.6, 322.1)">p</text></g></g></g></g><g><clipPath id="clip0x608001ca6900"><path d="M 1.4 357.0 L 237.8 357.0 L 237.8 305.3 L 1.4 305.3 Z M 1.4 357.0 "></path></clipPath><g clip-path="url(#clip0x608001ca6900)"><path d="M 237.4 2.0 L 237.4 154.0 " fill="none" stroke="#FEFFFE" stroke-opacity="0.50" stroke-width="1.00" transform="matrix(1.00, 0.00, 0.00, -1.00, -0.1, 409.1)"></path><path d="M 1.5 52.7 L 830.2 52.7 " fill="none" stroke="#FEFFFE" stroke-opacity="0.50" stroke-width="1.00" transform="matrix(1.00, 0.00, 0.00, -1.00, -0.1, 409.1)"></path><path d="M 1.5 103.3 L 830.2 103.3 " fill="none" stroke="#FEFFFE" stroke-opacity="0.50" stroke-width="1.00" transform="matrix(1.00, 0.00, 0.00, -1.00, -0.1, 409.1)"></path><path d="M 2.0 154.0 L 830.2 154.0 " fill="none" stroke="#FEFFFE" stroke-opacity="0.50" stroke-width="1.00" transform="matrix(1.00, 0.00, 0.00, -1.00, -0.1, 409.1)"></path><path d="M 2.0 2.0 L 2.0 154.0 " fill="none" stroke="#FEFFFE" stroke-opacity="0.50" stroke-width="1.00" transform="matrix(1.00, 0.00, 0.00, -1.00, -0.1, 409.1)"></path><path d="M 830.2 2.0 L 830.2 154.0 " fill="none" stroke="#FEFFFE" stroke-opacity="0.50" stroke-width="1.00" transform="matrix(1.00, 0.00, 0.00, -1.00, -0.1, 409.1)"></path><path d="M 2.0 2.0 L 830.2 2.0 " fill="none" stroke="#FEFFFE" stroke-opacity="0.50" stroke-width="1.00" transform="matrix(1.00, 0.00, 0.00, -1.00, -0.1, 409.1)"></path></g></g><g><clipPath id="clip0x608001ca6fc0"><path d="M 236.8 357.0 L 830.6 357.0 L 830.6 305.3 L 236.8 305.3 Z M 236.8 357.0 "></path></clipPath><g clip-path="url(#clip0x608001ca6fc0)"><path d="M 1.9 356.5 L 237.3 356.5 L 237.3 305.8 L 1.9 305.8 Z M 1.9 356.5 " fill="#000000" fill-opacity="0.25"></path><path d="M 237.3 356.5 L 830.1 356.5 L 830.1 305.8 L 237.3 305.8 Z M 237.3 356.5 " fill="#000000" fill-opacity="0.25"></path></g></g><image xlink:href="../../DAD094F7-E148-471E-B4B2-5EEF99D1DD4D/assets/0FC8471A8476EEAC76658AB441F276FE.png" width="39.00" height="26.00" transform="matrix(1.00, 0.00, -0.00, -1.00, 314.0, 339.0)"></image><g><clipPath id="clip0x608001ca71a0"><path d="M 236.8 357.0 L 830.6 357.0 L 830.6 305.3 L 236.8 305.3 Z M 236.8 357.0 "></path></clipPath><g clip-path="url(#clip0x608001ca71a0)"><g><clipPath id="clip0x608001ca7500"><path d="M 237.8 306.3 L 829.6 306.3 L 829.6 356.0 L 237.8 356.0 Z M 237.8 306.3 "></path></clipPath><g clip-path="url(#clip0x608001ca7500)"><text xml:space="preserve" font-family="Chalkduster,Chalkduster" font-size="26.0" fill="#FEFFFE" transform="matrix(1.00, 0.00, -0.00, -1.00, 318.2, 319.7)">s</text><text xml:space="preserve" font-family="Chalkduster,Chalkduster" font-size="26.0" fill="#FEFFFE" transform="matrix(1.00, 0.00, -0.00, -1.00, 331.4, 319.7)">e</text><text xml:space="preserve" font-family="Chalkduster,Chalkduster" font-size="26.0" fill="#FEFFFE" transform="matrix(1.00, 0.00, -0.00, -1.00, 347.5, 319.7)"> </text></g></g></g></g><image xlink:href="../../DAD094F7-E148-471E-B4B2-5EEF99D1DD4D/assets/EDA274752FFA5E2483E2E6217766DE58.png" width="23.00" height="31.00" transform="matrix(1.00, 0.00, -0.00, -1.00, 357.0, 340.0)"></image><g><clipPath id="clip0x608001ca7860"><path d="M 236.8 357.0 L 830.6 357.0 L 830.6 305.3 L 236.8 305.3 Z M 236.8 357.0 "></path></clipPath><g clip-path="url(#clip0x608001ca7860)"><g><clipPath id="clip0x608001ca7a40"><path d="M 237.8 306.3 L 829.6 306.3 L 829.6 356.0 L 237.8 356.0 Z M 237.8 306.3 "></path></clipPath><g clip-path="url(#clip0x608001ca7a40)"><text xml:space="preserve" font-family="Menlo-Bold,Menlo" font-weight="bold" font-size="26.0" fill="#FEFFFE" transform="matrix(1.00, 0.00, -0.00, -1.00, 360.4, 319.7)">p</text></g></g></g></g><image xlink:href="../../DAD094F7-E148-471E-B4B2-5EEF99D1DD4D/assets/F9D01F7A068D1084CCC185CDD89C6ABE.png" width="26.00" height="36.00" transform="matrix(1.00, 0.00, -0.00, -1.00, 385.0, 349.0)"></image><g><clipPath id="clip0x608001ca7b60"><path d="M 236.8 357.0 L 830.6 357.0 L 830.6 305.3 L 236.8 305.3 Z M 236.8 357.0 "></path></clipPath><g clip-path="url(#clip0x608001ca7b60)"><g><clipPath id="clip0x608001ca7ec0"><path d="M 237.8 306.3 L 829.6 306.3 L 829.6 356.0 L 237.8 356.0 Z M 237.8 306.3 "></path></clipPath><g clip-path="url(#clip0x608001ca7ec0)"><text xml:space="preserve" font-family="Chalkduster,Chalkduster" font-size="26.0" fill="#FEFFFE" transform="matrix(1.00, 0.00, -0.00, -1.00, 376.1, 319.7)"> </text><text xml:space="preserve" font-family="Chalkduster,Chalkduster" font-size="26.0" fill="#FEFFFE" transform="matrix(1.00, 0.00, -0.00, -1.00, 389.0, 319.7)">é</text><text xml:space="preserve" font-family="Chalkduster,Chalkduster" font-size="26.0" fill="#FEFFFE" transform="matrix(1.00, 0.00, -0.00, -1.00, 406.3, 319.7)"> </text></g></g></g></g><image xlink:href="../../DAD094F7-E148-471E-B4B2-5EEF99D1DD4D/assets/FDAC583B1F171A403673EFD6C6173E7E.png" width="70.00" height="34.00" transform="matrix(1.00, 0.00, -0.00, -1.00, 415.0, 346.0)"></image><g><clipPath id="clip0x608001ca80a0"><path d="M 236.8 357.0 L 830.6 357.0 L 830.6 305.3 L 236.8 305.3 Z M 236.8 357.0 "></path></clipPath><g clip-path="url(#clip0x608001ca80a0)"><g><clipPath id="clip0x608001ca8400"><path d="M 237.8 306.3 L 829.6 306.3 L 829.6 356.0 L 237.8 356.0 Z M 237.8 306.3 "></path></clipPath><g clip-path="url(#clip0x608001ca8400)"><text xml:space="preserve" font-family="Chalkduster,Chalkduster" font-size="26.0" fill="#A8C994" transform="matrix(1.00, 0.00, -0.00, -1.00, 419.2, 319.7)">t</text><text xml:space="preserve" font-family="Chalkduster,Chalkduster" font-size="26.0" fill="#A8C994" transform="matrix(1.00, 0.00, -0.00, -1.00, 431.1, 319.7)">r</text><text xml:space="preserve" font-family="Chalkduster,Chalkduster" font-size="26.0" fill="#A8C994" transform="matrix(1.00, 0.00, -0.00, -1.00, 445.5, 319.7)">u</text><text xml:space="preserve" font-family="Chalkduster,Chalkduster" font-size="26.0" fill="#A8C994" transform="matrix(1.00, 0.00, -0.00, -1.00, 463.4, 319.7)">e</text></g></g></g></g><image xlink:href="../../DAD094F7-E148-471E-B4B2-5EEF99D1DD4D/assets/C0E7DBBFA42165CFEA90050ADCDE32C3.png" width="113.00" height="40.00" transform="matrix(1.00, 0.00, -0.00, -1.00, 474.0, 348.0)"></image><g><clipPath id="clip0x608001ca8640"><path d="M 236.8 357.0 L 830.6 357.0 L 830.6 305.3 L 236.8 305.3 Z M 236.8 357.0 "></path></clipPath><g clip-path="url(#clip0x608001ca8640)"><g><clipPath id="clip0x608001ca89a0"><path d="M 237.8 306.3 L 829.6 306.3 L 829.6 356.0 L 237.8 356.0 Z M 237.8 306.3 "></path></clipPath><g clip-path="url(#clip0x608001ca89a0)"><text xml:space="preserve" font-family="Chalkduster,Chalkduster" font-size="26.0" fill="#FEFFFE" transform="matrix(1.00, 0.00, -0.00, -1.00, 478.9, 319.7)">,</text><text xml:space="preserve" font-family="Chalkduster,Chalkduster" font-size="26.0" fill="#FEFFFE" transform="matrix(1.00, 0.00, -0.00, -1.00, 487.0, 319.7)"> </text><text xml:space="preserve" font-family="Chalkduster,Chalkduster" font-size="26.0" fill="#FEFFFE" transform="matrix(1.00, 0.00, -0.00, -1.00, 499.9, 319.7)">e</text><text xml:space="preserve" font-family="Chalkduster,Chalkduster" font-size="26.0" fill="#FEFFFE" transform="matrix(1.00, 0.00, -0.00, -1.00, 516.3, 319.7)">n</text><text xml:space="preserve" font-family="Chalkduster,Chalkduster" font-size="26.0" fill="#FEFFFE" transform="matrix(1.00, 0.00, -0.00, -1.00, 534.4, 319.7)">t</text><text xml:space="preserve" font-family="Chalkduster,Chalkduster" font-size="26.0" fill="#FEFFFE" transform="matrix(1.00, 0.00, -0.00, -1.00, 546.3, 319.7)">ã</text><text xml:space="preserve" font-family="Chalkduster,Chalkduster" font-size="26.0" fill="#FEFFFE" transform="matrix(1.00, 0.00, -0.00, -1.00, 563.9, 319.7)">o</text><text xml:space="preserve" font-family="Chalkduster,Chalkduster" font-size="26.0" fill="#FEFFFE" transform="matrix(1.00, 0.00, -0.00, -1.00, 582.6, 319.7)"> </text></g></g></g></g><image xlink:href="../../DAD094F7-E148-471E-B4B2-5EEF99D1DD4D/assets/A364AAE9176F7C1FFBE3755FD7FA3587.png" width="35.00" height="35.00" transform="matrix(1.00, 0.00, -0.00, -1.00, 596.0, 344.0)"></image><g><clipPath id="clip0x608001ca8d60"><path d="M 236.8 357.0 L 830.6 357.0 L 830.6 305.3 L 236.8 305.3 Z M 236.8 357.0 "></path></clipPath><g clip-path="url(#clip0x608001ca8d60)"><g><clipPath id="clip0x608001ca90c0"><path d="M 237.8 306.3 L 829.6 306.3 L 829.6 356.0 L 237.8 356.0 Z M 237.8 306.3 "></path></clipPath><g clip-path="url(#clip0x608001ca90c0)"><text xml:space="preserve" font-family="Menlo-Bold,Menlo" font-weight="bold" font-size="26.0" fill="#FEFFFE" transform="matrix(1.00, 0.00, -0.00, -1.00, 595.5, 319.7)">!</text><text xml:space="preserve" font-family="Menlo-Bold,Menlo" font-weight="bold" font-size="26.0" fill="#FEFFFE" transform="matrix(1.00, 0.00, -0.00, -1.00, 611.1, 319.7)">p</text></g></g></g></g><image xlink:href="../../DAD094F7-E148-471E-B4B2-5EEF99D1DD4D/assets/22AA0C56FAA4B75EF249A8C8AD42D0B3.png" width="27.00" height="36.00" transform="matrix(1.00, 0.00, -0.00, -1.00, 635.0, 349.0)"></image><g><clipPath id="clip0x608001ca9240"><path d="M 236.8 357.0 L 830.6 357.0 L 830.6 305.3 L 236.8 305.3 Z M 236.8 357.0 "></path></clipPath><g clip-path="url(#clip0x608001ca9240)"><g><clipPath id="clip0x608001ca95a0"><path d="M 237.8 306.3 L 829.6 306.3 L 829.6 356.0 L 237.8 356.0 Z M 237.8 306.3 "></path></clipPath><g clip-path="url(#clip0x608001ca95a0)"><text xml:space="preserve" font-family="Chalkduster,Chalkduster" font-size="26.0" fill="#FEFFFE" transform="matrix(1.00, 0.00, -0.00, -1.00, 626.8, 319.7)"> </text><text xml:space="preserve" font-family="Chalkduster,Chalkduster" font-size="26.0" fill="#FEFFFE" transform="matrix(1.00, 0.00, -0.00, -1.00, 639.7, 319.7)">é</text><text xml:space="preserve" font-family="Chalkduster,Chalkduster" font-size="26.0" fill="#FEFFFE" transform="matrix(1.00, 0.00, -0.00, -1.00, 657.0, 319.7)"> </text></g></g></g></g><image xlink:href="../../DAD094F7-E148-471E-B4B2-5EEF99D1DD4D/assets/4F30C3FC52414A4C15D925E1281CFF93.png" width="82.00" height="44.00" transform="matrix(1.00, 0.00, -0.00, -1.00, 665.0, 350.0)"></image><g><clipPath id="clip0x608001ca9780"><path d="M 236.8 357.0 L 830.6 357.0 L 830.6 305.3 L 236.8 305.3 Z M 236.8 357.0 "></path></clipPath><g clip-path="url(#clip0x608001ca9780)"><g><clipPath id="clip0x608001ca9ae0"><path d="M 237.8 306.3 L 829.6 306.3 L 829.6 356.0 L 237.8 356.0 Z M 237.8 306.3 "></path></clipPath><g clip-path="url(#clip0x608001ca9ae0)"><text xml:space="preserve" font-family="Chalkduster,Chalkduster" font-size="26.0" fill="#A8C994" transform="matrix(1.00, 0.00, -0.00, -1.00, 670.0, 319.7)">f</text><text xml:space="preserve" font-family="Chalkduster,Chalkduster" font-size="26.0" fill="#A8C994" transform="matrix(1.00, 0.00, -0.00, -1.00, 683.0, 319.7)">a</text><text xml:space="preserve" font-family="Chalkduster,Chalkduster" font-size="26.0" fill="#A8C994" transform="matrix(1.00, 0.00, -0.00, -1.00, 699.8, 319.7)">l</text><text xml:space="preserve" font-family="Chalkduster,Chalkduster" font-size="26.0" fill="#A8C994" transform="matrix(1.00, 0.00, -0.00, -1.00, 712.0, 319.7)">s</text><text xml:space="preserve" font-family="Chalkduster,Chalkduster" font-size="26.0" fill="#A8C994" transform="matrix(1.00, 0.00, -0.00, -1.00, 725.2, 319.7)">e</text></g></g></g></g><image xlink:href="../../DAD094F7-E148-471E-B4B2-5EEF99D1DD4D/assets/CDD2C6A00E1A126CA33C0DD06760DC64.png" width="16.00" height="18.00" transform="matrix(1.00, 0.00, -0.00, -1.00, 737.0, 330.0)"></image><g><clipPath id="clip0x608001ca9d80"><path d="M 236.8 357.0 L 830.6 357.0 L 830.6 305.3 L 236.8 305.3 Z M 236.8 357.0 "></path></clipPath><g clip-path="url(#clip0x608001ca9d80)"><g><clipPath id="clip0x608001caa0e0"><path d="M 237.8 306.3 L 829.6 306.3 L 829.6 356.0 L 237.8 356.0 Z M 237.8 306.3 "></path></clipPath><g clip-path="url(#clip0x608001caa0e0)"><text xml:space="preserve" font-family="Chalkduster,Chalkduster" font-size="26.0" fill="#FEFFFE" transform="matrix(1.00, 0.00, -0.00, -1.00, 740.4, 319.7)">.</text></g></g></g></g><g><clipPath id="clip0x608001caa320"><path d="M 236.8 357.0 L 830.6 357.0 L 830.6 305.3 L 236.8 305.3 Z M 236.8 357.0 "></path></clipPath><g clip-path="url(#clip0x608001caa320)"><path d="M 237.4 2.0 L 237.4 154.0 " fill="none" stroke="#FEFFFE" stroke-opacity="0.50" stroke-width="1.00" transform="matrix(1.00, 0.00, 0.00, -1.00, -0.1, 409.1)"></path><path d="M 2.0 52.7 L 830.7 52.7 " fill="none" stroke="#FEFFFE" stroke-opacity="0.50" stroke-width="1.00" transform="matrix(1.00, 0.00, 0.00, -1.00, -0.1, 409.1)"></path><path d="M 2.0 103.3 L 830.7 103.3 " fill="none" stroke="#FEFFFE" stroke-opacity="0.50" stroke-width="1.00" transform="matrix(1.00, 0.00, 0.00, -1.00, -0.1, 409.1)"></path><path d="M 2.0 154.0 L 830.2 154.0 " fill="none" stroke="#FEFFFE" stroke-opacity="0.50" stroke-width="1.00" transform="matrix(1.00, 0.00, 0.00, -1.00, -0.1, 409.1)"></path><path d="M 2.0 2.0 L 2.0 154.0 " fill="none" stroke="#FEFFFE" stroke-opacity="0.50" stroke-width="1.00" transform="matrix(1.00, 0.00, 0.00, -1.00, -0.1, 409.1)"></path><path d="M 830.2 2.0 L 830.2 154.0 " fill="none" stroke="#FEFFFE" stroke-opacity="0.50" stroke-width="1.00" transform="matrix(1.00, 0.00, 0.00, -1.00, -0.1, 409.1)"></path><path d="M 2.0 2.0 L 830.2 2.0 " fill="none" stroke="#FEFFFE" stroke-opacity="0.50" stroke-width="1.00" transform="matrix(1.00, 0.00, 0.00, -1.00, -0.1, 409.1)"></path></g></g><g><clipPath id="clip0x608001caa9e0"><path d="M 1.4 306.3 L 237.8 306.3 L 237.8 254.6 L 1.4 254.6 Z M 1.4 306.3 "></path></clipPath><g clip-path="url(#clip0x608001caa9e0)"><path d="M 1.9 356.5 L 237.3 356.5 L 237.3 305.8 L 1.9 305.8 Z M 1.9 356.5 " fill="#000000" fill-opacity="0.25"></path><path d="M 237.3 356.5 L 830.1 356.5 L 830.1 305.8 L 237.3 305.8 Z M 237.3 356.5 " fill="#000000" fill-opacity="0.25"></path><path d="M 1.9 255.1 L 237.3 255.1 L 237.3 204.5 L 1.9 204.5 Z M 1.9 255.1 " fill="#000000" fill-opacity="0.25"></path><path d="M 237.3 255.1 L 830.1 255.1 L 830.1 204.5 L 237.3 204.5 Z M 237.3 255.1 " fill="#000000" fill-opacity="0.25"></path></g></g><g><clipPath id="clip0x608001caae60"><path d="M 1.4 306.3 L 237.8 306.3 L 237.8 254.6 L 1.4 254.6 Z M 1.4 306.3 "></path></clipPath><g clip-path="url(#clip0x608001caae60)"><path d="M 237.4 52.7 L 237.4 204.7 " fill="none" stroke="#FEFFFE" stroke-opacity="0.50" stroke-width="1.00" transform="matrix(1.00, 0.00, 0.00, -1.00, -0.1, 409.1)"></path><path d="M 2.0 52.7 L 830.2 52.7 " fill="none" stroke="#FEFFFE" stroke-opacity="0.50" stroke-width="1.00" transform="matrix(1.00, 0.00, 0.00, -1.00, -0.1, 409.1)"></path><path d="M 1.5 103.3 L 830.2 103.3 " fill="none" stroke="#FEFFFE" stroke-opacity="0.50" stroke-width="1.00" transform="matrix(1.00, 0.00, 0.00, -1.00, -0.1, 409.1)"></path><path d="M 1.5 154.0 L 830.2 154.0 " fill="none" stroke="#FEFFFE" stroke-opacity="0.50" stroke-width="1.00" transform="matrix(1.00, 0.00, 0.00, -1.00, -0.1, 409.1)"></path><path d="M 2.0 204.7 L 830.2 204.7 " fill="none" stroke="#FEFFFE" stroke-opacity="0.50" stroke-width="1.00" transform="matrix(1.00, 0.00, 0.00, -1.00, -0.1, 409.1)"></path><path d="M 2.0 52.7 L 2.0 204.7 " fill="none" stroke="#FEFFFE" stroke-opacity="0.50" stroke-width="1.00" transform="matrix(1.00, 0.00, 0.00, -1.00, -0.1, 409.1)"></path><path d="M 830.2 52.7 L 830.2 204.7 " fill="none" stroke="#FEFFFE" stroke-opacity="0.50" stroke-width="1.00" transform="matrix(1.00, 0.00, 0.00, -1.00, -0.1, 409.1)"></path></g></g><g><clipPath id="clip0x608001cab520"><path d="M 236.8 306.3 L 830.6 306.3 L 830.6 254.6 L 236.8 254.6 Z M 236.8 306.3 "></path></clipPath><g clip-path="url(#clip0x608001cab520)"><path d="M 1.9 356.5 L 237.3 356.5 L 237.3 305.8 L 1.9 305.8 Z M 1.9 356.5 " fill="#000000" fill-opacity="0.25"></path><path d="M 237.3 356.5 L 830.1 356.5 L 830.1 305.8 L 237.3 305.8 Z M 237.3 356.5 " fill="#000000" fill-opacity="0.25"></path><path d="M 1.9 255.1 L 237.3 255.1 L 237.3 204.5 L 1.9 204.5 Z M 1.9 255.1 " fill="#000000" fill-opacity="0.25"></path><path d="M 237.3 255.1 L 830.1 255.1 L 830.1 204.5 L 237.3 204.5 Z M 237.3 255.1 " fill="#000000" fill-opacity="0.25"></path></g></g><g><clipPath id="clip0x608001cab9a0"><path d="M 236.8 306.3 L 830.6 306.3 L 830.6 254.6 L 236.8 254.6 Z M 236.8 306.3 "></path></clipPath><g clip-path="url(#clip0x608001cab9a0)"><path d="M 237.4 52.7 L 237.4 204.7 " fill="none" stroke="#FEFFFE" stroke-opacity="0.50" stroke-width="1.00" transform="matrix(1.00, 0.00, 0.00, -1.00, -0.1, 409.1)"></path><path d="M 2.0 52.7 L 830.2 52.7 " fill="none" stroke="#FEFFFE" stroke-opacity="0.50" stroke-width="1.00" transform="matrix(1.00, 0.00, 0.00, -1.00, -0.1, 409.1)"></path><path d="M 2.0 103.3 L 830.7 103.3 " fill="none" stroke="#FEFFFE" stroke-opacity="0.50" stroke-width="1.00" transform="matrix(1.00, 0.00, 0.00, -1.00, -0.1, 409.1)"></path><path d="M 2.0 154.0 L 830.7 154.0 " fill="none" stroke="#FEFFFE" stroke-opacity="0.50" stroke-width="1.00" transform="matrix(1.00, 0.00, 0.00, -1.00, -0.1, 409.1)"></path><path d="M 2.0 204.7 L 830.2 204.7 " fill="none" stroke="#FEFFFE" stroke-opacity="0.50" stroke-width="1.00" transform="matrix(1.00, 0.00, 0.00, -1.00, -0.1, 409.1)"></path><path d="M 2.0 52.7 L 2.0 204.7 " fill="none" stroke="#FEFFFE" stroke-opacity="0.50" stroke-width="1.00" transform="matrix(1.00, 0.00, 0.00, -1.00, -0.1, 409.1)"></path><path d="M 830.2 52.7 L 830.2 204.7 " fill="none" stroke="#FEFFFE" stroke-opacity="0.50" stroke-width="1.00" transform="matrix(1.00, 0.00, 0.00, -1.00, -0.1, 409.1)"></path></g></g><g><clipPath id="clip0x608001cac060"><path d="M 1.4 255.6 L 237.8 255.6 L 237.8 204.0 L 1.4 204.0 Z M 1.4 255.6 "></path></clipPath><g clip-path="url(#clip0x608001cac060)"><path d="M 1.9 255.1 L 237.3 255.1 L 237.3 204.5 L 1.9 204.5 Z M 1.9 255.1 " fill="#000000" fill-opacity="0.25"></path><path d="M 237.3 255.1 L 830.1 255.1 L 830.1 204.5 L 237.3 204.5 Z M 237.3 255.1 " fill="#000000" fill-opacity="0.25"></path></g></g><image xlink:href="../../DAD094F7-E148-471E-B4B2-5EEF99D1DD4D/assets/6B5DAE702C4F17DFBFD07B4BF966CBE9.png" width="42.00" height="31.00" transform="matrix(1.00, 0.00, -0.00, -1.00, 99.0, 246.0)"></image><g><clipPath id="clip0x608001cac240"><path d="M 1.4 255.6 L 237.8 255.6 L 237.8 204.0 L 1.4 204.0 Z M 1.4 255.6 "></path></clipPath><g clip-path="url(#clip0x608001cac240)"><g><clipPath id="clip0x608001cac5a0"><path d="M 2.4 205.0 L 236.8 205.0 L 236.8 254.6 L 2.4 254.6 Z M 2.4 205.0 "></path></clipPath><g clip-path="url(#clip0x608001cac5a0)"><text xml:space="preserve" font-family="Menlo-Bold,Menlo" font-weight="bold" font-size="26.0" fill="#FEFFFE" transform="matrix(1.00, 0.00, -0.00, -1.00, 103.9, 220.8)">&amp;</text><text xml:space="preserve" font-family="Menlo-Bold,Menlo" font-weight="bold" font-size="26.0" fill="#FEFFFE" transform="matrix(1.00, 0.00, -0.00, -1.00, 119.6, 220.8)">&amp;</text></g></g></g></g><g><clipPath id="clip0x608001cac840"><path d="M 1.4 255.6 L 237.8 255.6 L 237.8 204.0 L 1.4 204.0 Z M 1.4 255.6 "></path></clipPath><g clip-path="url(#clip0x608001cac840)"><path d="M 237.4 103.3 L 237.4 255.3 " fill="none" stroke="#FEFFFE" stroke-opacity="0.50" stroke-width="1.00" transform="matrix(1.00, 0.00, 0.00, -1.00, -0.1, 409.1)"></path><path d="M 2.0 103.3 L 830.2 103.3 " fill="none" stroke="#FEFFFE" stroke-opacity="0.50" stroke-width="1.00" transform="matrix(1.00, 0.00, 0.00, -1.00, -0.1, 409.1)"></path><path d="M 1.5 154.0 L 830.2 154.0 " fill="none" stroke="#FEFFFE" stroke-opacity="0.50" stroke-width="1.00" transform="matrix(1.00, 0.00, 0.00, -1.00, -0.1, 409.1)"></path><path d="M 1.5 204.7 L 830.2 204.7 " fill="none" stroke="#FEFFFE" stroke-opacity="0.50" stroke-width="1.00" transform="matrix(1.00, 0.00, 0.00, -1.00, -0.1, 409.1)"></path><path d="M 2.0 255.3 L 830.2 255.3 " fill="none" stroke="#FEFFFE" stroke-opacity="0.50" stroke-width="1.00" transform="matrix(1.00, 0.00, 0.00, -1.00, -0.1, 409.1)"></path><path d="M 2.0 103.3 L 2.0 255.3 " fill="none" stroke="#FEFFFE" stroke-opacity="0.50" stroke-width="1.00" transform="matrix(1.00, 0.00, 0.00, -1.00, -0.1, 409.1)"></path><path d="M 830.2 103.3 L 830.2 255.3 " fill="none" stroke="#FEFFFE" stroke-opacity="0.50" stroke-width="1.00" transform="matrix(1.00, 0.00, 0.00, -1.00, -0.1, 409.1)"></path></g></g><g><clipPath id="clip0x608001cacf00"><path d="M 236.8 255.6 L 830.6 255.6 L 830.6 204.0 L 236.8 204.0 Z M 236.8 255.6 "></path></clipPath><g clip-path="url(#clip0x608001cacf00)"><path d="M 1.9 255.1 L 237.3 255.1 L 237.3 204.5 L 1.9 204.5 Z M 1.9 255.1 " fill="#000000" fill-opacity="0.25"></path><path d="M 237.3 255.1 L 830.1 255.1 L 830.1 204.5 L 237.3 204.5 Z M 237.3 255.1 " fill="#000000" fill-opacity="0.25"></path></g></g><image xlink:href="../../DAD094F7-E148-471E-B4B2-5EEF99D1DD4D/assets/9AD484F59109374B4732CB7A4FBFDC3E.png" width="49.00" height="33.00" transform="matrix(1.00, 0.00, -0.00, -1.00, 509.0, 245.0)"></image><g><clipPath id="clip0x608001cad0e0"><path d="M 236.8 255.6 L 830.6 255.6 L 830.6 204.0 L 236.8 204.0 Z M 236.8 255.6 "></path></clipPath><g clip-path="url(#clip0x608001cad0e0)"><g><clipPath id="clip0x608001cad440"><path d="M 237.8 205.0 L 829.6 205.0 L 829.6 254.6 L 237.8 254.6 Z M 237.8 205.0 "></path></clipPath><g clip-path="url(#clip0x608001cad440)"><text xml:space="preserve" font-family="Chalkduster,Chalkduster" font-size="26.0" fill="#FEFFFE" transform="matrix(1.00, 0.00, -0.00, -1.00, 513.6, 218.3)">“</text><text xml:space="preserve" font-family="Chalkduster,Chalkduster" font-size="26.0" fill="#FEFFFE" transform="matrix(1.00, 0.00, -0.00, -1.00, 526.2, 218.3)">e</text><text xml:space="preserve" font-family="Chalkduster,Chalkduster" font-size="26.0" fill="#FEFFFE" transform="matrix(1.00, 0.00, -0.00, -1.00, 540.8, 218.3)">”</text></g></g></g></g><g><clipPath id="clip0x608001cad740"><path d="M 236.8 255.6 L 830.6 255.6 L 830.6 204.0 L 236.8 204.0 Z M 236.8 255.6 "></path></clipPath><g clip-path="url(#clip0x608001cad740)"><path d="M 237.4 103.3 L 237.4 255.3 " fill="none" stroke="#FEFFFE" stroke-opacity="0.50" stroke-width="1.00" transform="matrix(1.00, 0.00, 0.00, -1.00, -0.1, 409.1)"></path><path d="M 2.0 103.3 L 830.2 103.3 " fill="none" stroke="#FEFFFE" stroke-opacity="0.50" stroke-width="1.00" transform="matrix(1.00, 0.00, 0.00, -1.00, -0.1, 409.1)"></path><path d="M 2.0 154.0 L 830.7 154.0 " fill="none" stroke="#FEFFFE" stroke-opacity="0.50" stroke-width="1.00" transform="matrix(1.00, 0.00, 0.00, -1.00, -0.1, 409.1)"></path><path d="M 2.0 204.7 L 830.7 204.7 " fill="none" stroke="#FEFFFE" stroke-opacity="0.50" stroke-width="1.00" transform="matrix(1.00, 0.00, 0.00, -1.00, -0.1, 409.1)"></path><path d="M 2.0 255.3 L 830.2 255.3 " fill="none" stroke="#FEFFFE" stroke-opacity="0.50" stroke-width="1.00" transform="matrix(1.00, 0.00, 0.00, -1.00, -0.1, 409.1)"></path><path d="M 2.0 103.3 L 2.0 255.3 " fill="none" stroke="#FEFFFE" stroke-opacity="0.50" stroke-width="1.00" transform="matrix(1.00, 0.00, 0.00, -1.00, -0.1, 409.1)"></path><path d="M 830.2 103.3 L 830.2 255.3 " fill="none" stroke="#FEFFFE" stroke-opacity="0.50" stroke-width="1.00" transform="matrix(1.00, 0.00, 0.00, -1.00, -0.1, 409.1)"></path></g></g><g><clipPath id="clip0x608001cade00"><path d="M 1.4 205.0 L 237.8 205.0 L 237.8 153.3 L 1.4 153.3 Z M 1.4 205.0 "></path></clipPath><g clip-path="url(#clip0x608001cade00)"><path d="M 1.9 255.1 L 237.3 255.1 L 237.3 204.5 L 1.9 204.5 Z M 1.9 255.1 " fill="#000000" fill-opacity="0.25"></path><path d="M 237.3 255.1 L 830.1 255.1 L 830.1 204.5 L 237.3 204.5 Z M 237.3 255.1 " fill="#000000" fill-opacity="0.25"></path><path d="M 1.9 153.8 L 237.3 153.8 L 237.3 103.1 L 1.9 103.1 Z M 1.9 153.8 " fill="#000000" fill-opacity="0.25"></path><path d="M 237.3 153.8 L 830.1 153.8 L 830.1 103.1 L 237.3 103.1 Z M 237.3 153.8 " fill="#000000" fill-opacity="0.25"></path></g></g><image xlink:href="../../DAD094F7-E148-471E-B4B2-5EEF99D1DD4D/assets/71EF45D86467FF6F772A737364A519C3.png" width="101.00" height="36.00" transform="matrix(1.00, 0.00, -0.00, -1.00, 69.0, 195.0)"></image><g><clipPath id="clip0x608001cae160"><path d="M 1.4 205.0 L 237.8 205.0 L 237.8 153.3 L 1.4 153.3 Z M 1.4 205.0 "></path></clipPath><g clip-path="url(#clip0x608001cae160)"><g><clipPath id="clip0x608001cae4c0"><path d="M 2.4 154.3 L 236.8 154.3 L 236.8 204.0 L 2.4 204.0 Z M 2.4 154.3 "></path></clipPath><g clip-path="url(#clip0x608001cae4c0)"><text xml:space="preserve" font-family="Menlo-Bold,Menlo" font-weight="bold" font-size="26.0" fill="#FEFFFE" transform="matrix(1.00, 0.00, -0.00, -1.00, 72.6, 170.1)">p</text><text xml:space="preserve" font-family="Menlo-Bold,Menlo" font-weight="bold" font-size="26.0" fill="#FEFFFE" transform="matrix(1.00, 0.00, -0.00, -1.00, 88.3, 170.1)"> </text><text xml:space="preserve" font-family="Menlo-Bold,Menlo" font-weight="bold" font-size="26.0" fill="#FEFFFE" transform="matrix(1.00, 0.00, -0.00, -1.00, 104.0, 170.1)">&amp;</text><text xml:space="preserve" font-family="Menlo-Bold,Menlo" font-weight="bold" font-size="26.0" fill="#FEFFFE" transform="matrix(1.00, 0.00, -0.00, -1.00, 119.6, 170.1)">&amp;</text><text xml:space="preserve" font-family="Menlo-Bold,Menlo" font-weight="bold" font-size="26.0" fill="#FEFFFE" transform="matrix(1.00, 0.00, -0.00, -1.00, 135.3, 170.1)"> </text><text xml:space="preserve" font-family="Menlo-Bold,Menlo" font-weight="bold" font-size="26.0" fill="#FEFFFE" transform="matrix(1.00, 0.00, -0.00, -1.00, 150.9, 170.1)">q</text></g></g></g></g><g><clipPath id="clip0x608001cae8e0"><path d="M 1.4 205.0 L 237.8 205.0 L 237.8 153.3 L 1.4 153.3 Z M 1.4 205.0 "></path></clipPath><g clip-path="url(#clip0x608001cae8e0)"><path d="M 237.4 154.0 L 237.4 306.0 " fill="none" stroke="#FEFFFE" stroke-opacity="0.50" stroke-width="1.00" transform="matrix(1.00, 0.00, 0.00, -1.00, -0.1, 409.1)"></path><path d="M 2.0 154.0 L 830.2 154.0 " fill="none" stroke="#FEFFFE" stroke-opacity="0.50" stroke-width="1.00" transform="matrix(1.00, 0.00, 0.00, -1.00, -0.1, 409.1)"></path><path d="M 1.5 204.7 L 830.2 204.7 " fill="none" stroke="#FEFFFE" stroke-opacity="0.50" stroke-width="1.00" transform="matrix(1.00, 0.00, 0.00, -1.00, -0.1, 409.1)"></path><path d="M 1.5 255.3 L 830.2 255.3 " fill="none" stroke="#FEFFFE" stroke-opacity="0.50" stroke-width="1.00" transform="matrix(1.00, 0.00, 0.00, -1.00, -0.1, 409.1)"></path><path d="M 2.0 306.0 L 830.2 306.0 " fill="none" stroke="#FEFFFE" stroke-opacity="0.50" stroke-width="1.00" transform="matrix(1.00, 0.00, 0.00, -1.00, -0.1, 409.1)"></path><path d="M 2.0 154.0 L 2.0 306.0 " fill="none" stroke="#FEFFFE" stroke-opacity="0.50" stroke-width="1.00" transform="matrix(1.00, 0.00, 0.00, -1.00, -0.1, 409.1)"></path><path d="M 830.2 154.0 L 830.2 306.0 " fill="none" stroke="#FEFFFE" stroke-opacity="0.50" stroke-width="1.00" transform="matrix(1.00, 0.00, 0.00, -1.00, -0.1, 409.1)"></path></g></g><g><clipPath id="clip0x608001caefa0"><path d="M 236.8 205.0 L 830.6 205.0 L 830.6 153.3 L 236.8 153.3 Z M 236.8 205.0 "></path></clipPath><g clip-path="url(#clip0x608001caefa0)"><path d="M 1.9 255.1 L 237.3 255.1 L 237.3 204.5 L 1.9 204.5 Z M 1.9 255.1 " fill="#000000" fill-opacity="0.25"></path><path d="M 237.3 255.1 L 830.1 255.1 L 830.1 204.5 L 237.3 204.5 Z M 237.3 255.1 " fill="#000000" fill-opacity="0.25"></path><path d="M 1.9 153.8 L 237.3 153.8 L 237.3 103.1 L 1.9 103.1 Z M 1.9 153.8 " fill="#000000" fill-opacity="0.25"></path><path d="M 237.3 153.8 L 830.1 153.8 L 830.1 103.1 L 237.3 103.1 Z M 237.3 153.8 " fill="#000000" fill-opacity="0.25"></path></g></g><image xlink:href="../../DAD094F7-E148-471E-B4B2-5EEF99D1DD4D/assets/482F133F67C4F48B8B0A7E29FE74E1C5.png" width="72.00" height="36.00" transform="matrix(1.00, 0.00, -0.00, -1.00, 258.0, 197.0)"></image><g><clipPath id="clip0x608001caf300"><path d="M 236.8 205.0 L 830.6 205.0 L 830.6 153.3 L 236.8 153.3 Z M 236.8 205.0 "></path></clipPath><g clip-path="url(#clip0x608001caf300)"><g><clipPath id="clip0x608001caf660"><path d="M 237.8 154.3 L 829.6 154.3 L 829.6 204.0 L 237.8 204.0 Z M 237.8 154.3 "></path></clipPath><g clip-path="url(#clip0x608001caf660)"><text xml:space="preserve" font-family="Chalkduster,Chalkduster" font-size="26.0" fill="#FEFFFE" transform="matrix(1.00, 0.00, -0.00, -1.00, 263.0, 167.7)">s</text><text xml:space="preserve" font-family="Chalkduster,Chalkduster" font-size="26.0" fill="#FEFFFE" transform="matrix(1.00, 0.00, -0.00, -1.00, 276.1, 167.7)">ó</text><text xml:space="preserve" font-family="Chalkduster,Chalkduster" font-size="26.0" fill="#FEFFFE" transform="matrix(1.00, 0.00, -0.00, -1.00, 295.4, 167.7)"> </text><text xml:space="preserve" font-family="Chalkduster,Chalkduster" font-size="26.0" fill="#FEFFFE" transform="matrix(1.00, 0.00, -0.00, -1.00, 308.3, 167.7)">é</text><text xml:space="preserve" font-family="Chalkduster,Chalkduster" font-size="26.0" fill="#FEFFFE" transform="matrix(1.00, 0.00, -0.00, -1.00, 325.6, 167.7)"> </text></g></g></g></g><image xlink:href="../../DAD094F7-E148-471E-B4B2-5EEF99D1DD4D/assets/64F9FF5CDC5891E6017907BEB16485D1.png" width="70.00" height="34.00" transform="matrix(1.00, 0.00, -0.00, -1.00, 334.0, 194.0)"></image><g><clipPath id="clip0x608001caf900"><path d="M 236.8 205.0 L 830.6 205.0 L 830.6 153.3 L 236.8 153.3 Z M 236.8 205.0 "></path></clipPath><g clip-path="url(#clip0x608001caf900)"><g><clipPath id="clip0x608001cafc60"><path d="M 237.8 154.3 L 829.6 154.3 L 829.6 204.0 L 237.8 204.0 Z M 237.8 154.3 "></path></clipPath><g clip-path="url(#clip0x608001cafc60)"><text xml:space="preserve" font-family="Chalkduster,Chalkduster" font-size="26.0" fill="#A8C994" transform="matrix(1.00, 0.00, -0.00, -1.00, 338.5, 167.7)">t</text><text xml:space="preserve" font-family="Chalkduster,Chalkduster" font-size="26.0" fill="#A8C994" transform="matrix(1.00, 0.00, -0.00, -1.00, 350.4, 167.7)">r</text><text xml:space="preserve" font-family="Chalkduster,Chalkduster" font-size="26.0" fill="#A8C994" transform="matrix(1.00, 0.00, -0.00, -1.00, 364.8, 167.7)">u</text><text xml:space="preserve" font-family="Chalkduster,Chalkduster" font-size="26.0" fill="#A8C994" transform="matrix(1.00, 0.00, -0.00, -1.00, 382.7, 167.7)">e</text></g></g></g></g><image xlink:href="../../DAD094F7-E148-471E-B4B2-5EEF99D1DD4D/assets/2DC1FDB44F0EF185F7DA39BBA5D6D830.png" width="39.00" height="26.00" transform="matrix(1.00, 0.00, -0.00, -1.00, 407.0, 187.0)"></image><g><clipPath id="clip0x608001cafea0"><path d="M 236.8 205.0 L 830.6 205.0 L 830.6 153.3 L 236.8 153.3 Z M 236.8 205.0 "></path></clipPath><g clip-path="url(#clip0x608001cafea0)"><g><clipPath id="clip0x608001cb0200"><path d="M 237.8 154.3 L 829.6 154.3 L 829.6 204.0 L 237.8 204.0 Z M 237.8 154.3 "></path></clipPath><g clip-path="url(#clip0x608001cb0200)"><text xml:space="preserve" font-family="Chalkduster,Chalkduster" font-size="26.0" fill="#FEFFFE" transform="matrix(1.00, 0.00, -0.00, -1.00, 398.8, 167.7)"> </text><text xml:space="preserve" font-family="Chalkduster,Chalkduster" font-size="26.0" fill="#FEFFFE" transform="matrix(1.00, 0.00, -0.00, -1.00, 411.8, 167.7)">s</text><text xml:space="preserve" font-family="Chalkduster,Chalkduster" font-size="26.0" fill="#FEFFFE" transform="matrix(1.00, 0.00, -0.00, -1.00, 424.9, 167.7)">e</text><text xml:space="preserve" font-family="Chalkduster,Chalkduster" font-size="26.0" fill="#FEFFFE" transform="matrix(1.00, 0.00, -0.00, -1.00, 441.0, 167.7)"> </text></g></g></g></g><image xlink:href="../../DAD094F7-E148-471E-B4B2-5EEF99D1DD4D/assets/5CD6DA41E6BDE5E3DEC1B4146BC3E92A.png" width="24.00" height="31.00" transform="matrix(1.00, 0.00, -0.00, -1.00, 450.0, 188.0)"></image><g><clipPath id="clip0x608001cb0440"><path d="M 236.8 205.0 L 830.6 205.0 L 830.6 153.3 L 236.8 153.3 Z M 236.8 205.0 "></path></clipPath><g clip-path="url(#clip0x608001cb0440)"><g><clipPath id="clip0x608001cb07a0"><path d="M 237.8 154.3 L 829.6 154.3 L 829.6 204.0 L 237.8 204.0 Z M 237.8 154.3 "></path></clipPath><g clip-path="url(#clip0x608001cb07a0)"><text xml:space="preserve" font-family="Menlo-Bold,Menlo" font-weight="bold" font-size="26.0" fill="#FEFFFE" transform="matrix(1.00, 0.00, -0.00, -1.00, 453.9, 167.7)">p</text></g></g></g></g><image xlink:href="../../DAD094F7-E148-471E-B4B2-5EEF99D1DD4D/assets/8982FEE9CA1201E5EB4B41516B692D3F.png" width="26.00" height="25.00" transform="matrix(1.00, 0.00, -0.00, -1.00, 478.0, 186.0)"></image><g><clipPath id="clip0x608001cb08c0"><path d="M 236.8 205.0 L 830.6 205.0 L 830.6 153.3 L 236.8 153.3 Z M 236.8 205.0 "></path></clipPath><g clip-path="url(#clip0x608001cb08c0)"><g><clipPath id="clip0x608001cb0c20"><path d="M 237.8 154.3 L 829.6 154.3 L 829.6 204.0 L 237.8 204.0 Z M 237.8 154.3 "></path></clipPath><g clip-path="url(#clip0x608001cb0c20)"><text xml:space="preserve" font-family="Chalkduster,Chalkduster" font-size="26.0" fill="#FEFFFE" transform="matrix(1.00, 0.00, -0.00, -1.00, 469.6, 167.7)"> </text><text xml:space="preserve" font-family="Chalkduster,Chalkduster" font-size="26.0" fill="#FEFFFE" transform="matrix(1.00, 0.00, -0.00, -1.00, 482.5, 167.7)">e</text><text xml:space="preserve" font-family="Chalkduster,Chalkduster" font-size="26.0" fill="#FEFFFE" transform="matrix(1.00, 0.00, -0.00, -1.00, 498.6, 167.7)"> </text></g></g></g></g><image xlink:href="../../DAD094F7-E148-471E-B4B2-5EEF99D1DD4D/assets/5FCD2B975F28D35C2587DEABF2900CC4.png" width="24.00" height="31.00" transform="matrix(1.00, 0.00, -0.00, -1.00, 507.0, 188.0)"></image><g><clipPath id="clip0x608001cb0e00"><path d="M 236.8 205.0 L 830.6 205.0 L 830.6 153.3 L 236.8 153.3 Z M 236.8 205.0 "></path></clipPath><g clip-path="url(#clip0x608001cb0e00)"><g><clipPath id="clip0x608001cb1160"><path d="M 237.8 154.3 L 829.6 154.3 L 829.6 204.0 L 237.8 204.0 Z M 237.8 154.3 "></path></clipPath><g clip-path="url(#clip0x608001cb1160)"><text xml:space="preserve" font-family="Menlo-Bold,Menlo" font-weight="bold" font-size="26.0" fill="#FEFFFE" transform="matrix(1.00, 0.00, -0.00, -1.00, 511.6, 167.7)">q</text></g></g></g></g><image xlink:href="../../DAD094F7-E148-471E-B4B2-5EEF99D1DD4D/assets/A5A9AF995AB5125FE8A8C6426D1279B5.png" width="200.00" height="44.00" transform="matrix(1.00, 0.00, -0.00, -1.00, 535.0, 198.0)"></image><g><clipPath id="clip0x608001cb1280"><path d="M 236.8 205.0 L 830.6 205.0 L 830.6 153.3 L 236.8 153.3 Z M 236.8 205.0 "></path></clipPath><g clip-path="url(#clip0x608001cb1280)"><g><clipPath id="clip0x608001cb15e0"><path d="M 237.8 154.3 L 829.6 154.3 L 829.6 204.0 L 237.8 204.0 Z M 237.8 154.3 "></path></clipPath><g clip-path="url(#clip0x608001cb15e0)"><text xml:space="preserve" font-family="Chalkduster,Chalkduster" font-size="26.0" fill="#FEFFFE" transform="matrix(1.00, 0.00, -0.00, -1.00, 527.2, 167.7)"> </text><text xml:space="preserve" font-family="Chalkduster,Chalkduster" font-size="26.0" fill="#FEFFFE" transform="matrix(1.00, 0.00, -0.00, -1.00, 540.1, 167.7)">f</text><text xml:space="preserve" font-family="Chalkduster,Chalkduster" font-size="26.0" fill="#FEFFFE" transform="matrix(1.00, 0.00, -0.00, -1.00, 553.2, 167.7)">o</text><text xml:space="preserve" font-family="Chalkduster,Chalkduster" font-size="26.0" fill="#FEFFFE" transform="matrix(1.00, 0.00, -0.00, -1.00, 572.1, 167.7)">r</text><text xml:space="preserve" font-family="Chalkduster,Chalkduster" font-size="26.0" fill="#FEFFFE" transform="matrix(1.00, 0.00, -0.00, -1.00, 585.3, 167.7)">e</text><text xml:space="preserve" font-family="Chalkduster,Chalkduster" font-size="26.0" fill="#FEFFFE" transform="matrix(1.00, 0.00, -0.00, -1.00, 601.4, 167.7)">m</text><text xml:space="preserve" font-family="Chalkduster,Chalkduster" font-size="26.0" fill="#FEFFFE" transform="matrix(1.00, 0.00, -0.00, -1.00, 627.7, 167.7)"> </text><text xml:space="preserve" font-family="Chalkduster,Chalkduster" font-size="26.0" fill="#FEFFFE" transform="matrix(1.00, 0.00, -0.00, -1.00, 640.6, 167.7)">a</text><text xml:space="preserve" font-family="Chalkduster,Chalkduster" font-size="26.0" fill="#FEFFFE" transform="matrix(1.00, 0.00, -0.00, -1.00, 657.7, 167.7)">m</text><text xml:space="preserve" font-family="Chalkduster,Chalkduster" font-size="26.0" fill="#FEFFFE" transform="matrix(1.00, 0.00, -0.00, -1.00, 684.1, 167.7)">b</text><text xml:space="preserve" font-family="Chalkduster,Chalkduster" font-size="26.0" fill="#FEFFFE" transform="matrix(1.00, 0.00, -0.00, -1.00, 699.2, 167.7)">o</text><text xml:space="preserve" font-family="Chalkduster,Chalkduster" font-size="26.0" fill="#FEFFFE" transform="matrix(1.00, 0.00, -0.00, -1.00, 718.1, 167.7)">s</text><text xml:space="preserve" font-family="Chalkduster,Chalkduster" font-size="26.0" fill="#FEFFFE" transform="matrix(1.00, 0.00, -0.00, -1.00, 731.3, 167.7)"> </text></g></g></g></g><image xlink:href="../../DAD094F7-E148-471E-B4B2-5EEF99D1DD4D/assets/95552FBBFEA12DFD31D37E94DC383187.png" width="70.00" height="34.00" transform="matrix(1.00, 0.00, -0.00, -1.00, 740.0, 194.0)"></image><g><clipPath id="clip0x608001cb1b80"><path d="M 236.8 205.0 L 830.6 205.0 L 830.6 153.3 L 236.8 153.3 Z M 236.8 205.0 "></path></clipPath><g clip-path="url(#clip0x608001cb1b80)"><g><clipPath id="clip0x608001cb1ee0"><path d="M 237.8 154.3 L 829.6 154.3 L 829.6 204.0 L 237.8 204.0 Z M 237.8 154.3 "></path></clipPath><g clip-path="url(#clip0x608001cb1ee0)"><text xml:space="preserve" font-family="Chalkduster,Chalkduster" font-size="26.0" fill="#A8C994" transform="matrix(1.00, 0.00, -0.00, -1.00, 744.1, 167.7)">t</text><text xml:space="preserve" font-family="Chalkduster,Chalkduster" font-size="26.0" fill="#A8C994" transform="matrix(1.00, 0.00, -0.00, -1.00, 756.0, 167.7)">r</text><text xml:space="preserve" font-family="Chalkduster,Chalkduster" font-size="26.0" fill="#A8C994" transform="matrix(1.00, 0.00, -0.00, -1.00, 770.4, 167.7)">u</text><text xml:space="preserve" font-family="Chalkduster,Chalkduster" font-size="26.0" fill="#A8C994" transform="matrix(1.00, 0.00, -0.00, -1.00, 788.3, 167.7)">e</text></g></g></g></g><g><clipPath id="clip0x608001cb2240"><path d="M 236.8 205.0 L 830.6 205.0 L 830.6 153.3 L 236.8 153.3 Z M 236.8 205.0 "></path></clipPath><g clip-path="url(#clip0x608001cb2240)"><path d="M 237.4 154.0 L 237.4 306.0 " fill="none" stroke="#FEFFFE" stroke-opacity="0.50" stroke-width="1.00" transform="matrix(1.00, 0.00, 0.00, -1.00, -0.1, 409.1)"></path><path d="M 2.0 154.0 L 830.2 154.0 " fill="none" stroke="#FEFFFE" stroke-opacity="0.50" stroke-width="1.00" transform="matrix(1.00, 0.00, 0.00, -1.00, -0.1, 409.1)"></path><path d="M 2.0 204.7 L 830.7 204.7 " fill="none" stroke="#FEFFFE" stroke-opacity="0.50" stroke-width="1.00" transform="matrix(1.00, 0.00, 0.00, -1.00, -0.1, 409.1)"></path><path d="M 2.0 255.3 L 830.7 255.3 " fill="none" stroke="#FEFFFE" stroke-opacity="0.50" stroke-width="1.00" transform="matrix(1.00, 0.00, 0.00, -1.00, -0.1, 409.1)"></path><path d="M 2.0 306.0 L 830.2 306.0 " fill="none" stroke="#FEFFFE" stroke-opacity="0.50" stroke-width="1.00" transform="matrix(1.00, 0.00, 0.00, -1.00, -0.1, 409.1)"></path><path d="M 2.0 154.0 L 2.0 306.0 " fill="none" stroke="#FEFFFE" stroke-opacity="0.50" stroke-width="1.00" transform="matrix(1.00, 0.00, 0.00, -1.00, -0.1, 409.1)"></path><path d="M 830.2 154.0 L 830.2 306.0 " fill="none" stroke="#FEFFFE" stroke-opacity="0.50" stroke-width="1.00" transform="matrix(1.00, 0.00, 0.00, -1.00, -0.1, 409.1)"></path></g></g><g><clipPath id="clip0x608001cb2900"><path d="M 1.4 154.3 L 237.8 154.3 L 237.8 102.6 L 1.4 102.6 Z M 1.4 154.3 "></path></clipPath><g clip-path="url(#clip0x608001cb2900)"><path d="M 1.9 153.8 L 237.3 153.8 L 237.3 103.1 L 1.9 103.1 Z M 1.9 153.8 " fill="#000000" fill-opacity="0.25"></path><path d="M 237.3 153.8 L 830.1 153.8 L 830.1 103.1 L 237.3 103.1 Z M 237.3 153.8 " fill="#000000" fill-opacity="0.25"></path></g></g><g><clipPath id="clip0x608001cb2c00"><path d="M 1.4 154.3 L 237.8 154.3 L 237.8 102.6 L 1.4 102.6 Z M 1.4 154.3 "></path></clipPath><g clip-path="url(#clip0x608001cb2c00)"><path d="M 237.4 204.7 L 237.4 356.7 " fill="none" stroke="#FEFFFE" stroke-opacity="0.50" stroke-width="1.00" transform="matrix(1.00, 0.00, 0.00, -1.00, -0.1, 409.1)"></path><path d="M 2.0 204.7 L 830.2 204.7 " fill="none" stroke="#FEFFFE" stroke-opacity="0.50" stroke-width="1.00" transform="matrix(1.00, 0.00, 0.00, -1.00, -0.1, 409.1)"></path><path d="M 1.5 255.3 L 830.2 255.3 " fill="none" stroke="#FEFFFE" stroke-opacity="0.50" stroke-width="1.00" transform="matrix(1.00, 0.00, 0.00, -1.00, -0.1, 409.1)"></path><path d="M 1.5 306.0 L 830.2 306.0 " fill="none" stroke="#FEFFFE" stroke-opacity="0.50" stroke-width="1.00" transform="matrix(1.00, 0.00, 0.00, -1.00, -0.1, 409.1)"></path><path d="M 2.0 356.7 L 830.2 356.7 " fill="none" stroke="#FEFFFE" stroke-opacity="0.50" stroke-width="1.00" transform="matrix(1.00, 0.00, 0.00, -1.00, -0.1, 409.1)"></path><path d="M 2.0 204.7 L 2.0 356.7 " fill="none" stroke="#FEFFFE" stroke-opacity="0.50" stroke-width="1.00" transform="matrix(1.00, 0.00, 0.00, -1.00, -0.1, 409.1)"></path><path d="M 830.2 204.7 L 830.2 356.7 " fill="none" stroke="#FEFFFE" stroke-opacity="0.50" stroke-width="1.00" transform="matrix(1.00, 0.00, 0.00, -1.00, -0.1, 409.1)"></path></g></g><g><clipPath id="clip0x608001cb32c0"><path d="M 236.8 154.3 L 830.6 154.3 L 830.6 102.6 L 236.8 102.6 Z M 236.8 154.3 "></path></clipPath><g clip-path="url(#clip0x608001cb32c0)"><path d="M 1.9 153.8 L 237.3 153.8 L 237.3 103.1 L 1.9 103.1 Z M 1.9 153.8 " fill="#000000" fill-opacity="0.25"></path><path d="M 237.3 153.8 L 830.1 153.8 L 830.1 103.1 L 237.3 103.1 Z M 237.3 153.8 " fill="#000000" fill-opacity="0.25"></path></g></g><g><clipPath id="clip0x608001cb35c0"><path d="M 236.8 154.3 L 830.6 154.3 L 830.6 102.6 L 236.8 102.6 Z M 236.8 154.3 "></path></clipPath><g clip-path="url(#clip0x608001cb35c0)"><path d="M 237.4 204.7 L 237.4 356.7 " fill="none" stroke="#FEFFFE" stroke-opacity="0.50" stroke-width="1.00" transform="matrix(1.00, 0.00, 0.00, -1.00, -0.1, 409.1)"></path><path d="M 2.0 204.7 L 830.2 204.7 " fill="none" stroke="#FEFFFE" stroke-opacity="0.50" stroke-width="1.00" transform="matrix(1.00, 0.00, 0.00, -1.00, -0.1, 409.1)"></path><path d="M 2.0 255.3 L 830.7 255.3 " fill="none" stroke="#FEFFFE" stroke-opacity="0.50" stroke-width="1.00" transform="matrix(1.00, 0.00, 0.00, -1.00, -0.1, 409.1)"></path><path d="M 2.0 306.0 L 830.7 306.0 " fill="none" stroke="#FEFFFE" stroke-opacity="0.50" stroke-width="1.00" transform="matrix(1.00, 0.00, 0.00, -1.00, -0.1, 409.1)"></path><path d="M 2.0 356.7 L 830.2 356.7 " fill="none" stroke="#FEFFFE" stroke-opacity="0.50" stroke-width="1.00" transform="matrix(1.00, 0.00, 0.00, -1.00, -0.1, 409.1)"></path><path d="M 2.0 204.7 L 2.0 356.7 " fill="none" stroke="#FEFFFE" stroke-opacity="0.50" stroke-width="1.00" transform="matrix(1.00, 0.00, 0.00, -1.00, -0.1, 409.1)"></path><path d="M 830.2 204.7 L 830.2 356.7 " fill="none" stroke="#FEFFFE" stroke-opacity="0.50" stroke-width="1.00" transform="matrix(1.00, 0.00, 0.00, -1.00, -0.1, 409.1)"></path></g></g></g></svg>