<?xml version="1.0" encoding="UTF-8" standalone="no"?><svg xmlns="http://www.w3.org/2000/svg" xmlns:xlink="http://www.w3.org/1999/xlink" clip-rule="evenodd" stroke-miterlimit="10" viewBox="0 0 832 54"><desc>SVG generated by Keynote</desc><defs></defs><g transform="matrix(1.00, 0.00, -0.00, -1.00, 0.0, 54.0)"><g><clipPath id="clip0x608001cb3c80"><path d="M 1.4 52.6 L 237.8 52.6 L 237.8 1.0 L 1.4 1.0 Z M 1.4 52.6 "></path></clipPath><g clip-path="url(#clip0x608001cb3c80)"><path d="M 1.9 102.8 L 237.3 102.8 L 237.3 52.1 L 1.9 52.1 Z M 1.9 102.8 " fill="#000000" fill-opacity="0.25"></path><path d="M 237.3 102.8 L 830.1 102.8 L 830.1 52.1 L 237.3 52.1 Z M 237.3 102.8 " fill="#000000" fill-opacity="0.25"></path><path d="M 1.9 1.5 L 237.3 1.5 L 237.3 -49.2 L 1.9 -49.2 Z M 1.9 1.5 " fill="#000000" fill-opacity="0.25"></path><path d="M 237.3 1.5 L 830.1 1.5 L 830.1 -49.2 L 237.3 -49.2 Z M 237.3 1.5 " fill="#000000" fill-opacity="0.25"></path></g></g><image xlink:href="720138CD71077D0430CA491383DBBA1A.png" width="29.00" height="37.00" transform="matrix(1.00, 0.00, -0.00, -1.00, 105.0, 43.0)"></image><g><clipPath id="clip0x600001cbeb40"><path d="M 1.4 52.6 L 237.8 52.6 L 237.8 1.0 L 1.4 1.0 Z M 1.4 52.6 "></path></clipPath><g clip-path="url(#clip0x600001cbeb40)"><g><clipPath id="clip0x600001cbed20"><path d="M 2.4 2.0 L 236.8 2.0 L 236.8 51.6 L 2.4 51.6 Z M 2.4 2.0 "></path></clipPath><g clip-path="url(#clip0x600001cbed20)"><text xml:space="preserve" font-family="Menlo-Bold,Menlo" font-weight="bold" font-size="26.0" fill="#FEFFFE" transform="matrix(1.00, 0.00, -0.00, -1.00, 103.9, 17.8)">|</text><text xml:space="preserve" font-family="Menlo-Bold,Menlo" font-weight="bold" font-size="26.0" fill="#FEFFFE" transform="matrix(1.00, 0.00, -0.00, -1.00, 119.6, 17.8)">|</text></g></g></g></g><g><clipPath id="clip0x600001cbef60"><path d="M 1.4 52.6 L 237.8 52.6 L 237.8 1.0 L 1.4 1.0 Z M 1.4 52.6 "></path></clipPath><g clip-path="url(#clip0x600001cbef60)"><path d="M 237.4 255.3 L 237.4 407.3 " fill="none" stroke="#FEFFFE" stroke-opacity="0.50" stroke-width="1.00" transform="matrix(1.00, 0.00, 0.00, -1.00, -0.1, 358.1)"></path><path d="M 2.0 255.3 L 830.2 255.3 " fill="none" stroke="#FEFFFE" stroke-opacity="0.50" stroke-width="1.00" transform="matrix(1.00, 0.00, 0.00, -1.00, -0.1, 358.1)"></path><path d="M 1.5 306.0 L 830.2 306.0 " fill="none" stroke="#FEFFFE" stroke-opacity="0.50" stroke-width="1.00" transform="matrix(1.00, 0.00, 0.00, -1.00, -0.1, 358.1)"></path><path d="M 1.5 356.7 L 830.2 356.7 " fill="none" stroke="#FEFFFE" stroke-opacity="0.50" stroke-width="1.00" transform="matrix(1.00, 0.00, 0.00, -1.00, -0.1, 358.1)"></path><path d="M 2.0 255.3 L 2.0 407.3 " fill="none" stroke="#FEFFFE" stroke-opacity="0.50" stroke-width="1.00" transform="matrix(1.00, 0.00, 0.00, -1.00, -0.1, 358.1)"></path><path d="M 830.2 255.3 L 830.2 407.3 " fill="none" stroke="#FEFFFE" stroke-opacity="0.50" stroke-width="1.00" transform="matrix(1.00, 0.00, 0.00, -1.00, -0.1, 358.1)"></path><path d="M 2.0 407.3 L 830.2 407.3 " fill="none" stroke="#FEFFFE" stroke-opacity="0.50" stroke-width="1.00" transform="matrix(1.00, 0.00, 0.00, -1.00, -0.1, 358.1)"></path></g></g><g><clipPath id="clip0x600001cbf620"><path d="M 236.8 52.6 L 830.6 52.6 L 830.6 1.0 L 236.8 1.0 Z M 236.8 52.6 "></path></clipPath><g clip-path="url(#clip0x600001cbf620)"><path d="M 1.9 102.8 L 237.3 102.8 L 237.3 52.1 L 1.9 52.1 Z M 1.9 102.8 " fill="#000000" fill-opacity="0.25"></path><path d="M 237.3 102.8 L 830.1 102.8 L 830.1 52.1 L 237.3 52.1 Z M 237.3 102.8 " fill="#000000" fill-opacity="0.25"></path><path d="M 1.9 1.5 L 237.3 1.5 L 237.3 -49.2 L 1.9 -49.2 Z M 1.9 1.5 " fill="#000000" fill-opacity="0.25"></path><path d="M 237.3 1.5 L 830.1 1.5 L 830.1 -49.2 L 237.3 -49.2 Z M 237.3 1.5 " fill="#000000" fill-opacity="0.25"></path></g></g><image xlink:href="D0EC839C211CE19D57B22F02CF9F3CA4.png" width="68.00" height="34.00" transform="matrix(1.00, 0.00, -0.00, -1.00, 499.0, 42.0)"></image><g><clipPath id="clip0x618001cbfc80"><path d="M 236.8 52.6 L 830.6 52.6 L 830.6 1.0 L 236.8 1.0 Z M 236.8 52.6 "></path></clipPath><g clip-path="url(#clip0x618001cbfc80)"><g><clipPath id="clip0x618001cbfe00"><path d="M 237.8 2.0 L 829.6 2.0 L 829.6 51.6 L 237.8 51.6 Z M 237.8 2.0 "></path></clipPath><g clip-path="url(#clip0x618001cbfe00)"><text xml:space="preserve" font-family="Chalkduster,Chalkduster" font-size="26.0" fill="#FEFFFE" transform="matrix(1.00, 0.00, -0.00, -1.00, 503.6, 15.3)">“</text><text xml:space="preserve" font-family="Chalkduster,Chalkduster" font-size="26.0" fill="#FEFFFE" transform="matrix(1.00, 0.00, -0.00, -1.00, 514.4, 15.3)">o</text><text xml:space="preserve" font-family="Chalkduster,Chalkduster" font-size="26.0" fill="#FEFFFE" transform="matrix(1.00, 0.00, -0.00, -1.00, 533.9, 15.3)">u</text><text xml:space="preserve" font-family="Chalkduster,Chalkduster" font-size="26.0" fill="#FEFFFE" transform="matrix(1.00, 0.00, -0.00, -1.00, 550.7, 15.3)">"</text></g></g></g></g><g><clipPath id="clip0x618001ea0180"><path d="M 236.8 52.6 L 830.6 52.6 L 830.6 1.0 L 236.8 1.0 Z M 236.8 52.6 "></path></clipPath><g clip-path="url(#clip0x618001ea0180)"><path d="M 237.4 255.3 L 237.4 407.3 " fill="none" stroke="#FEFFFE" stroke-opacity="0.50" stroke-width="1.00" transform="matrix(1.00, 0.00, 0.00, -1.00, -0.1, 358.1)"></path><path d="M 2.0 255.3 L 830.2 255.3 " fill="none" stroke="#FEFFFE" stroke-opacity="0.50" stroke-width="1.00" transform="matrix(1.00, 0.00, 0.00, -1.00, -0.1, 358.1)"></path><path d="M 2.0 306.0 L 830.7 306.0 " fill="none" stroke="#FEFFFE" stroke-opacity="0.50" stroke-width="1.00" transform="matrix(1.00, 0.00, 0.00, -1.00, -0.1, 358.1)"></path><path d="M 2.0 356.7 L 830.7 356.7 " fill="none" stroke="#FEFFFE" stroke-opacity="0.50" stroke-width="1.00" transform="matrix(1.00, 0.00, 0.00, -1.00, -0.1, 358.1)"></path><path d="M 2.0 255.3 L 2.0 407.3 " fill="none" stroke="#FEFFFE" stroke-opacity="0.50" stroke-width="1.00" transform="matrix(1.00, 0.00, 0.00, -1.00, -0.1, 358.1)"></path><path d="M 830.2 255.3 L 830.2 407.3 " fill="none" stroke="#FEFFFE" stroke-opacity="0.50" stroke-width="1.00" transform="matrix(1.00, 0.00, 0.00, -1.00, -0.1, 358.1)"></path><path d="M 2.0 407.3 L 830.2 407.3 " fill="none" stroke="#FEFFFE" stroke-opacity="0.50" stroke-width="1.00" transform="matrix(1.00, 0.00, 0.00, -1.00, -0.1, 358.1)"></path></g></g></g></svg>