<?xml version="1.0" encoding="UTF-8" standalone="no"?><svg xmlns="http://www.w3.org/2000/svg" xmlns:xlink="http://www.w3.org/1999/xlink" clip-rule="evenodd" stroke-miterlimit="10" viewBox="0 0 832 409"><desc>SVG generated by Keynote</desc><defs></defs><g transform="matrix(1.00, 0.00, -0.00, -1.00, 0.0, 409.0)"><g><clipPath id="clip0x608001ab7400"><path d="M 1.4 407.6 L 237.8 407.6 L 237.8 356.0 L 1.4 356.0 Z M 1.4 407.6 "></path></clipPath><g clip-path="url(#clip0x608001ab7400)"><path d="M 1.9 356.5 L 237.3 356.5 L 237.3 305.8 L 1.9 305.8 Z M 1.9 356.5 " fill="#000000" fill-opacity="0.25"></path><path d="M 237.3 356.5 L 830.1 356.5 L 830.1 305.8 L 237.3 305.8 Z M 237.3 356.5 " fill="#000000" fill-opacity="0.25"></path></g></g><image xlink:href="../../DAD094F7-E148-471E-B4B2-5EEF99D1DD4D/assets/6D64A1B3D3D4FD7C3DF5E3CB23BF746E.png" width="15.00" height="30.00" transform="matrix(1.00, 0.00, -0.00, -1.00, 112.0, 397.0)"></image><g><clipPath id="clip0x608001ab7340"><path d="M 1.4 407.6 L 237.8 407.6 L 237.8 356.0 L 1.4 356.0 Z M 1.4 407.6 "></path></clipPath><g clip-path="url(#clip0x608001ab7340)"><g><clipPath id="clip0x608001ab79a0"><path d="M 2.4 357.0 L 236.8 357.0 L 236.8 406.6 L 2.4 406.6 Z M 2.4 357.0 "></path></clipPath><g clip-path="url(#clip0x608001ab79a0)"><text xml:space="preserve" font-family="Menlo-Bold,Menlo" font-weight="bold" font-size="26.0" fill="#FEFFFE" transform="matrix(1.00, 0.00, -0.00, -1.00, 111.8, 372.8)">!</text></g></g></g></g><g><clipPath id="clip0x608001ab7be0"><path d="M 1.4 407.6 L 237.8 407.6 L 237.8 356.0 L 1.4 356.0 Z M 1.4 407.6 "></path></clipPath><g clip-path="url(#clip0x608001ab7be0)"><path d="M 237.4 1.5 L 237.4 103.3 " fill="none" stroke="#FEFFFE" stroke-opacity="0.50" stroke-width="1.00" transform="matrix(1.00, 0.00, 0.00, -1.00, -0.1, 409.1)"></path><path d="M 1.5 52.7 L 830.2 52.7 " fill="none" stroke="#FEFFFE" stroke-opacity="0.50" stroke-width="1.00" transform="matrix(1.00, 0.00, 0.00, -1.00, -0.1, 409.1)"></path><path d="M 2.0 103.3 L 830.2 103.3 " fill="none" stroke="#FEFFFE" stroke-opacity="0.50" stroke-width="1.00" transform="matrix(1.00, 0.00, 0.00, -1.00, -0.1, 409.1)"></path><path d="M 2.0 1.5 L 2.0 103.3 " fill="none" stroke="#FEFFFE" stroke-opacity="0.50" stroke-width="1.00" transform="matrix(1.00, 0.00, 0.00, -1.00, -0.1, 409.1)"></path><path d="M 830.2 2.0 L 830.2 103.3 " fill="none" stroke="#FEFFFE" stroke-opacity="0.50" stroke-width="1.00" transform="matrix(1.00, 0.00, 0.00, -1.00, -0.1, 409.1)"></path><path d="M 1.5 2.0 L 830.2 2.0 " fill="none" stroke="#FEFFFE" stroke-opacity="0.50" stroke-width="1.00" transform="matrix(1.00, 0.00, 0.00, -1.00, -0.1, 409.1)"></path></g></g><g><clipPath id="clip0x608001ab8120"><path d="M 236.8 407.6 L 830.6 407.6 L 830.6 356.0 L 236.8 356.0 Z M 236.8 407.6 "></path></clipPath><g clip-path="url(#clip0x608001ab8120)"><path d="M 1.9 356.5 L 237.3 356.5 L 237.3 305.8 L 1.9 305.8 Z M 1.9 356.5 " fill="#000000" fill-opacity="0.25"></path><path d="M 237.3 356.5 L 830.1 356.5 L 830.1 305.8 L 237.3 305.8 Z M 237.3 356.5 " fill="#000000" fill-opacity="0.25"></path></g></g><image xlink:href="../../DAD094F7-E148-471E-B4B2-5EEF99D1DD4D/assets/0CEB4860CAE32F253ACF3FD4054C147B.png" width="88.00" height="35.00" transform="matrix(1.00, 0.00, -0.00, -1.00, 489.0, 399.0)"></image><g><clipPath id="clip0x608001ab8300"><path d="M 236.8 407.6 L 830.6 407.6 L 830.6 356.0 L 236.8 356.0 Z M 236.8 407.6 "></path></clipPath><g clip-path="url(#clip0x608001ab8300)"><g><clipPath id="clip0x608001ab8720"><path d="M 237.8 357.0 L 829.6 357.0 L 829.6 406.6 L 237.8 406.6 Z M 237.8 357.0 "></path></clipPath><g clip-path="url(#clip0x608001ab8720)"><text xml:space="preserve" font-family="Chalkduster,Chalkduster" font-size="26.0" fill="#FEFFFE" transform="matrix(1.00, 0.00, -0.00, -1.00, 493.7, 370.3)">“</text><text xml:space="preserve" font-family="Chalkduster,Chalkduster" font-size="26.0" fill="#FEFFFE" transform="matrix(1.00, 0.00, -0.00, -1.00, 506.4, 370.3)">n</text><text xml:space="preserve" font-family="Chalkduster,Chalkduster" font-size="26.0" fill="#FEFFFE" transform="matrix(1.00, 0.00, -0.00, -1.00, 525.4, 370.3)">ã</text><text xml:space="preserve" font-family="Chalkduster,Chalkduster" font-size="26.0" fill="#FEFFFE" transform="matrix(1.00, 0.00, -0.00, -1.00, 543.0, 370.3)">o</text><text xml:space="preserve" font-family="Chalkduster,Chalkduster" font-size="26.0" fill="#FEFFFE" transform="matrix(1.00, 0.00, -0.00, -1.00, 560.6, 370.3)">"</text></g></g></g></g><g><clipPath id="clip0x608001ab8a20"><path d="M 236.8 407.6 L 830.6 407.6 L 830.6 356.0 L 236.8 356.0 Z M 236.8 407.6 "></path></clipPath><g clip-path="url(#clip0x608001ab8a20)"><path d="M 237.4 1.5 L 237.4 103.3 " fill="none" stroke="#FEFFFE" stroke-opacity="0.50" stroke-width="1.00" transform="matrix(1.00, 0.00, 0.00, -1.00, -0.1, 409.1)"></path><path d="M 2.0 52.7 L 830.7 52.7 " fill="none" stroke="#FEFFFE" stroke-opacity="0.50" stroke-width="1.00" transform="matrix(1.00, 0.00, 0.00, -1.00, -0.1, 409.1)"></path><path d="M 2.0 103.3 L 830.2 103.3 " fill="none" stroke="#FEFFFE" stroke-opacity="0.50" stroke-width="1.00" transform="matrix(1.00, 0.00, 0.00, -1.00, -0.1, 409.1)"></path><path d="M 2.0 2.0 L 2.0 103.3 " fill="none" stroke="#FEFFFE" stroke-opacity="0.50" stroke-width="1.00" transform="matrix(1.00, 0.00, 0.00, -1.00, -0.1, 409.1)"></path><path d="M 830.2 1.5 L 830.2 103.3 " fill="none" stroke="#FEFFFE" stroke-opacity="0.50" stroke-width="1.00" transform="matrix(1.00, 0.00, 0.00, -1.00, -0.1, 409.1)"></path><path d="M 2.0 2.0 L 830.7 2.0 " fill="none" stroke="#FEFFFE" stroke-opacity="0.50" stroke-width="1.00" transform="matrix(1.00, 0.00, 0.00, -1.00, -0.1, 409.1)"></path></g></g></g></svg>