<?xml version="1.0" encoding="UTF-8" standalone="no"?><svg xmlns="http://www.w3.org/2000/svg" xmlns:xlink="http://www.w3.org/1999/xlink" clip-rule="evenodd" stroke-miterlimit="10" viewBox="0 0 832 54"><desc>SVG generated by Keynote</desc><defs></defs><g transform="matrix(1.00, 0.00, -0.00, -1.00, 0.0, 54.0)"><g><clipPath id="clip0x608001ab9b00"><path d="M 1.4 53.0 L 237.8 53.0 L 237.8 1.3 L 1.4 1.3 Z M 1.4 53.0 "></path></clipPath><g clip-path="url(#clip0x608001ab9b00)"><path d="M 1.9 103.1 L 237.3 103.1 L 237.3 52.5 L 1.9 52.5 Z M 1.9 103.1 " fill="#000000" fill-opacity="0.25"></path><path d="M 237.3 103.1 L 830.1 103.1 L 830.1 52.5 L 237.3 52.5 Z M 237.3 103.1 " fill="#000000" fill-opacity="0.25"></path><path d="M 1.9 1.8 L 237.3 1.8 L 237.3 -48.9 L 1.9 -48.9 Z M 1.9 1.8 " fill="#000000" fill-opacity="0.25"></path><path d="M 237.3 1.8 L 830.1 1.8 L 830.1 -48.9 L 237.3 -48.9 Z M 237.3 1.8 " fill="#000000" fill-opacity="0.25"></path></g></g><image xlink:href="71EF45D86467FF6F772A737364A519C3.png" width="101.00" height="36.00" transform="matrix(1.00, 0.00, -0.00, -1.00, 69.0, 43.0)"></image><g><clipPath id="clip0x600001cb0680"><path d="M 1.4 53.0 L 237.8 53.0 L 237.8 1.3 L 1.4 1.3 Z M 1.4 53.0 "></path></clipPath><g clip-path="url(#clip0x600001cb0680)"><g><clipPath id="clip0x600001cb0320"><path d="M 2.4 2.3 L 236.8 2.3 L 236.8 52.0 L 2.4 52.0 Z M 2.4 2.3 "></path></clipPath><g clip-path="url(#clip0x600001cb0320)"><text xml:space="preserve" font-family="Menlo-Bold,Menlo" font-weight="bold" font-size="26.0" fill="#FEFFFE" transform="matrix(1.00, 0.00, -0.00, -1.00, 72.6, 18.1)">p</text><text xml:space="preserve" font-family="Menlo-Bold,Menlo" font-weight="bold" font-size="26.0" fill="#FEFFFE" transform="matrix(1.00, 0.00, -0.00, -1.00, 88.3, 18.1)"> </text><text xml:space="preserve" font-family="Menlo-Bold,Menlo" font-weight="bold" font-size="26.0" fill="#FEFFFE" transform="matrix(1.00, 0.00, -0.00, -1.00, 104.0, 18.1)">&amp;</text><text xml:space="preserve" font-family="Menlo-Bold,Menlo" font-weight="bold" font-size="26.0" fill="#FEFFFE" transform="matrix(1.00, 0.00, -0.00, -1.00, 119.6, 18.1)">&amp;</text><text xml:space="preserve" font-family="Menlo-Bold,Menlo" font-weight="bold" font-size="26.0" fill="#FEFFFE" transform="matrix(1.00, 0.00, -0.00, -1.00, 135.3, 18.1)"> </text><text xml:space="preserve" font-family="Menlo-Bold,Menlo" font-weight="bold" font-size="26.0" fill="#FEFFFE" transform="matrix(1.00, 0.00, -0.00, -1.00, 150.9, 18.1)">q</text></g></g></g></g><g><clipPath id="clip0x600001cb08c0"><path d="M 1.4 53.0 L 237.8 53.0 L 237.8 1.3 L 1.4 1.3 Z M 1.4 53.0 "></path></clipPath><g clip-path="url(#clip0x600001cb08c0)"><path d="M 237.4 154.0 L 237.4 306.0 " fill="none" stroke="#FEFFFE" stroke-opacity="0.50" stroke-width="1.00" transform="matrix(1.00, 0.00, 0.00, -1.00, -0.1, 257.1)"></path><path d="M 2.0 154.0 L 830.2 154.0 " fill="none" stroke="#FEFFFE" stroke-opacity="0.50" stroke-width="1.00" transform="matrix(1.00, 0.00, 0.00, -1.00, -0.1, 257.1)"></path><path d="M 1.5 204.7 L 830.2 204.7 " fill="none" stroke="#FEFFFE" stroke-opacity="0.50" stroke-width="1.00" transform="matrix(1.00, 0.00, 0.00, -1.00, -0.1, 257.1)"></path><path d="M 1.5 255.3 L 830.2 255.3 " fill="none" stroke="#FEFFFE" stroke-opacity="0.50" stroke-width="1.00" transform="matrix(1.00, 0.00, 0.00, -1.00, -0.1, 257.1)"></path><path d="M 2.0 306.0 L 830.2 306.0 " fill="none" stroke="#FEFFFE" stroke-opacity="0.50" stroke-width="1.00" transform="matrix(1.00, 0.00, 0.00, -1.00, -0.1, 257.1)"></path><path d="M 2.0 154.0 L 2.0 306.0 " fill="none" stroke="#FEFFFE" stroke-opacity="0.50" stroke-width="1.00" transform="matrix(1.00, 0.00, 0.00, -1.00, -0.1, 257.1)"></path><path d="M 830.2 154.0 L 830.2 306.0 " fill="none" stroke="#FEFFFE" stroke-opacity="0.50" stroke-width="1.00" transform="matrix(1.00, 0.00, 0.00, -1.00, -0.1, 257.1)"></path></g></g><g><clipPath id="clip0x600001cb0f80"><path d="M 236.8 53.0 L 830.6 53.0 L 830.6 1.3 L 236.8 1.3 Z M 236.8 53.0 "></path></clipPath><g clip-path="url(#clip0x600001cb0f80)"><path d="M 1.9 103.1 L 237.3 103.1 L 237.3 52.5 L 1.9 52.5 Z M 1.9 103.1 " fill="#000000" fill-opacity="0.25"></path><path d="M 237.3 103.1 L 830.1 103.1 L 830.1 52.5 L 237.3 52.5 Z M 237.3 103.1 " fill="#000000" fill-opacity="0.25"></path><path d="M 1.9 1.8 L 237.3 1.8 L 237.3 -48.9 L 1.9 -48.9 Z M 1.9 1.8 " fill="#000000" fill-opacity="0.25"></path><path d="M 237.3 1.8 L 830.1 1.8 L 830.1 -48.9 L 237.3 -48.9 Z M 237.3 1.8 " fill="#000000" fill-opacity="0.25"></path></g></g><image xlink:href="482F133F67C4F48B8B0A7E29FE74E1C5.png" width="72.00" height="36.00" transform="matrix(1.00, 0.00, -0.00, -1.00, 258.0, 45.0)"></image><g><clipPath id="clip0x600001cb12e0"><path d="M 236.8 53.0 L 830.6 53.0 L 830.6 1.3 L 236.8 1.3 Z M 236.8 53.0 "></path></clipPath><g clip-path="url(#clip0x600001cb12e0)"><g><clipPath id="clip0x600001cb1640"><path d="M 237.8 2.3 L 829.6 2.3 L 829.6 52.0 L 237.8 52.0 Z M 237.8 2.3 "></path></clipPath><g clip-path="url(#clip0x600001cb1640)"><text xml:space="preserve" font-family="Chalkduster,Chalkduster" font-size="26.0" fill="#FEFFFE" transform="matrix(1.00, 0.00, -0.00, -1.00, 263.0, 15.7)">s</text><text xml:space="preserve" font-family="Chalkduster,Chalkduster" font-size="26.0" fill="#FEFFFE" transform="matrix(1.00, 0.00, -0.00, -1.00, 276.1, 15.7)">ó</text><text xml:space="preserve" font-family="Chalkduster,Chalkduster" font-size="26.0" fill="#FEFFFE" transform="matrix(1.00, 0.00, -0.00, -1.00, 295.4, 15.7)"> </text><text xml:space="preserve" font-family="Chalkduster,Chalkduster" font-size="26.0" fill="#FEFFFE" transform="matrix(1.00, 0.00, -0.00, -1.00, 308.3, 15.7)">é</text><text xml:space="preserve" font-family="Chalkduster,Chalkduster" font-size="26.0" fill="#FEFFFE" transform="matrix(1.00, 0.00, -0.00, -1.00, 325.6, 15.7)"> </text></g></g></g></g><image xlink:href="64F9FF5CDC5891E6017907BEB16485D1.png" width="70.00" height="34.00" transform="matrix(1.00, 0.00, -0.00, -1.00, 334.0, 42.0)"></image><g><clipPath id="clip0x600001cb18e0"><path d="M 236.8 53.0 L 830.6 53.0 L 830.6 1.3 L 236.8 1.3 Z M 236.8 53.0 "></path></clipPath><g clip-path="url(#clip0x600001cb18e0)"><g><clipPath id="clip0x600001cb1c40"><path d="M 237.8 2.3 L 829.6 2.3 L 829.6 52.0 L 237.8 52.0 Z M 237.8 2.3 "></path></clipPath><g clip-path="url(#clip0x600001cb1c40)"><text xml:space="preserve" font-family="Chalkduster,Chalkduster" font-size="26.0" fill="#A8C994" transform="matrix(1.00, 0.00, -0.00, -1.00, 338.5, 15.7)">t</text><text xml:space="preserve" font-family="Chalkduster,Chalkduster" font-size="26.0" fill="#A8C994" transform="matrix(1.00, 0.00, -0.00, -1.00, 350.4, 15.7)">r</text><text xml:space="preserve" font-family="Chalkduster,Chalkduster" font-size="26.0" fill="#A8C994" transform="matrix(1.00, 0.00, -0.00, -1.00, 364.8, 15.7)">u</text><text xml:space="preserve" font-family="Chalkduster,Chalkduster" font-size="26.0" fill="#A8C994" transform="matrix(1.00, 0.00, -0.00, -1.00, 382.7, 15.7)">e</text></g></g></g></g><image xlink:href="2DC1FDB44F0EF185F7DA39BBA5D6D830.png" width="39.00" height="26.00" transform="matrix(1.00, 0.00, -0.00, -1.00, 407.0, 35.0)"></image><g><clipPath id="clip0x600001cb1e80"><path d="M 236.8 53.0 L 830.6 53.0 L 830.6 1.3 L 236.8 1.3 Z M 236.8 53.0 "></path></clipPath><g clip-path="url(#clip0x600001cb1e80)"><g><clipPath id="clip0x600001cb21e0"><path d="M 237.8 2.3 L 829.6 2.3 L 829.6 52.0 L 237.8 52.0 Z M 237.8 2.3 "></path></clipPath><g clip-path="url(#clip0x600001cb21e0)"><text xml:space="preserve" font-family="Chalkduster,Chalkduster" font-size="26.0" fill="#FEFFFE" transform="matrix(1.00, 0.00, -0.00, -1.00, 398.8, 15.7)"> </text><text xml:space="preserve" font-family="Chalkduster,Chalkduster" font-size="26.0" fill="#FEFFFE" transform="matrix(1.00, 0.00, -0.00, -1.00, 411.8, 15.7)">s</text><text xml:space="preserve" font-family="Chalkduster,Chalkduster" font-size="26.0" fill="#FEFFFE" transform="matrix(1.00, 0.00, -0.00, -1.00, 424.9, 15.7)">e</text><text xml:space="preserve" font-family="Chalkduster,Chalkduster" font-size="26.0" fill="#FEFFFE" transform="matrix(1.00, 0.00, -0.00, -1.00, 441.0, 15.7)"> </text></g></g></g></g><image xlink:href="5CD6DA41E6BDE5E3DEC1B4146BC3E92A.png" width="24.00" height="31.00" transform="matrix(1.00, 0.00, -0.00, -1.00, 450.0, 36.0)"></image><g><clipPath id="clip0x600001cb2420"><path d="M 236.8 53.0 L 830.6 53.0 L 830.6 1.3 L 236.8 1.3 Z M 236.8 53.0 "></path></clipPath><g clip-path="url(#clip0x600001cb2420)"><g><clipPath id="clip0x600001cb2780"><path d="M 237.8 2.3 L 829.6 2.3 L 829.6 52.0 L 237.8 52.0 Z M 237.8 2.3 "></path></clipPath><g clip-path="url(#clip0x600001cb2780)"><text xml:space="preserve" font-family="Menlo-Bold,Menlo" font-weight="bold" font-size="26.0" fill="#FEFFFE" transform="matrix(1.00, 0.00, -0.00, -1.00, 453.9, 15.7)">p</text></g></g></g></g><image xlink:href="8982FEE9CA1201E5EB4B41516B692D3F.png" width="26.00" height="25.00" transform="matrix(1.00, 0.00, -0.00, -1.00, 478.0, 34.0)"></image><g><clipPath id="clip0x618001cbba20"><path d="M 236.8 53.0 L 830.6 53.0 L 830.6 1.3 L 236.8 1.3 Z M 236.8 53.0 "></path></clipPath><g clip-path="url(#clip0x618001cbba20)"><g><clipPath id="clip0x618001cbb6c0"><path d="M 237.8 2.3 L 829.6 2.3 L 829.6 52.0 L 237.8 52.0 Z M 237.8 2.3 "></path></clipPath><g clip-path="url(#clip0x618001cbb6c0)"><text xml:space="preserve" font-family="Chalkduster,Chalkduster" font-size="26.0" fill="#FEFFFE" transform="matrix(1.00, 0.00, -0.00, -1.00, 469.6, 15.7)"> </text><text xml:space="preserve" font-family="Chalkduster,Chalkduster" font-size="26.0" fill="#FEFFFE" transform="matrix(1.00, 0.00, -0.00, -1.00, 482.5, 15.7)">e</text><text xml:space="preserve" font-family="Chalkduster,Chalkduster" font-size="26.0" fill="#FEFFFE" transform="matrix(1.00, 0.00, -0.00, -1.00, 498.6, 15.7)"> </text></g></g></g></g><image xlink:href="5FCD2B975F28D35C2587DEABF2900CC4.png" width="24.00" height="31.00" transform="matrix(1.00, 0.00, -0.00, -1.00, 507.0, 36.0)"></image><g><clipPath id="clip0x600001cb28a0"><path d="M 236.8 53.0 L 830.6 53.0 L 830.6 1.3 L 236.8 1.3 Z M 236.8 53.0 "></path></clipPath><g clip-path="url(#clip0x600001cb28a0)"><g><clipPath id="clip0x600001cb2c00"><path d="M 237.8 2.3 L 829.6 2.3 L 829.6 52.0 L 237.8 52.0 Z M 237.8 2.3 "></path></clipPath><g clip-path="url(#clip0x600001cb2c00)"><text xml:space="preserve" font-family="Menlo-Bold,Menlo" font-weight="bold" font-size="26.0" fill="#FEFFFE" transform="matrix(1.00, 0.00, -0.00, -1.00, 511.6, 15.7)">q</text></g></g></g></g><image xlink:href="A5A9AF995AB5125FE8A8C6426D1279B5.png" width="200.00" height="44.00" transform="matrix(1.00, 0.00, -0.00, -1.00, 535.0, 46.0)"></image><g><clipPath id="clip0x600001cb2d80"><path d="M 236.8 53.0 L 830.6 53.0 L 830.6 1.3 L 236.8 1.3 Z M 236.8 53.0 "></path></clipPath><g clip-path="url(#clip0x600001cb2d80)"><g><clipPath id="clip0x600001cb3020"><path d="M 237.8 2.3 L 829.6 2.3 L 829.6 52.0 L 237.8 52.0 Z M 237.8 2.3 "></path></clipPath><g clip-path="url(#clip0x600001cb3020)"><text xml:space="preserve" font-family="Chalkduster,Chalkduster" font-size="26.0" fill="#FEFFFE" transform="matrix(1.00, 0.00, -0.00, -1.00, 527.2, 15.7)"> </text><text xml:space="preserve" font-family="Chalkduster,Chalkduster" font-size="26.0" fill="#FEFFFE" transform="matrix(1.00, 0.00, -0.00, -1.00, 540.1, 15.7)">f</text><text xml:space="preserve" font-family="Chalkduster,Chalkduster" font-size="26.0" fill="#FEFFFE" transform="matrix(1.00, 0.00, -0.00, -1.00, 553.2, 15.7)">o</text><text xml:space="preserve" font-family="Chalkduster,Chalkduster" font-size="26.0" fill="#FEFFFE" transform="matrix(1.00, 0.00, -0.00, -1.00, 572.1, 15.7)">r</text><text xml:space="preserve" font-family="Chalkduster,Chalkduster" font-size="26.0" fill="#FEFFFE" transform="matrix(1.00, 0.00, -0.00, -1.00, 585.3, 15.7)">e</text><text xml:space="preserve" font-family="Chalkduster,Chalkduster" font-size="26.0" fill="#FEFFFE" transform="matrix(1.00, 0.00, -0.00, -1.00, 601.4, 15.7)">m</text><text xml:space="preserve" font-family="Chalkduster,Chalkduster" font-size="26.0" fill="#FEFFFE" transform="matrix(1.00, 0.00, -0.00, -1.00, 627.7, 15.7)"> </text><text xml:space="preserve" font-family="Chalkduster,Chalkduster" font-size="26.0" fill="#FEFFFE" transform="matrix(1.00, 0.00, -0.00, -1.00, 640.6, 15.7)">a</text><text xml:space="preserve" font-family="Chalkduster,Chalkduster" font-size="26.0" fill="#FEFFFE" transform="matrix(1.00, 0.00, -0.00, -1.00, 657.7, 15.7)">m</text><text xml:space="preserve" font-family="Chalkduster,Chalkduster" font-size="26.0" fill="#FEFFFE" transform="matrix(1.00, 0.00, -0.00, -1.00, 684.1, 15.7)">b</text><text xml:space="preserve" font-family="Chalkduster,Chalkduster" font-size="26.0" fill="#FEFFFE" transform="matrix(1.00, 0.00, -0.00, -1.00, 699.2, 15.7)">o</text><text xml:space="preserve" font-family="Chalkduster,Chalkduster" font-size="26.0" fill="#FEFFFE" transform="matrix(1.00, 0.00, -0.00, -1.00, 718.1, 15.7)">s</text><text xml:space="preserve" font-family="Chalkduster,Chalkduster" font-size="26.0" fill="#FEFFFE" transform="matrix(1.00, 0.00, -0.00, -1.00, 731.3, 15.7)"> </text></g></g></g></g><image xlink:href="95552FBBFEA12DFD31D37E94DC383187.png" width="70.00" height="34.00" transform="matrix(1.00, 0.00, -0.00, -1.00, 740.0, 42.0)"></image><g><clipPath id="clip0x600001cb35c0"><path d="M 236.8 53.0 L 830.6 53.0 L 830.6 1.3 L 236.8 1.3 Z M 236.8 53.0 "></path></clipPath><g clip-path="url(#clip0x600001cb35c0)"><g><clipPath id="clip0x600001cb3920"><path d="M 237.8 2.3 L 829.6 2.3 L 829.6 52.0 L 237.8 52.0 Z M 237.8 2.3 "></path></clipPath><g clip-path="url(#clip0x600001cb3920)"><text xml:space="preserve" font-family="Chalkduster,Chalkduster" font-size="26.0" fill="#A8C994" transform="matrix(1.00, 0.00, -0.00, -1.00, 744.1, 15.7)">t</text><text xml:space="preserve" font-family="Chalkduster,Chalkduster" font-size="26.0" fill="#A8C994" transform="matrix(1.00, 0.00, -0.00, -1.00, 756.0, 15.7)">r</text><text xml:space="preserve" font-family="Chalkduster,Chalkduster" font-size="26.0" fill="#A8C994" transform="matrix(1.00, 0.00, -0.00, -1.00, 770.4, 15.7)">u</text><text xml:space="preserve" font-family="Chalkduster,Chalkduster" font-size="26.0" fill="#A8C994" transform="matrix(1.00, 0.00, -0.00, -1.00, 788.3, 15.7)">e</text></g></g></g></g><g><clipPath id="clip0x600001cb3c80"><path d="M 236.8 53.0 L 830.6 53.0 L 830.6 1.3 L 236.8 1.3 Z M 236.8 53.0 "></path></clipPath><g clip-path="url(#clip0x600001cb3c80)"><path d="M 237.4 154.0 L 237.4 306.0 " fill="none" stroke="#FEFFFE" stroke-opacity="0.50" stroke-width="1.00" transform="matrix(1.00, 0.00, 0.00, -1.00, -0.1, 257.1)"></path><path d="M 2.0 154.0 L 830.2 154.0 " fill="none" stroke="#FEFFFE" stroke-opacity="0.50" stroke-width="1.00" transform="matrix(1.00, 0.00, 0.00, -1.00, -0.1, 257.1)"></path><path d="M 2.0 204.7 L 830.7 204.7 " fill="none" stroke="#FEFFFE" stroke-opacity="0.50" stroke-width="1.00" transform="matrix(1.00, 0.00, 0.00, -1.00, -0.1, 257.1)"></path><path d="M 2.0 255.3 L 830.7 255.3 " fill="none" stroke="#FEFFFE" stroke-opacity="0.50" stroke-width="1.00" transform="matrix(1.00, 0.00, 0.00, -1.00, -0.1, 257.1)"></path><path d="M 2.0 306.0 L 830.2 306.0 " fill="none" stroke="#FEFFFE" stroke-opacity="0.50" stroke-width="1.00" transform="matrix(1.00, 0.00, 0.00, -1.00, -0.1, 257.1)"></path><path d="M 2.0 154.0 L 2.0 306.0 " fill="none" stroke="#FEFFFE" stroke-opacity="0.50" stroke-width="1.00" transform="matrix(1.00, 0.00, 0.00, -1.00, -0.1, 257.1)"></path><path d="M 830.2 154.0 L 830.2 306.0 " fill="none" stroke="#FEFFFE" stroke-opacity="0.50" stroke-width="1.00" transform="matrix(1.00, 0.00, 0.00, -1.00, -0.1, 257.1)"></path></g></g></g></svg>