<?xml version="1.0" encoding="UTF-8" standalone="no"?><svg xmlns="http://www.w3.org/2000/svg" xmlns:xlink="http://www.w3.org/1999/xlink" clip-rule="evenodd" stroke-miterlimit="10" viewBox="0 0 1024 768"><desc>SVG generated by Keynote</desc><defs></defs><g transform="matrix(1.00, 0.00, -0.00, -1.00, 0.0, 768.0)"><g><clipPath id="clip0x608003aa9660"><path d="M 0.0 768.0 L 1024.0 768.0 L 1024.0 0.0 L 0.0 0.0 Z M 0.0 768.0 "></path></clipPath><g clip-path="url(#clip0x608003aa9660)"><image xlink:href="../../2454F38C-308E-4D93-86A7-ACF877EF01F7/assets/D54D7AAA5FD1EC733BC359F041C689F1.jpeg" width="2048.00" height="1536.00" transform="matrix(0.50, 0.00, -0.00, -0.50, 0.0, 768.0)"></image></g></g><text xml:space="preserve" font-family="Chalkduster,Chalkduster" font-size="56.0" fill="#A8C994" transform="matrix(1.00, 0.00, -0.00, -1.00, 342.6, 651.6)">w</text><text xml:space="preserve" font-family="Chalkduster,Chalkduster" font-size="56.0" fill="#A8C994" transform="matrix(1.00, 0.00, -0.00, -1.00, 389.6, 651.6)">h</text><text xml:space="preserve" font-family="Chalkduster,Chalkduster" font-size="56.0" fill="#A8C994" transform="matrix(1.00, 0.00, -0.00, -1.00, 425.1, 651.6)">i</text><text xml:space="preserve" font-family="Chalkduster,Chalkduster" font-size="56.0" fill="#A8C994" transform="matrix(1.00, 0.00, -0.00, -1.00, 447.8, 651.6)">l</text><text xml:space="preserve" font-family="Chalkduster,Chalkduster" font-size="56.0" fill="#A8C994" transform="matrix(1.00, 0.00, -0.00, -1.00, 471.0, 651.6)">e</text><text xml:space="preserve" font-family="Chalkduster,Chalkduster" font-size="56.0" fill="#A8C994" transform="matrix(1.00, 0.00, -0.00, -1.00, 505.7, 651.6)">-</text><text xml:space="preserve" font-family="Chalkduster,Chalkduster" font-size="56.0" fill="#A8C994" transform="matrix(1.00, 0.00, -0.00, -1.00, 539.6, 651.6)">l</text><text xml:space="preserve" font-family="Chalkduster,Chalkduster" font-size="56.0" fill="#A8C994" transform="matrix(1.00, 0.00, -0.00, -1.00, 563.7, 651.6)">o</text><text xml:space="preserve" font-family="Chalkduster,Chalkduster" font-size="56.0" fill="#A8C994" transform="matrix(1.00, 0.00, -0.00, -1.00, 606.1, 651.6)">o</text><text xml:space="preserve" font-family="Chalkduster,Chalkduster" font-size="56.0" fill="#A8C994" transform="matrix(1.00, 0.00, -0.00, -1.00, 646.8, 651.6)">p</text></g></svg>